<ttFont>
    <TTGlyph name="A" xMin="7" yMin="0" xMax="667" yMax="710">
      <contour>
        <pt x="289" y="710" on="1"/>
        <pt x="387" y="710" on="1"/>
        <pt x="667" y="0" on="1"/>
        <pt x="549" y="0" on="1"/>
        <pt x="474" y="193" on="1"/>
        <pt x="200" y="193" on="1"/>
        <pt x="126" y="0" on="1"/>
        <pt x="7" y="0" on="1"/>
      </contour>
      <contour>
        <pt x="452" y="276" on="1"/>
        <pt x="338" y="581" on="1"/>
        <pt x="220" y="276" on="1"/>
      </contour>
    </TTGlyph>
    <TTGlyph name="A.sc" xMin="8" yMin="0" xMax="581" yMax="555">
      <contour>
        <pt x="8" y="0" on="1"/>
        <pt x="255" y="555" on="1"/>
        <pt x="336" y="555" on="1"/>
        <pt x="581" y="0" on="1"/>
        <pt x="476" y="0" on="1"/>
        <pt x="412" y="144" on="1"/>
        <pt x="178" y="144" on="1"/>
        <pt x="115" y="0" on="1"/>
      </contour>
      <contour>
        <pt x="295" y="433" on="1"/>
        <pt x="200" y="230" on="1"/>
        <pt x="388" y="230" on="1"/>
      </contour>
    </TTGlyph>
    <TTGlyph name="AE" xMin="-25" yMin="0" xMax="928" yMax="710">
      <contour>
        <pt x="423" y="710" on="1"/>
        <pt x="919" y="710" on="1"/>
        <pt x="919" y="611" on="1"/>
        <pt x="565" y="611" on="1"/>
        <pt x="565" y="411" on="1"/>
        <pt x="865" y="411" on="1"/>
        <pt x="865" y="312" on="1"/>
        <pt x="565" y="312" on="1"/>
        <pt x="565" y="99" on="1"/>
        <pt x="928" y="99" on="1"/>
        <pt x="928" y="0" on="1"/>
        <pt x="453" y="0" on="1"/>
        <pt x="453" y="193" on="1"/>
        <pt x="214" y="193" on="1"/>
        <pt x="96" y="0" on="1"/>
        <pt x="-25" y="0" on="1"/>
      </contour>
      <contour>
        <pt x="445" y="293" on="1"/>
        <pt x="445" y="581" on="1"/>
        <pt x="263" y="293" on="1"/>
      </contour>
    </TTGlyph>
    <TTGlyph name="AEacute" xMin="-25" yMin="0" xMax="928" yMax="916">
      <contour>
        <pt x="577" y="784" on="1"/>
        <pt x="505" y="806" on="1"/>
        <pt x="562" y="916" on="1"/>
        <pt x="667" y="916" on="1"/>
      </contour>
      <contour>
        <pt x="423" y="710" on="1"/>
        <pt x="919" y="710" on="1"/>
        <pt x="919" y="611" on="1"/>
        <pt x="565" y="611" on="1"/>
        <pt x="565" y="411" on="1"/>
        <pt x="865" y="411" on="1"/>
        <pt x="865" y="312" on="1"/>
        <pt x="565" y="312" on="1"/>
        <pt x="565" y="99" on="1"/>
        <pt x="928" y="99" on="1"/>
        <pt x="928" y="0" on="1"/>
        <pt x="453" y="0" on="1"/>
        <pt x="453" y="193" on="1"/>
        <pt x="214" y="193" on="1"/>
        <pt x="96" y="0" on="1"/>
        <pt x="-25" y="0" on="1"/>
      </contour>
      <contour>
        <pt x="445" y="293" on="1"/>
        <pt x="445" y="581" on="1"/>
        <pt x="263" y="293" on="1"/>
      </contour>
    </TTGlyph>
    <TTGlyph name="Aacute" xMin="7" yMin="0" xMax="667" yMax="916">
      <contour>
        <pt x="289" y="710" on="1"/>
        <pt x="387" y="710" on="1"/>
        <pt x="667" y="0" on="1"/>
        <pt x="549" y="0" on="1"/>
        <pt x="474" y="193" on="1"/>
        <pt x="200" y="193" on="1"/>
        <pt x="126" y="0" on="1"/>
        <pt x="7" y="0" on="1"/>
      </contour>
      <contour>
        <pt x="452" y="276" on="1"/>
        <pt x="338" y="581" on="1"/>
        <pt x="220" y="276" on="1"/>
      </contour>
      <contour>
        <pt x="362" y="784" on="1"/>
        <pt x="290" y="806" on="1"/>
        <pt x="347" y="916" on="1"/>
        <pt x="452" y="916" on="1"/>
      </contour>
    </TTGlyph>
    <TTGlyph name="Abreve" xMin="7" yMin="0" xMax="667" yMax="916">
      <contour>
        <pt x="289" y="710" on="1"/>
        <pt x="387" y="710" on="1"/>
        <pt x="667" y="0" on="1"/>
        <pt x="549" y="0" on="1"/>
        <pt x="474" y="193" on="1"/>
        <pt x="200" y="193" on="1"/>
        <pt x="126" y="0" on="1"/>
        <pt x="7" y="0" on="1"/>
      </contour>
      <contour>
        <pt x="452" y="276" on="1"/>
        <pt x="338" y="581" on="1"/>
        <pt x="220" y="276" on="1"/>
      </contour>
      <contour>
        <pt x="338" y="845" on="1"/>
        <pt x="360" y="845" on="0"/>
        <pt x="393" y="885" on="0"/>
        <pt x="396" y="916" on="1"/>
        <pt x="457" y="916" on="1"/>
        <pt x="457" y="890" on="0"/>
        <pt x="439" y="845" on="0"/>
        <pt x="407" y="812" on="0"/>
        <pt x="363" y="794" on="0"/>
        <pt x="338" y="794" on="1"/>
        <pt x="312" y="794" on="0"/>
        <pt x="269" y="812" on="0"/>
        <pt x="237" y="845" on="0"/>
        <pt x="219" y="890" on="0"/>
        <pt x="219" y="916" on="1"/>
        <pt x="280" y="916" on="1"/>
        <pt x="280" y="887" on="0"/>
        <pt x="315" y="845" on="0"/>
      </contour>
    </TTGlyph>
    <TTGlyph name="Acircumflex" xMin="7" yMin="0" xMax="667" yMax="916">
      <contour>
        <pt x="289" y="710" on="1"/>
        <pt x="387" y="710" on="1"/>
        <pt x="667" y="0" on="1"/>
        <pt x="549" y="0" on="1"/>
        <pt x="474" y="193" on="1"/>
        <pt x="200" y="193" on="1"/>
        <pt x="126" y="0" on="1"/>
        <pt x="7" y="0" on="1"/>
      </contour>
      <contour>
        <pt x="452" y="276" on="1"/>
        <pt x="338" y="581" on="1"/>
        <pt x="220" y="276" on="1"/>
      </contour>
      <contour>
        <pt x="194" y="821" on="1"/>
        <pt x="298" y="916" on="1"/>
        <pt x="377" y="916" on="1"/>
        <pt x="481" y="821" on="1"/>
        <pt x="422" y="793" on="1"/>
        <pt x="337" y="856" on="1"/>
        <pt x="252" y="793" on="1"/>
      </contour>
    </TTGlyph>
    <TTGlyph name="Adblgrave" xMin="7" yMin="0" xMax="667" yMax="917">
      <contour>
        <pt x="289" y="710" on="1"/>
        <pt x="387" y="710" on="1"/>
        <pt x="667" y="0" on="1"/>
        <pt x="549" y="0" on="1"/>
        <pt x="474" y="193" on="1"/>
        <pt x="200" y="193" on="1"/>
        <pt x="126" y="0" on="1"/>
        <pt x="7" y="0" on="1"/>
      </contour>
      <contour>
        <pt x="452" y="276" on="1"/>
        <pt x="338" y="581" on="1"/>
        <pt x="220" y="276" on="1"/>
      </contour>
      <contour>
        <pt x="311" y="917" on="1"/>
        <pt x="400" y="917" on="1"/>
        <pt x="451" y="807" on="1"/>
        <pt x="396" y="785" on="1"/>
      </contour>
      <contour>
        <pt x="163" y="917" on="1"/>
        <pt x="253" y="917" on="1"/>
        <pt x="304" y="807" on="1"/>
        <pt x="248" y="785" on="1"/>
      </contour>
    </TTGlyph>
    <TTGlyph name="Adieresis" xMin="7" yMin="0" xMax="667" yMax="912">
      <contour>
        <pt x="289" y="710" on="1"/>
        <pt x="387" y="710" on="1"/>
        <pt x="667" y="0" on="1"/>
        <pt x="549" y="0" on="1"/>
        <pt x="474" y="193" on="1"/>
        <pt x="200" y="193" on="1"/>
        <pt x="126" y="0" on="1"/>
        <pt x="7" y="0" on="1"/>
      </contour>
      <contour>
        <pt x="452" y="276" on="1"/>
        <pt x="338" y="581" on="1"/>
        <pt x="220" y="276" on="1"/>
      </contour>
      <contour>
        <pt x="204" y="802" on="1"/>
        <pt x="204" y="912" on="1"/>
        <pt x="296" y="912" on="1"/>
        <pt x="296" y="802" on="1"/>
      </contour>
      <contour>
        <pt x="381" y="802" on="1"/>
        <pt x="381" y="912" on="1"/>
        <pt x="473" y="912" on="1"/>
        <pt x="473" y="802" on="1"/>
      </contour>
    </TTGlyph>
    <TTGlyph name="Agrave" xMin="7" yMin="0" xMax="667" yMax="917">
      <contour>
        <pt x="289" y="710" on="1"/>
        <pt x="387" y="710" on="1"/>
        <pt x="667" y="0" on="1"/>
        <pt x="549" y="0" on="1"/>
        <pt x="474" y="193" on="1"/>
        <pt x="200" y="193" on="1"/>
        <pt x="126" y="0" on="1"/>
        <pt x="7" y="0" on="1"/>
      </contour>
      <contour>
        <pt x="452" y="276" on="1"/>
        <pt x="338" y="581" on="1"/>
        <pt x="220" y="276" on="1"/>
      </contour>
      <contour>
        <pt x="222" y="917" on="1"/>
        <pt x="327" y="917" on="1"/>
        <pt x="384" y="807" on="1"/>
        <pt x="314" y="785" on="1"/>
      </contour>
    </TTGlyph>
    <TTGlyph name="Ainvertedbreve" xMin="7" yMin="0" xMax="667" yMax="916">
      <contour>
        <pt x="289" y="710" on="1"/>
        <pt x="387" y="710" on="1"/>
        <pt x="667" y="0" on="1"/>
        <pt x="549" y="0" on="1"/>
        <pt x="474" y="193" on="1"/>
        <pt x="200" y="193" on="1"/>
        <pt x="126" y="0" on="1"/>
        <pt x="7" y="0" on="1"/>
      </contour>
      <contour>
        <pt x="452" y="276" on="1"/>
        <pt x="338" y="581" on="1"/>
        <pt x="220" y="276" on="1"/>
      </contour>
      <contour>
        <pt x="338" y="865" on="1"/>
        <pt x="315" y="865" on="0"/>
        <pt x="280" y="823" on="0"/>
        <pt x="280" y="794" on="1"/>
        <pt x="219" y="794" on="1"/>
        <pt x="219" y="820" on="0"/>
        <pt x="237" y="865" on="0"/>
        <pt x="269" y="898" on="0"/>
        <pt x="312" y="916" on="0"/>
        <pt x="338" y="916" on="1"/>
        <pt x="363" y="916" on="0"/>
        <pt x="407" y="898" on="0"/>
        <pt x="439" y="865" on="0"/>
        <pt x="457" y="820" on="0"/>
        <pt x="457" y="794" on="1"/>
        <pt x="396" y="794" on="1"/>
        <pt x="393" y="825" on="0"/>
        <pt x="360" y="865" on="0"/>
      </contour>
    </TTGlyph>
    <TTGlyph name="Amacron" xMin="7" yMin="0" xMax="667" yMax="900">
      <contour>
        <pt x="289" y="710" on="1"/>
        <pt x="387" y="710" on="1"/>
        <pt x="667" y="0" on="1"/>
        <pt x="549" y="0" on="1"/>
        <pt x="474" y="193" on="1"/>
        <pt x="200" y="193" on="1"/>
        <pt x="126" y="0" on="1"/>
        <pt x="7" y="0" on="1"/>
      </contour>
      <contour>
        <pt x="452" y="276" on="1"/>
        <pt x="338" y="581" on="1"/>
        <pt x="220" y="276" on="1"/>
      </contour>
      <contour>
        <pt x="190" y="830" on="1"/>
        <pt x="190" y="900" on="1"/>
        <pt x="486" y="900" on="1"/>
        <pt x="486" y="830" on="1"/>
      </contour>
    </TTGlyph>
    <TTGlyph name="Aogonek" xMin="7" yMin="-188" xMax="667" yMax="710">
      <contour>
        <pt x="620" y="-188" on="1"/>
        <pt x="571" y="-180" on="0"/>
        <pt x="521" y="-135" on="0"/>
        <pt x="521" y="-106" on="1"/>
        <pt x="521" y="-51" on="0"/>
        <pt x="600" y="0" on="1"/>
        <pt x="549" y="0" on="1"/>
        <pt x="474" y="193" on="1"/>
        <pt x="200" y="193" on="1"/>
        <pt x="126" y="0" on="1"/>
        <pt x="7" y="0" on="1"/>
        <pt x="289" y="710" on="1"/>
        <pt x="387" y="710" on="1"/>
        <pt x="667" y="0" on="1"/>
        <pt x="625" y="-26" on="0"/>
        <pt x="587" y="-68" on="0"/>
        <pt x="587" y="-89" on="1"/>
        <pt x="587" y="-126" on="0"/>
        <pt x="645" y="-130" on="1"/>
      </contour>
      <contour>
        <pt x="452" y="276" on="1"/>
        <pt x="338" y="581" on="1"/>
        <pt x="220" y="276" on="1"/>
      </contour>
    </TTGlyph>
    <TTGlyph name="Aring" xMin="7" yMin="0" xMax="667" yMax="916">
      <contour>
        <pt x="289" y="710" on="1"/>
        <pt x="387" y="710" on="1"/>
        <pt x="667" y="0" on="1"/>
        <pt x="549" y="0" on="1"/>
        <pt x="474" y="193" on="1"/>
        <pt x="200" y="193" on="1"/>
        <pt x="126" y="0" on="1"/>
        <pt x="7" y="0" on="1"/>
      </contour>
      <contour>
        <pt x="452" y="276" on="1"/>
        <pt x="338" y="581" on="1"/>
        <pt x="220" y="276" on="1"/>
      </contour>
      <contour>
        <pt x="249" y="843" on="1"/>
        <pt x="249" y="878" on="0"/>
        <pt x="298" y="916" on="0"/>
        <pt x="337" y="916" on="1"/>
        <pt x="377" y="916" on="0"/>
        <pt x="426" y="878" on="0"/>
        <pt x="426" y="843" on="1"/>
        <pt x="426" y="809" on="0"/>
        <pt x="377" y="770" on="0"/>
        <pt x="337" y="770" on="1"/>
        <pt x="298" y="770" on="0"/>
        <pt x="249" y="809" on="0"/>
      </contour>
      <contour>
        <pt x="337" y="880" on="1"/>
        <pt x="320" y="880" on="0"/>
        <pt x="297" y="860" on="0"/>
        <pt x="297" y="843" on="1"/>
        <pt x="297" y="828" on="0"/>
        <pt x="320" y="806" on="0"/>
        <pt x="337" y="806" on="1"/>
        <pt x="354" y="806" on="0"/>
        <pt x="378" y="827" on="0"/>
        <pt x="378" y="843" on="1"/>
        <pt x="378" y="860" on="0"/>
        <pt x="354" y="880" on="0"/>
      </contour>
    </TTGlyph>
    <TTGlyph name="Aringacute" xMin="7" yMin="0" xMax="667" yMax="918">
      <contour>
        <pt x="385" y="810" on="1"/>
        <pt x="404" y="802" on="0"/>
        <pt x="426" y="770" on="0"/>
        <pt x="426" y="747" on="1"/>
        <pt x="426" y="727" on="0"/>
        <pt x="409" y="698" on="0"/>
        <pt x="395" y="689" on="1"/>
        <pt x="667" y="0" on="1"/>
        <pt x="549" y="0" on="1"/>
        <pt x="474" y="193" on="1"/>
        <pt x="200" y="193" on="1"/>
        <pt x="126" y="0" on="1"/>
        <pt x="7" y="0" on="1"/>
        <pt x="280" y="688" on="1"/>
        <pt x="266" y="698" on="0"/>
        <pt x="249" y="727" on="0"/>
        <pt x="249" y="747" on="1"/>
        <pt x="249" y="774" on="0"/>
        <pt x="280" y="809" on="0"/>
        <pt x="306" y="816" on="1"/>
        <pt x="359" y="918" on="1"/>
        <pt x="464" y="918" on="1"/>
      </contour>
      <contour>
        <pt x="452" y="276" on="1"/>
        <pt x="338" y="581" on="1"/>
        <pt x="220" y="276" on="1"/>
      </contour>
      <contour>
        <pt x="337" y="784" on="1"/>
        <pt x="320" y="784" on="0"/>
        <pt x="297" y="764" on="0"/>
        <pt x="297" y="747" on="1"/>
        <pt x="297" y="732" on="0"/>
        <pt x="320" y="710" on="0"/>
        <pt x="337" y="710" on="1"/>
        <pt x="354" y="710" on="0"/>
        <pt x="378" y="731" on="0"/>
        <pt x="378" y="747" on="1"/>
        <pt x="378" y="764" on="0"/>
        <pt x="354" y="784" on="0"/>
      </contour>
    </TTGlyph>
    <TTGlyph name="Atilde" xMin="7" yMin="0" xMax="667" yMax="916">
      <contour>
        <pt x="289" y="710" on="1"/>
        <pt x="387" y="710" on="1"/>
        <pt x="667" y="0" on="1"/>
        <pt x="549" y="0" on="1"/>
        <pt x="474" y="193" on="1"/>
        <pt x="200" y="193" on="1"/>
        <pt x="126" y="0" on="1"/>
        <pt x="7" y="0" on="1"/>
      </contour>
      <contour>
        <pt x="452" y="276" on="1"/>
        <pt x="338" y="581" on="1"/>
        <pt x="220" y="276" on="1"/>
      </contour>
      <contour>
        <pt x="401" y="801" on="1"/>
        <pt x="378" y="801" on="0"/>
        <pt x="344" y="814" on="0"/>
        <pt x="315" y="831" on="0"/>
        <pt x="287" y="844" on="0"/>
        <pt x="271" y="844" on="1"/>
        <pt x="254" y="844" on="0"/>
        <pt x="235" y="830" on="0"/>
        <pt x="225" y="813" on="0"/>
        <pt x="222" y="797" on="0"/>
        <pt x="222" y="796" on="1"/>
        <pt x="160" y="796" on="1"/>
        <pt x="160" y="804" on="0"/>
        <pt x="170" y="842" on="0"/>
        <pt x="195" y="881" on="0"/>
        <pt x="236" y="911" on="0"/>
        <pt x="267" y="911" on="1"/>
        <pt x="289" y="911" on="0"/>
        <pt x="322" y="897" on="0"/>
        <pt x="351" y="881" on="0"/>
        <pt x="380" y="867" on="0"/>
        <pt x="398" y="867" on="1"/>
        <pt x="416" y="867" on="0"/>
        <pt x="438" y="881" on="0"/>
        <pt x="449" y="899" on="0"/>
        <pt x="452" y="914" on="0"/>
        <pt x="452" y="916" on="1"/>
        <pt x="515" y="916" on="1"/>
        <pt x="515" y="910" on="0"/>
        <pt x="504" y="872" on="0"/>
        <pt x="478" y="832" on="0"/>
        <pt x="434" y="801" on="0"/>
      </contour>
    </TTGlyph>
    <TTGlyph name="B" xMin="80" yMin="0" xMax="638" yMax="710">
      <contour>
        <pt x="638" y="183" on="1"/>
        <pt x="638" y="140" on="0"/>
        <pt x="603" y="72" on="0"/>
        <pt x="544" y="25" on="0"/>
        <pt x="464" y="0" on="0"/>
        <pt x="419" y="0" on="1"/>
        <pt x="80" y="0" on="1"/>
        <pt x="80" y="710" on="1"/>
        <pt x="446" y="710" on="1"/>
        <pt x="483" y="710" on="0"/>
        <pt x="543" y="678" on="0"/>
        <pt x="585" y="627" on="0"/>
        <pt x="608" y="562" on="0"/>
        <pt x="608" y="529" on="1"/>
        <pt x="608" y="477" on="0"/>
        <pt x="555" y="386" on="0"/>
        <pt x="506" y="364" on="1"/>
        <pt x="567" y="346" on="0"/>
        <pt x="638" y="251" on="0"/>
      </contour>
      <contour>
        <pt x="523" y="204" on="1"/>
        <pt x="523" y="226" on="0"/>
        <pt x="508" y="266" on="0"/>
        <pt x="483" y="296" on="0"/>
        <pt x="447" y="314" on="0"/>
        <pt x="426" y="314" on="1"/>
        <pt x="192" y="314" on="1"/>
        <pt x="192" y="97" on="1"/>
        <pt x="419" y="97" on="1"/>
        <pt x="441" y="97" on="0"/>
        <pt x="479" y="114" on="0"/>
        <pt x="507" y="143" on="0"/>
        <pt x="523" y="182" on="0"/>
      </contour>
      <contour>
        <pt x="192" y="613" on="1"/>
        <pt x="192" y="404" on="1"/>
        <pt x="398" y="404" on="1"/>
        <pt x="419" y="404" on="0"/>
        <pt x="454" y="420" on="0"/>
        <pt x="481" y="447" on="0"/>
        <pt x="496" y="485" on="0"/>
        <pt x="496" y="508" on="1"/>
        <pt x="496" y="554" on="0"/>
        <pt x="444" y="613" on="0"/>
        <pt x="404" y="613" on="1"/>
      </contour>
    </TTGlyph>
    <TTGlyph name="B.sc" xMin="74" yMin="0" xMax="552" yMax="555">
      <contour>
        <pt x="552" y="143" on="1"/>
        <pt x="552" y="109" on="0"/>
        <pt x="522" y="56" on="0"/>
        <pt x="471" y="19" on="0"/>
        <pt x="403" y="0" on="0"/>
        <pt x="364" y="0" on="1"/>
        <pt x="74" y="0" on="1"/>
        <pt x="74" y="555" on="1"/>
        <pt x="388" y="555" on="1"/>
        <pt x="420" y="555" on="0"/>
        <pt x="471" y="530" on="0"/>
        <pt x="506" y="490" on="0"/>
        <pt x="525" y="439" on="0"/>
        <pt x="525" y="413" on="1"/>
        <pt x="525" y="372" on="0"/>
        <pt x="481" y="302" on="0"/>
        <pt x="439" y="285" on="1"/>
        <pt x="491" y="271" on="0"/>
        <pt x="552" y="197" on="0"/>
      </contour>
      <contour>
        <pt x="451" y="162" on="1"/>
        <pt x="451" y="194" on="0"/>
        <pt x="405" y="241" on="0"/>
        <pt x="370" y="241" on="1"/>
        <pt x="173" y="241" on="1"/>
        <pt x="173" y="85" on="1"/>
        <pt x="364" y="85" on="1"/>
        <pt x="400" y="85" on="0"/>
        <pt x="451" y="130" on="0"/>
      </contour>
      <contour>
        <pt x="173" y="468" on="1"/>
        <pt x="173" y="320" on="1"/>
        <pt x="346" y="320" on="1"/>
        <pt x="381" y="320" on="0"/>
        <pt x="427" y="361" on="0"/>
        <pt x="427" y="394" on="1"/>
        <pt x="427" y="428" on="0"/>
        <pt x="384" y="468" on="0"/>
        <pt x="351" y="468" on="1"/>
      </contour>
    </TTGlyph>
    <TTGlyph name="C" xMin="35" yMin="-6" xMax="660" yMax="714">
      <contour>
        <pt x="35" y="360" on="1"/>
        <pt x="35" y="424" on="0"/>
        <pt x="81" y="551" on="0"/>
        <pt x="170" y="652" on="0"/>
        <pt x="298" y="714" on="0"/>
        <pt x="379" y="714" on="1"/>
        <pt x="476" y="714" on="0"/>
        <pt x="614" y="628" on="0"/>
        <pt x="649" y="559" on="1"/>
        <pt x="561" y="500" on="1"/>
        <pt x="546" y="532" on="0"/>
        <pt x="504" y="576" on="0"/>
        <pt x="454" y="602" on="0"/>
        <pt x="400" y="613" on="0"/>
        <pt x="375" y="613" on="1"/>
        <pt x="319" y="613" on="0"/>
        <pt x="235" y="568" on="0"/>
        <pt x="178" y="494" on="0"/>
        <pt x="149" y="402" on="0"/>
        <pt x="149" y="356" on="1"/>
        <pt x="149" y="304" on="0"/>
        <pt x="183" y="210" on="0"/>
        <pt x="244" y="138" on="0"/>
        <pt x="328" y="95" on="0"/>
        <pt x="378" y="95" on="1"/>
        <pt x="404" y="95" on="0"/>
        <pt x="459" y="108" on="0"/>
        <pt x="510" y="137" on="0"/>
        <pt x="553" y="181" on="0"/>
        <pt x="567" y="212" on="1"/>
        <pt x="660" y="159" on="1"/>
        <pt x="643" y="119" on="0"/>
        <pt x="581" y="58" on="0"/>
        <pt x="503" y="16" on="0"/>
        <pt x="416" y="-6" on="0"/>
        <pt x="374" y="-6" on="1"/>
        <pt x="299" y="-6" on="0"/>
        <pt x="175" y="58" on="0"/>
        <pt x="85" y="161" on="0"/>
        <pt x="35" y="292" on="0"/>
      </contour>
    </TTGlyph>
    <TTGlyph name="C.sc" xMin="36" yMin="-5" xMax="568" yMax="558">
      <contour>
        <pt x="36" y="282" on="1"/>
        <pt x="36" y="332" on="0"/>
        <pt x="75" y="431" on="0"/>
        <pt x="150" y="509" on="0"/>
        <pt x="259" y="558" on="0"/>
        <pt x="328" y="558" on="1"/>
        <pt x="410" y="558" on="0"/>
        <pt x="529" y="491" on="0"/>
        <pt x="558" y="437" on="1"/>
        <pt x="480" y="384" on="1"/>
        <pt x="468" y="408" on="0"/>
        <pt x="432" y="441" on="0"/>
        <pt x="391" y="460" on="0"/>
        <pt x="346" y="469" on="0"/>
        <pt x="325" y="469" on="1"/>
        <pt x="278" y="469" on="0"/>
        <pt x="208" y="435" on="0"/>
        <pt x="161" y="381" on="0"/>
        <pt x="137" y="312" on="0"/>
        <pt x="137" y="278" on="1"/>
        <pt x="137" y="240" on="0"/>
        <pt x="165" y="170" on="0"/>
        <pt x="216" y="116" on="0"/>
        <pt x="285" y="84" on="0"/>
        <pt x="327" y="84" on="1"/>
        <pt x="349" y="84" on="0"/>
        <pt x="395" y="94" on="0"/>
        <pt x="437" y="115" on="0"/>
        <pt x="473" y="149" on="0"/>
        <pt x="485" y="172" on="1"/>
        <pt x="568" y="124" on="1"/>
        <pt x="553" y="93" on="0"/>
        <pt x="500" y="45" on="0"/>
        <pt x="434" y="12" on="0"/>
        <pt x="359" y="-5" on="0"/>
        <pt x="323" y="-5" on="1"/>
        <pt x="260" y="-5" on="0"/>
        <pt x="155" y="45" on="0"/>
        <pt x="78" y="126" on="0"/>
        <pt x="36" y="229" on="0"/>
      </contour>
    </TTGlyph>
    <TTGlyph name="Cacute" xMin="35" yMin="-6" xMax="660" yMax="916">
      <contour>
        <pt x="404" y="784" on="1"/>
        <pt x="332" y="806" on="1"/>
        <pt x="389" y="916" on="1"/>
        <pt x="494" y="916" on="1"/>
      </contour>
      <contour>
        <pt x="35" y="360" on="1"/>
        <pt x="35" y="424" on="0"/>
        <pt x="81" y="551" on="0"/>
        <pt x="170" y="652" on="0"/>
        <pt x="298" y="714" on="0"/>
        <pt x="379" y="714" on="1"/>
        <pt x="476" y="714" on="0"/>
        <pt x="614" y="628" on="0"/>
        <pt x="649" y="559" on="1"/>
        <pt x="561" y="500" on="1"/>
        <pt x="546" y="532" on="0"/>
        <pt x="504" y="576" on="0"/>
        <pt x="454" y="602" on="0"/>
        <pt x="400" y="613" on="0"/>
        <pt x="375" y="613" on="1"/>
        <pt x="319" y="613" on="0"/>
        <pt x="235" y="568" on="0"/>
        <pt x="178" y="494" on="0"/>
        <pt x="149" y="402" on="0"/>
        <pt x="149" y="356" on="1"/>
        <pt x="149" y="304" on="0"/>
        <pt x="183" y="210" on="0"/>
        <pt x="244" y="138" on="0"/>
        <pt x="328" y="95" on="0"/>
        <pt x="378" y="95" on="1"/>
        <pt x="404" y="95" on="0"/>
        <pt x="459" y="108" on="0"/>
        <pt x="510" y="137" on="0"/>
        <pt x="553" y="181" on="0"/>
        <pt x="567" y="212" on="1"/>
        <pt x="660" y="159" on="1"/>
        <pt x="643" y="119" on="0"/>
        <pt x="581" y="58" on="0"/>
        <pt x="503" y="16" on="0"/>
        <pt x="416" y="-6" on="0"/>
        <pt x="374" y="-6" on="1"/>
        <pt x="299" y="-6" on="0"/>
        <pt x="175" y="58" on="0"/>
        <pt x="85" y="161" on="0"/>
        <pt x="35" y="292" on="0"/>
      </contour>
    </TTGlyph>
    <TTGlyph name="Ccaron" xMin="35" yMin="-6" xMax="660" yMax="916">
      <contour>
        <pt x="295" y="916" on="1"/>
        <pt x="380" y="853" on="1"/>
        <pt x="465" y="916" on="1"/>
        <pt x="524" y="888" on="1"/>
        <pt x="420" y="793" on="1"/>
        <pt x="341" y="793" on="1"/>
        <pt x="237" y="888" on="1"/>
      </contour>
      <contour>
        <pt x="35" y="360" on="1"/>
        <pt x="35" y="424" on="0"/>
        <pt x="81" y="551" on="0"/>
        <pt x="170" y="652" on="0"/>
        <pt x="298" y="714" on="0"/>
        <pt x="379" y="714" on="1"/>
        <pt x="476" y="714" on="0"/>
        <pt x="614" y="628" on="0"/>
        <pt x="649" y="559" on="1"/>
        <pt x="561" y="500" on="1"/>
        <pt x="546" y="532" on="0"/>
        <pt x="504" y="576" on="0"/>
        <pt x="454" y="602" on="0"/>
        <pt x="400" y="613" on="0"/>
        <pt x="375" y="613" on="1"/>
        <pt x="319" y="613" on="0"/>
        <pt x="235" y="568" on="0"/>
        <pt x="178" y="494" on="0"/>
        <pt x="149" y="402" on="0"/>
        <pt x="149" y="356" on="1"/>
        <pt x="149" y="304" on="0"/>
        <pt x="183" y="210" on="0"/>
        <pt x="244" y="138" on="0"/>
        <pt x="328" y="95" on="0"/>
        <pt x="378" y="95" on="1"/>
        <pt x="404" y="95" on="0"/>
        <pt x="459" y="108" on="0"/>
        <pt x="510" y="137" on="0"/>
        <pt x="553" y="181" on="0"/>
        <pt x="567" y="212" on="1"/>
        <pt x="660" y="159" on="1"/>
        <pt x="643" y="119" on="0"/>
        <pt x="581" y="58" on="0"/>
        <pt x="503" y="16" on="0"/>
        <pt x="416" y="-6" on="0"/>
        <pt x="374" y="-6" on="1"/>
        <pt x="299" y="-6" on="0"/>
        <pt x="175" y="58" on="0"/>
        <pt x="85" y="161" on="0"/>
        <pt x="35" y="292" on="0"/>
      </contour>
    </TTGlyph>
    <TTGlyph name="Ccedilla" xMin="33" yMin="-189" xMax="658" yMax="714">
      <contour>
        <pt x="289" y="-126" on="1"/>
        <pt x="301" y="-133" on="0"/>
        <pt x="351" y="-146" on="0"/>
        <pt x="377" y="-146" on="1"/>
        <pt x="403" y="-146" on="0"/>
        <pt x="434" y="-130" on="0"/>
        <pt x="434" y="-112" on="1"/>
        <pt x="434" y="-92" on="0"/>
        <pt x="405" y="-78" on="0"/>
        <pt x="382" y="-78" on="1"/>
        <pt x="361" y="-78" on="0"/>
        <pt x="315" y="-86" on="0"/>
        <pt x="302" y="-90" on="1"/>
        <pt x="347" y="-5" on="1"/>
        <pt x="277" y="0" on="0"/>
        <pt x="162" y="67" on="0"/>
        <pt x="79" y="169" on="0"/>
        <pt x="33" y="295" on="0"/>
        <pt x="33" y="360" on="1"/>
        <pt x="33" y="424" on="0"/>
        <pt x="79" y="551" on="0"/>
        <pt x="168" y="652" on="0"/>
        <pt x="296" y="714" on="0"/>
        <pt x="377" y="714" on="1"/>
        <pt x="474" y="714" on="0"/>
        <pt x="612" y="628" on="0"/>
        <pt x="647" y="559" on="1"/>
        <pt x="559" y="500" on="1"/>
        <pt x="544" y="532" on="0"/>
        <pt x="502" y="576" on="0"/>
        <pt x="452" y="602" on="0"/>
        <pt x="398" y="613" on="0"/>
        <pt x="373" y="613" on="1"/>
        <pt x="317" y="613" on="0"/>
        <pt x="233" y="568" on="0"/>
        <pt x="176" y="494" on="0"/>
        <pt x="147" y="402" on="0"/>
        <pt x="147" y="356" on="1"/>
        <pt x="147" y="304" on="0"/>
        <pt x="181" y="210" on="0"/>
        <pt x="242" y="138" on="0"/>
        <pt x="326" y="95" on="0"/>
        <pt x="376" y="95" on="1"/>
        <pt x="402" y="95" on="0"/>
        <pt x="457" y="108" on="0"/>
        <pt x="508" y="137" on="0"/>
        <pt x="551" y="181" on="0"/>
        <pt x="565" y="212" on="1"/>
        <pt x="658" y="159" on="1"/>
        <pt x="643" y="122" on="0"/>
        <pt x="587" y="64" on="0"/>
        <pt x="517" y="22" on="0"/>
        <pt x="437" y="-2" on="0"/>
        <pt x="398" y="-5" on="1"/>
        <pt x="372" y="-45" on="1"/>
        <pt x="380" y="-43" on="0"/>
        <pt x="398" y="-41" on="0"/>
        <pt x="406" y="-41" on="1"/>
        <pt x="441" y="-41" on="0"/>
        <pt x="488" y="-73" on="0"/>
        <pt x="488" y="-108" on="1"/>
        <pt x="488" y="-144" on="0"/>
        <pt x="429" y="-189" on="0"/>
        <pt x="369" y="-189" on="1"/>
        <pt x="337" y="-189" on="0"/>
        <pt x="286" y="-177" on="0"/>
        <pt x="266" y="-169" on="1"/>
      </contour>
    </TTGlyph>
    <TTGlyph name="Ccircumflex" xMin="35" yMin="-6" xMax="660" yMax="916">
      <contour>
        <pt x="234" y="821" on="1"/>
        <pt x="338" y="916" on="1"/>
        <pt x="417" y="916" on="1"/>
        <pt x="521" y="821" on="1"/>
        <pt x="462" y="793" on="1"/>
        <pt x="377" y="856" on="1"/>
        <pt x="292" y="793" on="1"/>
      </contour>
      <contour>
        <pt x="35" y="360" on="1"/>
        <pt x="35" y="424" on="0"/>
        <pt x="81" y="551" on="0"/>
        <pt x="170" y="652" on="0"/>
        <pt x="298" y="714" on="0"/>
        <pt x="379" y="714" on="1"/>
        <pt x="476" y="714" on="0"/>
        <pt x="614" y="628" on="0"/>
        <pt x="649" y="559" on="1"/>
        <pt x="561" y="500" on="1"/>
        <pt x="546" y="532" on="0"/>
        <pt x="504" y="576" on="0"/>
        <pt x="454" y="602" on="0"/>
        <pt x="400" y="613" on="0"/>
        <pt x="375" y="613" on="1"/>
        <pt x="319" y="613" on="0"/>
        <pt x="235" y="568" on="0"/>
        <pt x="178" y="494" on="0"/>
        <pt x="149" y="402" on="0"/>
        <pt x="149" y="356" on="1"/>
        <pt x="149" y="304" on="0"/>
        <pt x="183" y="210" on="0"/>
        <pt x="244" y="138" on="0"/>
        <pt x="328" y="95" on="0"/>
        <pt x="378" y="95" on="1"/>
        <pt x="404" y="95" on="0"/>
        <pt x="459" y="108" on="0"/>
        <pt x="510" y="137" on="0"/>
        <pt x="553" y="181" on="0"/>
        <pt x="567" y="212" on="1"/>
        <pt x="660" y="159" on="1"/>
        <pt x="643" y="119" on="0"/>
        <pt x="581" y="58" on="0"/>
        <pt x="503" y="16" on="0"/>
        <pt x="416" y="-6" on="0"/>
        <pt x="374" y="-6" on="1"/>
        <pt x="299" y="-6" on="0"/>
        <pt x="175" y="58" on="0"/>
        <pt x="85" y="161" on="0"/>
        <pt x="35" y="292" on="0"/>
      </contour>
    </TTGlyph>
    <TTGlyph name="Cdotaccent" xMin="35" yMin="-6" xMax="660" yMax="916">
      <contour>
        <pt x="35" y="360" on="1"/>
        <pt x="35" y="424" on="0"/>
        <pt x="81" y="551" on="0"/>
        <pt x="170" y="652" on="0"/>
        <pt x="298" y="714" on="0"/>
        <pt x="379" y="714" on="1"/>
        <pt x="476" y="714" on="0"/>
        <pt x="614" y="628" on="0"/>
        <pt x="649" y="559" on="1"/>
        <pt x="561" y="500" on="1"/>
        <pt x="546" y="532" on="0"/>
        <pt x="504" y="576" on="0"/>
        <pt x="454" y="602" on="0"/>
        <pt x="400" y="613" on="0"/>
        <pt x="375" y="613" on="1"/>
        <pt x="319" y="613" on="0"/>
        <pt x="235" y="568" on="0"/>
        <pt x="178" y="494" on="0"/>
        <pt x="149" y="402" on="0"/>
        <pt x="149" y="356" on="1"/>
        <pt x="149" y="304" on="0"/>
        <pt x="183" y="210" on="0"/>
        <pt x="244" y="138" on="0"/>
        <pt x="328" y="95" on="0"/>
        <pt x="378" y="95" on="1"/>
        <pt x="404" y="95" on="0"/>
        <pt x="459" y="108" on="0"/>
        <pt x="510" y="137" on="0"/>
        <pt x="553" y="181" on="0"/>
        <pt x="567" y="212" on="1"/>
        <pt x="660" y="159" on="1"/>
        <pt x="643" y="119" on="0"/>
        <pt x="581" y="58" on="0"/>
        <pt x="503" y="16" on="0"/>
        <pt x="416" y="-6" on="0"/>
        <pt x="374" y="-6" on="1"/>
        <pt x="299" y="-6" on="0"/>
        <pt x="175" y="58" on="0"/>
        <pt x="85" y="161" on="0"/>
        <pt x="35" y="292" on="0"/>
      </contour>
      <contour>
        <pt x="329" y="801" on="1"/>
        <pt x="329" y="916" on="1"/>
        <pt x="428" y="916" on="1"/>
        <pt x="428" y="801" on="1"/>
      </contour>
    </TTGlyph>
    <TTGlyph name="D" xMin="80" yMin="0" xMax="678" yMax="710">
      <contour>
        <pt x="80" y="0" on="1"/>
        <pt x="80" y="710" on="1"/>
        <pt x="332" y="710" on="1"/>
        <pt x="418" y="710" on="0"/>
        <pt x="547" y="654" on="0"/>
        <pt x="634" y="558" on="0"/>
        <pt x="678" y="429" on="0"/>
        <pt x="678" y="356" on="1"/>
        <pt x="678" y="275" on="0"/>
        <pt x="629" y="144" on="0"/>
        <pt x="539" y="51" on="0"/>
        <pt x="411" y="0" on="0"/>
        <pt x="332" y="0" on="1"/>
      </contour>
      <contour>
        <pt x="564" y="356" on="1"/>
        <pt x="564" y="412" on="0"/>
        <pt x="533" y="506" on="0"/>
        <pt x="473" y="573" on="0"/>
        <pt x="387" y="611" on="0"/>
        <pt x="332" y="611" on="1"/>
        <pt x="192" y="611" on="1"/>
        <pt x="192" y="99" on="1"/>
        <pt x="332" y="99" on="1"/>
        <pt x="388" y="99" on="0"/>
        <pt x="475" y="138" on="0"/>
        <pt x="534" y="207" on="0"/>
        <pt x="564" y="301" on="0"/>
      </contour>
    </TTGlyph>
    <TTGlyph name="D.sc" xMin="74" yMin="0" xMax="591" yMax="555">
      <contour>
        <pt x="74" y="0" on="1"/>
        <pt x="74" y="555" on="1"/>
        <pt x="292" y="555" on="1"/>
        <pt x="366" y="555" on="0"/>
        <pt x="478" y="512" on="0"/>
        <pt x="553" y="437" on="0"/>
        <pt x="591" y="336" on="0"/>
        <pt x="591" y="279" on="1"/>
        <pt x="591" y="216" on="0"/>
        <pt x="548" y="113" on="0"/>
        <pt x="470" y="40" on="0"/>
        <pt x="360" y="0" on="0"/>
        <pt x="292" y="0" on="1"/>
      </contour>
      <contour>
        <pt x="490" y="279" on="1"/>
        <pt x="490" y="321" on="0"/>
        <pt x="464" y="390" on="0"/>
        <pt x="413" y="439" on="0"/>
        <pt x="339" y="467" on="0"/>
        <pt x="292" y="467" on="1"/>
        <pt x="173" y="467" on="1"/>
        <pt x="173" y="88" on="1"/>
        <pt x="292" y="88" on="1"/>
        <pt x="340" y="88" on="0"/>
        <pt x="414" y="117" on="0"/>
        <pt x="464" y="168" on="0"/>
        <pt x="490" y="238" on="0"/>
      </contour>
    </TTGlyph>
    <TTGlyph name="Dcaron" xMin="80" yMin="0" xMax="678" yMax="916">
      <contour>
        <pt x="250" y="916" on="1"/>
        <pt x="335" y="853" on="1"/>
        <pt x="420" y="916" on="1"/>
        <pt x="479" y="888" on="1"/>
        <pt x="375" y="793" on="1"/>
        <pt x="296" y="793" on="1"/>
        <pt x="192" y="888" on="1"/>
      </contour>
      <contour>
        <pt x="80" y="0" on="1"/>
        <pt x="80" y="710" on="1"/>
        <pt x="332" y="710" on="1"/>
        <pt x="418" y="710" on="0"/>
        <pt x="547" y="654" on="0"/>
        <pt x="634" y="558" on="0"/>
        <pt x="678" y="429" on="0"/>
        <pt x="678" y="356" on="1"/>
        <pt x="678" y="275" on="0"/>
        <pt x="629" y="144" on="0"/>
        <pt x="539" y="51" on="0"/>
        <pt x="411" y="0" on="0"/>
        <pt x="332" y="0" on="1"/>
      </contour>
      <contour>
        <pt x="564" y="356" on="1"/>
        <pt x="564" y="412" on="0"/>
        <pt x="533" y="506" on="0"/>
        <pt x="473" y="573" on="0"/>
        <pt x="387" y="611" on="0"/>
        <pt x="332" y="611" on="1"/>
        <pt x="192" y="611" on="1"/>
        <pt x="192" y="99" on="1"/>
        <pt x="332" y="99" on="1"/>
        <pt x="388" y="99" on="0"/>
        <pt x="475" y="138" on="0"/>
        <pt x="534" y="207" on="0"/>
        <pt x="564" y="301" on="0"/>
      </contour>
    </TTGlyph>
    <TTGlyph name="Dcroat" xMin="33" yMin="0" xMax="684" yMax="710">
      <contour>
        <pt x="86" y="0" on="1"/>
        <pt x="86" y="315" on="1"/>
        <pt x="33" y="315" on="1"/>
        <pt x="33" y="399" on="1"/>
        <pt x="86" y="399" on="1"/>
        <pt x="86" y="710" on="1"/>
        <pt x="338" y="710" on="1"/>
        <pt x="424" y="710" on="0"/>
        <pt x="553" y="654" on="0"/>
        <pt x="640" y="558" on="0"/>
        <pt x="684" y="429" on="0"/>
        <pt x="684" y="356" on="1"/>
        <pt x="684" y="275" on="0"/>
        <pt x="635" y="144" on="0"/>
        <pt x="545" y="51" on="0"/>
        <pt x="417" y="0" on="0"/>
        <pt x="338" y="0" on="1"/>
      </contour>
      <contour>
        <pt x="570" y="356" on="1"/>
        <pt x="570" y="412" on="0"/>
        <pt x="539" y="506" on="0"/>
        <pt x="479" y="573" on="0"/>
        <pt x="393" y="611" on="0"/>
        <pt x="338" y="611" on="1"/>
        <pt x="198" y="611" on="1"/>
        <pt x="198" y="399" on="1"/>
        <pt x="349" y="399" on="1"/>
        <pt x="349" y="315" on="1"/>
        <pt x="198" y="315" on="1"/>
        <pt x="198" y="99" on="1"/>
        <pt x="338" y="99" on="1"/>
        <pt x="394" y="99" on="0"/>
        <pt x="481" y="138" on="0"/>
        <pt x="540" y="207" on="0"/>
        <pt x="570" y="301" on="0"/>
      </contour>
    </TTGlyph>
    <TTGlyph name="Ddotbelow" xMin="80" yMin="-189" xMax="678" yMax="710">
      <contour>
        <pt x="290" y="-189" on="1"/>
        <pt x="290" y="-73" on="1"/>
        <pt x="389" y="-73" on="1"/>
        <pt x="389" y="-189" on="1"/>
      </contour>
      <contour>
        <pt x="80" y="0" on="1"/>
        <pt x="80" y="710" on="1"/>
        <pt x="332" y="710" on="1"/>
        <pt x="418" y="710" on="0"/>
        <pt x="547" y="654" on="0"/>
        <pt x="634" y="558" on="0"/>
        <pt x="678" y="429" on="0"/>
        <pt x="678" y="356" on="1"/>
        <pt x="678" y="275" on="0"/>
        <pt x="629" y="144" on="0"/>
        <pt x="539" y="51" on="0"/>
        <pt x="411" y="0" on="0"/>
        <pt x="332" y="0" on="1"/>
      </contour>
      <contour>
        <pt x="564" y="356" on="1"/>
        <pt x="564" y="412" on="0"/>
        <pt x="533" y="506" on="0"/>
        <pt x="473" y="573" on="0"/>
        <pt x="387" y="611" on="0"/>
        <pt x="332" y="611" on="1"/>
        <pt x="192" y="611" on="1"/>
        <pt x="192" y="99" on="1"/>
        <pt x="332" y="99" on="1"/>
        <pt x="388" y="99" on="0"/>
        <pt x="475" y="138" on="0"/>
        <pt x="534" y="207" on="0"/>
        <pt x="564" y="301" on="0"/>
      </contour>
    </TTGlyph>
    <TTGlyph name="Delta" xMin="7" yMin="0" xMax="616" yMax="710">
      <contour>
        <pt x="616" y="85" on="1"/>
        <pt x="616" y="0" on="1"/>
        <pt x="7" y="0" on="1"/>
        <pt x="7" y="85" on="1"/>
        <pt x="266" y="710" on="1"/>
        <pt x="358" y="710" on="1"/>
      </contour>
      <contour>
        <pt x="499" y="99" on="1"/>
        <pt x="312" y="582" on="1"/>
        <pt x="127" y="99" on="1"/>
      </contour>
    </TTGlyph>
    <TTGlyph name="E" xMin="80" yMin="0" xMax="567" yMax="710">
      <contour>
        <pt x="567" y="99" on="1"/>
        <pt x="567" y="0" on="1"/>
        <pt x="80" y="0" on="1"/>
        <pt x="80" y="710" on="1"/>
        <pt x="558" y="710" on="1"/>
        <pt x="558" y="611" on="1"/>
        <pt x="192" y="611" on="1"/>
        <pt x="192" y="409" on="1"/>
        <pt x="509" y="409" on="1"/>
        <pt x="509" y="316" on="1"/>
        <pt x="192" y="316" on="1"/>
        <pt x="192" y="99" on="1"/>
      </contour>
    </TTGlyph>
    <TTGlyph name="E.sc" xMin="74" yMin="0" xMax="495" yMax="555">
      <contour>
        <pt x="495" y="88" on="1"/>
        <pt x="495" y="0" on="1"/>
        <pt x="74" y="0" on="1"/>
        <pt x="74" y="555" on="1"/>
        <pt x="487" y="555" on="1"/>
        <pt x="487" y="467" on="1"/>
        <pt x="173" y="467" on="1"/>
        <pt x="173" y="323" on="1"/>
        <pt x="445" y="323" on="1"/>
        <pt x="445" y="242" on="1"/>
        <pt x="173" y="242" on="1"/>
        <pt x="173" y="88" on="1"/>
      </contour>
    </TTGlyph>
    <TTGlyph name="Eacute" xMin="80" yMin="0" xMax="567" yMax="916">
      <contour>
        <pt x="355" y="784" on="1"/>
        <pt x="283" y="806" on="1"/>
        <pt x="340" y="916" on="1"/>
        <pt x="445" y="916" on="1"/>
      </contour>
      <contour>
        <pt x="567" y="99" on="1"/>
        <pt x="567" y="0" on="1"/>
        <pt x="80" y="0" on="1"/>
        <pt x="80" y="710" on="1"/>
        <pt x="558" y="710" on="1"/>
        <pt x="558" y="611" on="1"/>
        <pt x="192" y="611" on="1"/>
        <pt x="192" y="409" on="1"/>
        <pt x="509" y="409" on="1"/>
        <pt x="509" y="316" on="1"/>
        <pt x="192" y="316" on="1"/>
        <pt x="192" y="99" on="1"/>
      </contour>
    </TTGlyph>
    <TTGlyph name="Ebreve" xMin="80" yMin="0" xMax="567" yMax="916">
      <contour>
        <pt x="567" y="99" on="1"/>
        <pt x="567" y="0" on="1"/>
        <pt x="80" y="0" on="1"/>
        <pt x="80" y="710" on="1"/>
        <pt x="558" y="710" on="1"/>
        <pt x="558" y="611" on="1"/>
        <pt x="192" y="611" on="1"/>
        <pt x="192" y="409" on="1"/>
        <pt x="509" y="409" on="1"/>
        <pt x="509" y="316" on="1"/>
        <pt x="192" y="316" on="1"/>
        <pt x="192" y="99" on="1"/>
      </contour>
      <contour>
        <pt x="330" y="845" on="1"/>
        <pt x="352" y="845" on="0"/>
        <pt x="385" y="885" on="0"/>
        <pt x="388" y="916" on="1"/>
        <pt x="449" y="916" on="1"/>
        <pt x="449" y="890" on="0"/>
        <pt x="431" y="845" on="0"/>
        <pt x="399" y="812" on="0"/>
        <pt x="355" y="794" on="0"/>
        <pt x="330" y="794" on="1"/>
        <pt x="304" y="794" on="0"/>
        <pt x="261" y="812" on="0"/>
        <pt x="229" y="845" on="0"/>
        <pt x="211" y="890" on="0"/>
        <pt x="211" y="916" on="1"/>
        <pt x="272" y="916" on="1"/>
        <pt x="272" y="887" on="0"/>
        <pt x="307" y="845" on="0"/>
      </contour>
    </TTGlyph>
    <TTGlyph name="Ecaron" xMin="80" yMin="0" xMax="567" yMax="916">
      <contour>
        <pt x="245" y="916" on="1"/>
        <pt x="330" y="853" on="1"/>
        <pt x="415" y="916" on="1"/>
        <pt x="474" y="888" on="1"/>
        <pt x="370" y="793" on="1"/>
        <pt x="291" y="793" on="1"/>
        <pt x="187" y="888" on="1"/>
      </contour>
      <contour>
        <pt x="567" y="99" on="1"/>
        <pt x="567" y="0" on="1"/>
        <pt x="80" y="0" on="1"/>
        <pt x="80" y="710" on="1"/>
        <pt x="558" y="710" on="1"/>
        <pt x="558" y="611" on="1"/>
        <pt x="192" y="611" on="1"/>
        <pt x="192" y="409" on="1"/>
        <pt x="509" y="409" on="1"/>
        <pt x="509" y="316" on="1"/>
        <pt x="192" y="316" on="1"/>
        <pt x="192" y="99" on="1"/>
      </contour>
    </TTGlyph>
    <TTGlyph name="Ecircumflex" xMin="80" yMin="0" xMax="567" yMax="916">
      <contour>
        <pt x="187" y="821" on="1"/>
        <pt x="291" y="916" on="1"/>
        <pt x="370" y="916" on="1"/>
        <pt x="474" y="821" on="1"/>
        <pt x="415" y="793" on="1"/>
        <pt x="330" y="856" on="1"/>
        <pt x="245" y="793" on="1"/>
      </contour>
      <contour>
        <pt x="567" y="99" on="1"/>
        <pt x="567" y="0" on="1"/>
        <pt x="80" y="0" on="1"/>
        <pt x="80" y="710" on="1"/>
        <pt x="558" y="710" on="1"/>
        <pt x="558" y="611" on="1"/>
        <pt x="192" y="611" on="1"/>
        <pt x="192" y="409" on="1"/>
        <pt x="509" y="409" on="1"/>
        <pt x="509" y="316" on="1"/>
        <pt x="192" y="316" on="1"/>
        <pt x="192" y="99" on="1"/>
      </contour>
    </TTGlyph>
    <TTGlyph name="Edblgrave" xMin="80" yMin="0" xMax="567" yMax="917">
      <contour>
        <pt x="303" y="917" on="1"/>
        <pt x="392" y="917" on="1"/>
        <pt x="443" y="807" on="1"/>
        <pt x="388" y="785" on="1"/>
      </contour>
      <contour>
        <pt x="155" y="917" on="1"/>
        <pt x="245" y="917" on="1"/>
        <pt x="296" y="807" on="1"/>
        <pt x="240" y="785" on="1"/>
      </contour>
      <contour>
        <pt x="567" y="99" on="1"/>
        <pt x="567" y="0" on="1"/>
        <pt x="80" y="0" on="1"/>
        <pt x="80" y="710" on="1"/>
        <pt x="558" y="710" on="1"/>
        <pt x="558" y="611" on="1"/>
        <pt x="192" y="611" on="1"/>
        <pt x="192" y="409" on="1"/>
        <pt x="509" y="409" on="1"/>
        <pt x="509" y="316" on="1"/>
        <pt x="192" y="316" on="1"/>
        <pt x="192" y="99" on="1"/>
      </contour>
    </TTGlyph>
    <TTGlyph name="Edieresis" xMin="80" yMin="0" xMax="567" yMax="912">
      <contour>
        <pt x="196" y="802" on="1"/>
        <pt x="196" y="912" on="1"/>
        <pt x="288" y="912" on="1"/>
        <pt x="288" y="802" on="1"/>
      </contour>
      <contour>
        <pt x="373" y="802" on="1"/>
        <pt x="373" y="912" on="1"/>
        <pt x="465" y="912" on="1"/>
        <pt x="465" y="802" on="1"/>
      </contour>
      <contour>
        <pt x="567" y="99" on="1"/>
        <pt x="567" y="0" on="1"/>
        <pt x="80" y="0" on="1"/>
        <pt x="80" y="710" on="1"/>
        <pt x="558" y="710" on="1"/>
        <pt x="558" y="611" on="1"/>
        <pt x="192" y="611" on="1"/>
        <pt x="192" y="409" on="1"/>
        <pt x="509" y="409" on="1"/>
        <pt x="509" y="316" on="1"/>
        <pt x="192" y="316" on="1"/>
        <pt x="192" y="99" on="1"/>
      </contour>
    </TTGlyph>
    <TTGlyph name="Edotaccent" xMin="80" yMin="0" xMax="567" yMax="916">
      <contour>
        <pt x="567" y="99" on="1"/>
        <pt x="567" y="0" on="1"/>
        <pt x="80" y="0" on="1"/>
        <pt x="80" y="710" on="1"/>
        <pt x="558" y="710" on="1"/>
        <pt x="558" y="611" on="1"/>
        <pt x="192" y="611" on="1"/>
        <pt x="192" y="409" on="1"/>
        <pt x="509" y="409" on="1"/>
        <pt x="509" y="316" on="1"/>
        <pt x="192" y="316" on="1"/>
        <pt x="192" y="99" on="1"/>
      </contour>
      <contour>
        <pt x="280" y="801" on="1"/>
        <pt x="280" y="916" on="1"/>
        <pt x="379" y="916" on="1"/>
        <pt x="379" y="801" on="1"/>
      </contour>
    </TTGlyph>
    <TTGlyph name="Edotbelow" xMin="80" yMin="-189" xMax="567" yMax="710">
      <contour>
        <pt x="567" y="99" on="1"/>
        <pt x="567" y="0" on="1"/>
        <pt x="80" y="0" on="1"/>
        <pt x="80" y="710" on="1"/>
        <pt x="558" y="710" on="1"/>
        <pt x="558" y="611" on="1"/>
        <pt x="192" y="611" on="1"/>
        <pt x="192" y="409" on="1"/>
        <pt x="509" y="409" on="1"/>
        <pt x="509" y="316" on="1"/>
        <pt x="192" y="316" on="1"/>
        <pt x="192" y="99" on="1"/>
      </contour>
      <contour>
        <pt x="270" y="-189" on="1"/>
        <pt x="270" y="-73" on="1"/>
        <pt x="369" y="-73" on="1"/>
        <pt x="369" y="-189" on="1"/>
      </contour>
    </TTGlyph>
    <TTGlyph name="Egrave" xMin="80" yMin="0" xMax="567" yMax="917">
      <contour>
        <pt x="567" y="99" on="1"/>
        <pt x="567" y="0" on="1"/>
        <pt x="80" y="0" on="1"/>
        <pt x="80" y="710" on="1"/>
        <pt x="558" y="710" on="1"/>
        <pt x="558" y="611" on="1"/>
        <pt x="192" y="611" on="1"/>
        <pt x="192" y="409" on="1"/>
        <pt x="509" y="409" on="1"/>
        <pt x="509" y="316" on="1"/>
        <pt x="192" y="316" on="1"/>
        <pt x="192" y="99" on="1"/>
      </contour>
      <contour>
        <pt x="214" y="917" on="1"/>
        <pt x="319" y="917" on="1"/>
        <pt x="376" y="807" on="1"/>
        <pt x="306" y="785" on="1"/>
      </contour>
    </TTGlyph>
    <TTGlyph name="Einvertedbreve" xMin="80" yMin="0" xMax="567" yMax="916">
      <contour>
        <pt x="329" y="865" on="1"/>
        <pt x="306" y="865" on="0"/>
        <pt x="271" y="823" on="0"/>
        <pt x="271" y="794" on="1"/>
        <pt x="210" y="794" on="1"/>
        <pt x="210" y="820" on="0"/>
        <pt x="228" y="865" on="0"/>
        <pt x="260" y="898" on="0"/>
        <pt x="303" y="916" on="0"/>
        <pt x="329" y="916" on="1"/>
        <pt x="354" y="916" on="0"/>
        <pt x="398" y="898" on="0"/>
        <pt x="430" y="865" on="0"/>
        <pt x="448" y="820" on="0"/>
        <pt x="448" y="794" on="1"/>
        <pt x="387" y="794" on="1"/>
        <pt x="384" y="825" on="0"/>
        <pt x="351" y="865" on="0"/>
      </contour>
      <contour>
        <pt x="567" y="99" on="1"/>
        <pt x="567" y="0" on="1"/>
        <pt x="80" y="0" on="1"/>
        <pt x="80" y="710" on="1"/>
        <pt x="558" y="710" on="1"/>
        <pt x="558" y="611" on="1"/>
        <pt x="192" y="611" on="1"/>
        <pt x="192" y="409" on="1"/>
        <pt x="509" y="409" on="1"/>
        <pt x="509" y="316" on="1"/>
        <pt x="192" y="316" on="1"/>
        <pt x="192" y="99" on="1"/>
      </contour>
    </TTGlyph>
    <TTGlyph name="Emacron" xMin="80" yMin="0" xMax="567" yMax="900">
      <contour>
        <pt x="567" y="99" on="1"/>
        <pt x="567" y="0" on="1"/>
        <pt x="80" y="0" on="1"/>
        <pt x="80" y="710" on="1"/>
        <pt x="558" y="710" on="1"/>
        <pt x="558" y="611" on="1"/>
        <pt x="192" y="611" on="1"/>
        <pt x="192" y="409" on="1"/>
        <pt x="509" y="409" on="1"/>
        <pt x="509" y="316" on="1"/>
        <pt x="192" y="316" on="1"/>
        <pt x="192" y="99" on="1"/>
      </contour>
      <contour>
        <pt x="183" y="830" on="1"/>
        <pt x="183" y="900" on="1"/>
        <pt x="479" y="900" on="1"/>
        <pt x="479" y="830" on="1"/>
      </contour>
    </TTGlyph>
    <TTGlyph name="Eng" xMin="80" yMin="-191" xMax="676" yMax="710">
      <contour>
        <pt x="192" y="498" on="1"/>
        <pt x="192" y="0" on="1"/>
        <pt x="80" y="0" on="1"/>
        <pt x="80" y="710" on="1"/>
        <pt x="166" y="710" on="1"/>
        <pt x="563" y="204" on="1"/>
        <pt x="563" y="709" on="1"/>
        <pt x="676" y="709" on="1"/>
        <pt x="676" y="-15" on="1"/>
        <pt x="676" y="-54" on="0"/>
        <pt x="648" y="-119" on="0"/>
        <pt x="600" y="-166" on="0"/>
        <pt x="538" y="-191" on="0"/>
        <pt x="504" y="-191" on="1"/>
        <pt x="469" y="-191" on="0"/>
        <pt x="404" y="-169" on="0"/>
        <pt x="378" y="-146" on="1"/>
        <pt x="427" y="-72" on="1"/>
        <pt x="440" y="-84" on="0"/>
        <pt x="474" y="-95" on="0"/>
        <pt x="491" y="-95" on="1"/>
        <pt x="520" y="-95" on="0"/>
        <pt x="566" y="-52" on="0"/>
        <pt x="566" y="-19" on="1"/>
        <pt x="566" y="21" on="1"/>
      </contour>
    </TTGlyph>
    <TTGlyph name="Eogonek" xMin="80" yMin="-188" xMax="567" yMax="710">
      <contour>
        <pt x="567" y="99" on="1"/>
        <pt x="567" y="0" on="1"/>
        <pt x="525" y="-26" on="0"/>
        <pt x="487" y="-68" on="0"/>
        <pt x="487" y="-89" on="1"/>
        <pt x="487" y="-126" on="0"/>
        <pt x="545" y="-130" on="1"/>
        <pt x="520" y="-188" on="1"/>
        <pt x="471" y="-180" on="0"/>
        <pt x="421" y="-135" on="0"/>
        <pt x="421" y="-106" on="1"/>
        <pt x="421" y="-51" on="0"/>
        <pt x="500" y="0" on="1"/>
        <pt x="80" y="0" on="1"/>
        <pt x="80" y="710" on="1"/>
        <pt x="558" y="710" on="1"/>
        <pt x="558" y="611" on="1"/>
        <pt x="192" y="611" on="1"/>
        <pt x="192" y="409" on="1"/>
        <pt x="509" y="409" on="1"/>
        <pt x="509" y="316" on="1"/>
        <pt x="192" y="316" on="1"/>
        <pt x="192" y="99" on="1"/>
      </contour>
    </TTGlyph>
    <TTGlyph name="Eth" xMin="33" yMin="0" xMax="684" yMax="710">
      <contour>
        <pt x="86" y="0" on="1"/>
        <pt x="86" y="315" on="1"/>
        <pt x="33" y="315" on="1"/>
        <pt x="33" y="399" on="1"/>
        <pt x="86" y="399" on="1"/>
        <pt x="86" y="710" on="1"/>
        <pt x="338" y="710" on="1"/>
        <pt x="424" y="710" on="0"/>
        <pt x="553" y="654" on="0"/>
        <pt x="640" y="558" on="0"/>
        <pt x="684" y="429" on="0"/>
        <pt x="684" y="356" on="1"/>
        <pt x="684" y="275" on="0"/>
        <pt x="635" y="144" on="0"/>
        <pt x="545" y="51" on="0"/>
        <pt x="417" y="0" on="0"/>
        <pt x="338" y="0" on="1"/>
      </contour>
      <contour>
        <pt x="570" y="356" on="1"/>
        <pt x="570" y="412" on="0"/>
        <pt x="539" y="506" on="0"/>
        <pt x="479" y="573" on="0"/>
        <pt x="393" y="611" on="0"/>
        <pt x="338" y="611" on="1"/>
        <pt x="198" y="611" on="1"/>
        <pt x="198" y="399" on="1"/>
        <pt x="349" y="399" on="1"/>
        <pt x="349" y="315" on="1"/>
        <pt x="198" y="315" on="1"/>
        <pt x="198" y="99" on="1"/>
        <pt x="338" y="99" on="1"/>
        <pt x="394" y="99" on="0"/>
        <pt x="481" y="138" on="0"/>
        <pt x="540" y="207" on="0"/>
        <pt x="570" y="301" on="0"/>
      </contour>
    </TTGlyph>
    <TTGlyph name="Etilde" xMin="80" yMin="0" xMax="567" yMax="916">
      <contour>
        <pt x="567" y="99" on="1"/>
        <pt x="567" y="0" on="1"/>
        <pt x="80" y="0" on="1"/>
        <pt x="80" y="710" on="1"/>
        <pt x="558" y="710" on="1"/>
        <pt x="558" y="611" on="1"/>
        <pt x="192" y="611" on="1"/>
        <pt x="192" y="409" on="1"/>
        <pt x="509" y="409" on="1"/>
        <pt x="509" y="316" on="1"/>
        <pt x="192" y="316" on="1"/>
        <pt x="192" y="99" on="1"/>
      </contour>
      <contour>
        <pt x="393" y="801" on="1"/>
        <pt x="370" y="801" on="0"/>
        <pt x="336" y="814" on="0"/>
        <pt x="307" y="831" on="0"/>
        <pt x="279" y="844" on="0"/>
        <pt x="263" y="844" on="1"/>
        <pt x="246" y="844" on="0"/>
        <pt x="227" y="830" on="0"/>
        <pt x="217" y="813" on="0"/>
        <pt x="214" y="797" on="0"/>
        <pt x="214" y="796" on="1"/>
        <pt x="152" y="796" on="1"/>
        <pt x="152" y="804" on="0"/>
        <pt x="162" y="842" on="0"/>
        <pt x="187" y="881" on="0"/>
        <pt x="228" y="911" on="0"/>
        <pt x="259" y="911" on="1"/>
        <pt x="281" y="911" on="0"/>
        <pt x="314" y="897" on="0"/>
        <pt x="343" y="881" on="0"/>
        <pt x="372" y="867" on="0"/>
        <pt x="390" y="867" on="1"/>
        <pt x="408" y="867" on="0"/>
        <pt x="430" y="881" on="0"/>
        <pt x="441" y="899" on="0"/>
        <pt x="444" y="914" on="0"/>
        <pt x="444" y="916" on="1"/>
        <pt x="507" y="916" on="1"/>
        <pt x="507" y="910" on="0"/>
        <pt x="496" y="872" on="0"/>
        <pt x="470" y="832" on="0"/>
        <pt x="426" y="801" on="0"/>
      </contour>
    </TTGlyph>
    <TTGlyph name="Euro" xMin="33" yMin="-6" xMax="749" yMax="714">
      <contour>
        <pt x="131" y="431" on="1"/>
        <pt x="142" y="486" on="0"/>
        <pt x="197" y="588" on="0"/>
        <pt x="283" y="667" on="0"/>
        <pt x="398" y="714" on="0"/>
        <pt x="468" y="714" on="1"/>
        <pt x="565" y="714" on="0"/>
        <pt x="703" y="628" on="0"/>
        <pt x="738" y="559" on="1"/>
        <pt x="650" y="500" on="1"/>
        <pt x="635" y="532" on="0"/>
        <pt x="593" y="576" on="0"/>
        <pt x="543" y="602" on="0"/>
        <pt x="489" y="613" on="0"/>
        <pt x="464" y="613" on="1"/>
        <pt x="420" y="613" on="0"/>
        <pt x="348" y="583" on="0"/>
        <pt x="293" y="533" on="0"/>
        <pt x="256" y="467" on="0"/>
        <pt x="247" y="431" on="1"/>
        <pt x="534" y="431" on="1"/>
        <pt x="509" y="369" on="1"/>
        <pt x="238" y="369" on="1"/>
        <pt x="238" y="356" on="1"/>
        <pt x="238" y="334" on="0"/>
        <pt x="241" y="313" on="1"/>
        <pt x="501" y="313" on="1"/>
        <pt x="475" y="251" on="1"/>
        <pt x="257" y="251" on="1"/>
        <pt x="270" y="217" on="0"/>
        <pt x="311" y="160" on="0"/>
        <pt x="365" y="118" on="0"/>
        <pt x="430" y="95" on="0"/>
        <pt x="467" y="95" on="1"/>
        <pt x="493" y="95" on="0"/>
        <pt x="548" y="108" on="0"/>
        <pt x="599" y="137" on="0"/>
        <pt x="642" y="181" on="0"/>
        <pt x="656" y="212" on="1"/>
        <pt x="749" y="159" on="1"/>
        <pt x="732" y="119" on="0"/>
        <pt x="670" y="58" on="0"/>
        <pt x="592" y="16" on="0"/>
        <pt x="505" y="-6" on="0"/>
        <pt x="463" y="-6" on="1"/>
        <pt x="403" y="-6" on="0"/>
        <pt x="300" y="35" on="0"/>
        <pt x="216" y="106" on="0"/>
        <pt x="156" y="199" on="0"/>
        <pt x="140" y="251" on="1"/>
        <pt x="33" y="251" on="1"/>
        <pt x="59" y="313" on="1"/>
        <pt x="127" y="313" on="1"/>
        <pt x="124" y="335" on="0"/>
        <pt x="124" y="360" on="1"/>
        <pt x="124" y="369" on="1"/>
        <pt x="52" y="369" on="1"/>
        <pt x="78" y="431" on="1"/>
      </contour>
    </TTGlyph>
    <TTGlyph name="F" xMin="80" yMin="0" xMax="553" yMax="710">
      <contour>
        <pt x="80" y="0" on="1"/>
        <pt x="80" y="710" on="1"/>
        <pt x="553" y="710" on="1"/>
        <pt x="553" y="611" on="1"/>
        <pt x="192" y="611" on="1"/>
        <pt x="192" y="399" on="1"/>
        <pt x="494" y="399" on="1"/>
        <pt x="494" y="306" on="1"/>
        <pt x="192" y="306" on="1"/>
        <pt x="192" y="0" on="1"/>
      </contour>
    </TTGlyph>
    <TTGlyph name="F.sc" xMin="74" yMin="0" xMax="482" yMax="555">
      <contour>
        <pt x="74" y="0" on="1"/>
        <pt x="74" y="555" on="1"/>
        <pt x="482" y="555" on="1"/>
        <pt x="482" y="467" on="1"/>
        <pt x="173" y="467" on="1"/>
        <pt x="173" y="315" on="1"/>
        <pt x="432" y="315" on="1"/>
        <pt x="432" y="233" on="1"/>
        <pt x="173" y="233" on="1"/>
        <pt x="173" y="0" on="1"/>
      </contour>
    </TTGlyph>
    <TTGlyph name="G" xMin="36" yMin="-5" xMax="671" yMax="715">
      <contour>
        <pt x="577" y="88" on="1"/>
        <pt x="487" y="-5" on="0"/>
        <pt x="370" y="-5" on="1"/>
        <pt x="299" y="-5" on="0"/>
        <pt x="177" y="54" on="0"/>
        <pt x="87" y="154" on="0"/>
        <pt x="36" y="286" on="0"/>
        <pt x="36" y="358" on="1"/>
        <pt x="36" y="430" on="0"/>
        <pt x="87" y="560" on="0"/>
        <pt x="177" y="658" on="0"/>
        <pt x="301" y="715" on="0"/>
        <pt x="374" y="715" on="1"/>
        <pt x="476" y="715" on="0"/>
        <pt x="614" y="630" on="0"/>
        <pt x="649" y="560" on="1"/>
        <pt x="563" y="498" on="1"/>
        <pt x="534" y="556" on="0"/>
        <pt x="432" y="614" on="0"/>
        <pt x="371" y="614" on="1"/>
        <pt x="321" y="614" on="0"/>
        <pt x="239" y="571" on="0"/>
        <pt x="181" y="500" on="0"/>
        <pt x="150" y="406" on="0"/>
        <pt x="150" y="355" on="1"/>
        <pt x="150" y="301" on="0"/>
        <pt x="185" y="207" on="0"/>
        <pt x="246" y="137" on="0"/>
        <pt x="330" y="96" on="0"/>
        <pt x="379" y="96" on="1"/>
        <pt x="433" y="96" on="0"/>
        <pt x="532" y="146" on="0"/>
        <pt x="577" y="200" on="1"/>
        <pt x="577" y="276" on="1"/>
        <pt x="428" y="276" on="1"/>
        <pt x="428" y="359" on="1"/>
        <pt x="671" y="359" on="1"/>
        <pt x="671" y="0" on="1"/>
        <pt x="577" y="0" on="1"/>
      </contour>
    </TTGlyph>
    <TTGlyph name="G.alt" xMin="36" yMin="-5" xMax="702" yMax="715">
      <contour>
        <pt x="381" y="-5" on="1"/>
        <pt x="305" y="-5" on="0"/>
        <pt x="178" y="56" on="0"/>
        <pt x="87" y="158" on="0"/>
        <pt x="36" y="289" on="0"/>
        <pt x="36" y="359" on="1"/>
        <pt x="36" y="428" on="0"/>
        <pt x="85" y="556" on="0"/>
        <pt x="175" y="655" on="0"/>
        <pt x="301" y="715" on="0"/>
        <pt x="378" y="715" on="1"/>
        <pt x="469" y="715" on="0"/>
        <pt x="607" y="634" on="0"/>
        <pt x="649" y="565" on="1"/>
        <pt x="560" y="494" on="1"/>
        <pt x="549" y="512" on="0"/>
        <pt x="515" y="554" on="0"/>
        <pt x="468" y="590" on="0"/>
        <pt x="408" y="614" on="0"/>
        <pt x="371" y="614" on="1"/>
        <pt x="319" y="614" on="0"/>
        <pt x="237" y="569" on="0"/>
        <pt x="180" y="496" on="0"/>
        <pt x="150" y="402" on="0"/>
        <pt x="150" y="354" on="1"/>
        <pt x="150" y="307" on="0"/>
        <pt x="180" y="215" on="0"/>
        <pt x="236" y="141" on="0"/>
        <pt x="318" y="96" on="0"/>
        <pt x="371" y="96" on="1"/>
        <pt x="412" y="96" on="0"/>
        <pt x="482" y="125" on="0"/>
        <pt x="536" y="172" on="0"/>
        <pt x="572" y="233" on="0"/>
        <pt x="579" y="266" on="1"/>
        <pt x="405" y="266" on="1"/>
        <pt x="405" y="366" on="1"/>
        <pt x="702" y="366" on="1"/>
        <pt x="702" y="365" on="0"/>
        <pt x="702" y="348" on="0"/>
        <pt x="701" y="328" on="0"/>
        <pt x="701" y="310" on="0"/>
        <pt x="701" y="308" on="1"/>
        <pt x="697" y="245" on="0"/>
        <pt x="648" y="131" on="0"/>
        <pt x="564" y="46" on="0"/>
        <pt x="450" y="-5" on="0"/>
      </contour>
    </TTGlyph>
    <TTGlyph name="G.sc" xMin="36" yMin="-4" xMax="573" yMax="559">
      <contour>
        <pt x="489" y="64" on="1"/>
        <pt x="414" y="-4" on="0"/>
        <pt x="318" y="-4" on="1"/>
        <pt x="259" y="-4" on="0"/>
        <pt x="156" y="43" on="0"/>
        <pt x="80" y="122" on="0"/>
        <pt x="36" y="225" on="0"/>
        <pt x="36" y="280" on="1"/>
        <pt x="36" y="337" on="0"/>
        <pt x="79" y="438" on="0"/>
        <pt x="156" y="515" on="0"/>
        <pt x="260" y="559" on="0"/>
        <pt x="322" y="559" on="1"/>
        <pt x="407" y="559" on="0"/>
        <pt x="524" y="492" on="0"/>
        <pt x="553" y="438" on="1"/>
        <pt x="477" y="382" on="1"/>
        <pt x="454" y="426" on="0"/>
        <pt x="369" y="470" on="0"/>
        <pt x="318" y="470" on="1"/>
        <pt x="277" y="470" on="0"/>
        <pt x="210" y="438" on="0"/>
        <pt x="163" y="385" on="0"/>
        <pt x="137" y="315" on="0"/>
        <pt x="137" y="277" on="1"/>
        <pt x="137" y="237" on="0"/>
        <pt x="166" y="167" on="0"/>
        <pt x="216" y="115" on="0"/>
        <pt x="285" y="85" on="0"/>
        <pt x="326" y="85" on="1"/>
        <pt x="415" y="85" on="0"/>
        <pt x="489" y="163" on="1"/>
        <pt x="489" y="210" on="1"/>
        <pt x="362" y="210" on="1"/>
        <pt x="362" y="283" on="1"/>
        <pt x="573" y="283" on="1"/>
        <pt x="573" y="0" on="1"/>
        <pt x="489" y="0" on="1"/>
      </contour>
    </TTGlyph>
    <TTGlyph name="Gacute" xMin="36" yMin="-5" xMax="671" yMax="916">
      <contour>
        <pt x="403" y="784" on="1"/>
        <pt x="331" y="806" on="1"/>
        <pt x="388" y="916" on="1"/>
        <pt x="493" y="916" on="1"/>
      </contour>
      <contour>
        <pt x="577" y="88" on="1"/>
        <pt x="487" y="-5" on="0"/>
        <pt x="370" y="-5" on="1"/>
        <pt x="299" y="-5" on="0"/>
        <pt x="177" y="54" on="0"/>
        <pt x="87" y="154" on="0"/>
        <pt x="36" y="286" on="0"/>
        <pt x="36" y="358" on="1"/>
        <pt x="36" y="430" on="0"/>
        <pt x="87" y="560" on="0"/>
        <pt x="177" y="658" on="0"/>
        <pt x="301" y="715" on="0"/>
        <pt x="374" y="715" on="1"/>
        <pt x="476" y="715" on="0"/>
        <pt x="614" y="630" on="0"/>
        <pt x="649" y="560" on="1"/>
        <pt x="563" y="498" on="1"/>
        <pt x="534" y="556" on="0"/>
        <pt x="432" y="614" on="0"/>
        <pt x="371" y="614" on="1"/>
        <pt x="321" y="614" on="0"/>
        <pt x="239" y="571" on="0"/>
        <pt x="181" y="500" on="0"/>
        <pt x="150" y="406" on="0"/>
        <pt x="150" y="355" on="1"/>
        <pt x="150" y="301" on="0"/>
        <pt x="185" y="207" on="0"/>
        <pt x="246" y="137" on="0"/>
        <pt x="330" y="96" on="0"/>
        <pt x="379" y="96" on="1"/>
        <pt x="433" y="96" on="0"/>
        <pt x="532" y="146" on="0"/>
        <pt x="577" y="200" on="1"/>
        <pt x="577" y="276" on="1"/>
        <pt x="428" y="276" on="1"/>
        <pt x="428" y="359" on="1"/>
        <pt x="671" y="359" on="1"/>
        <pt x="671" y="0" on="1"/>
        <pt x="577" y="0" on="1"/>
      </contour>
    </TTGlyph>
    <TTGlyph name="Gbreve" xMin="36" yMin="-5" xMax="671" yMax="916">
      <contour>
        <pt x="577" y="88" on="1"/>
        <pt x="487" y="-5" on="0"/>
        <pt x="370" y="-5" on="1"/>
        <pt x="299" y="-5" on="0"/>
        <pt x="177" y="54" on="0"/>
        <pt x="87" y="154" on="0"/>
        <pt x="36" y="286" on="0"/>
        <pt x="36" y="358" on="1"/>
        <pt x="36" y="430" on="0"/>
        <pt x="87" y="560" on="0"/>
        <pt x="177" y="658" on="0"/>
        <pt x="301" y="715" on="0"/>
        <pt x="374" y="715" on="1"/>
        <pt x="476" y="715" on="0"/>
        <pt x="614" y="630" on="0"/>
        <pt x="649" y="560" on="1"/>
        <pt x="563" y="498" on="1"/>
        <pt x="534" y="556" on="0"/>
        <pt x="432" y="614" on="0"/>
        <pt x="371" y="614" on="1"/>
        <pt x="321" y="614" on="0"/>
        <pt x="239" y="571" on="0"/>
        <pt x="181" y="500" on="0"/>
        <pt x="150" y="406" on="0"/>
        <pt x="150" y="355" on="1"/>
        <pt x="150" y="301" on="0"/>
        <pt x="185" y="207" on="0"/>
        <pt x="246" y="137" on="0"/>
        <pt x="330" y="96" on="0"/>
        <pt x="379" y="96" on="1"/>
        <pt x="433" y="96" on="0"/>
        <pt x="532" y="146" on="0"/>
        <pt x="577" y="200" on="1"/>
        <pt x="577" y="276" on="1"/>
        <pt x="428" y="276" on="1"/>
        <pt x="428" y="359" on="1"/>
        <pt x="671" y="359" on="1"/>
        <pt x="671" y="0" on="1"/>
        <pt x="577" y="0" on="1"/>
      </contour>
      <contour>
        <pt x="374" y="845" on="1"/>
        <pt x="396" y="845" on="0"/>
        <pt x="429" y="885" on="0"/>
        <pt x="432" y="916" on="1"/>
        <pt x="493" y="916" on="1"/>
        <pt x="493" y="890" on="0"/>
        <pt x="475" y="845" on="0"/>
        <pt x="443" y="812" on="0"/>
        <pt x="399" y="794" on="0"/>
        <pt x="374" y="794" on="1"/>
        <pt x="348" y="794" on="0"/>
        <pt x="305" y="812" on="0"/>
        <pt x="273" y="845" on="0"/>
        <pt x="255" y="890" on="0"/>
        <pt x="255" y="916" on="1"/>
        <pt x="316" y="916" on="1"/>
        <pt x="316" y="887" on="0"/>
        <pt x="351" y="845" on="0"/>
      </contour>
    </TTGlyph>
    <TTGlyph name="Gcircumflex" xMin="36" yMin="-5" xMax="671" yMax="916">
      <contour>
        <pt x="230" y="821" on="1"/>
        <pt x="334" y="916" on="1"/>
        <pt x="413" y="916" on="1"/>
        <pt x="517" y="821" on="1"/>
        <pt x="458" y="793" on="1"/>
        <pt x="373" y="856" on="1"/>
        <pt x="288" y="793" on="1"/>
      </contour>
      <contour>
        <pt x="577" y="88" on="1"/>
        <pt x="487" y="-5" on="0"/>
        <pt x="370" y="-5" on="1"/>
        <pt x="299" y="-5" on="0"/>
        <pt x="177" y="54" on="0"/>
        <pt x="87" y="154" on="0"/>
        <pt x="36" y="286" on="0"/>
        <pt x="36" y="358" on="1"/>
        <pt x="36" y="430" on="0"/>
        <pt x="87" y="560" on="0"/>
        <pt x="177" y="658" on="0"/>
        <pt x="301" y="715" on="0"/>
        <pt x="374" y="715" on="1"/>
        <pt x="476" y="715" on="0"/>
        <pt x="614" y="630" on="0"/>
        <pt x="649" y="560" on="1"/>
        <pt x="563" y="498" on="1"/>
        <pt x="534" y="556" on="0"/>
        <pt x="432" y="614" on="0"/>
        <pt x="371" y="614" on="1"/>
        <pt x="321" y="614" on="0"/>
        <pt x="239" y="571" on="0"/>
        <pt x="181" y="500" on="0"/>
        <pt x="150" y="406" on="0"/>
        <pt x="150" y="355" on="1"/>
        <pt x="150" y="301" on="0"/>
        <pt x="185" y="207" on="0"/>
        <pt x="246" y="137" on="0"/>
        <pt x="330" y="96" on="0"/>
        <pt x="379" y="96" on="1"/>
        <pt x="433" y="96" on="0"/>
        <pt x="532" y="146" on="0"/>
        <pt x="577" y="200" on="1"/>
        <pt x="577" y="276" on="1"/>
        <pt x="428" y="276" on="1"/>
        <pt x="428" y="359" on="1"/>
        <pt x="671" y="359" on="1"/>
        <pt x="671" y="0" on="1"/>
        <pt x="577" y="0" on="1"/>
      </contour>
    </TTGlyph>
    <TTGlyph name="Gcommaaccent" xMin="36" yMin="-213" xMax="671" yMax="715">
      <contour>
        <pt x="332" y="-213" on="1"/>
        <pt x="355" y="-136" on="1"/>
        <pt x="323" y="-136" on="1"/>
        <pt x="323" y="-48" on="1"/>
        <pt x="418" y="-48" on="1"/>
        <pt x="418" y="-136" on="1"/>
        <pt x="383" y="-213" on="1"/>
      </contour>
      <contour>
        <pt x="577" y="88" on="1"/>
        <pt x="487" y="-5" on="0"/>
        <pt x="370" y="-5" on="1"/>
        <pt x="299" y="-5" on="0"/>
        <pt x="177" y="54" on="0"/>
        <pt x="87" y="154" on="0"/>
        <pt x="36" y="286" on="0"/>
        <pt x="36" y="358" on="1"/>
        <pt x="36" y="430" on="0"/>
        <pt x="87" y="560" on="0"/>
        <pt x="177" y="658" on="0"/>
        <pt x="301" y="715" on="0"/>
        <pt x="374" y="715" on="1"/>
        <pt x="476" y="715" on="0"/>
        <pt x="614" y="630" on="0"/>
        <pt x="649" y="560" on="1"/>
        <pt x="563" y="498" on="1"/>
        <pt x="534" y="556" on="0"/>
        <pt x="432" y="614" on="0"/>
        <pt x="371" y="614" on="1"/>
        <pt x="321" y="614" on="0"/>
        <pt x="239" y="571" on="0"/>
        <pt x="181" y="500" on="0"/>
        <pt x="150" y="406" on="0"/>
        <pt x="150" y="355" on="1"/>
        <pt x="150" y="301" on="0"/>
        <pt x="185" y="207" on="0"/>
        <pt x="246" y="137" on="0"/>
        <pt x="330" y="96" on="0"/>
        <pt x="379" y="96" on="1"/>
        <pt x="433" y="96" on="0"/>
        <pt x="532" y="146" on="0"/>
        <pt x="577" y="200" on="1"/>
        <pt x="577" y="276" on="1"/>
        <pt x="428" y="276" on="1"/>
        <pt x="428" y="359" on="1"/>
        <pt x="671" y="359" on="1"/>
        <pt x="671" y="0" on="1"/>
        <pt x="577" y="0" on="1"/>
      </contour>
    </TTGlyph>
    <TTGlyph name="Gdotaccent" xMin="36" yMin="-5" xMax="671" yMax="916">
      <contour>
        <pt x="577" y="88" on="1"/>
        <pt x="487" y="-5" on="0"/>
        <pt x="370" y="-5" on="1"/>
        <pt x="299" y="-5" on="0"/>
        <pt x="177" y="54" on="0"/>
        <pt x="87" y="154" on="0"/>
        <pt x="36" y="286" on="0"/>
        <pt x="36" y="358" on="1"/>
        <pt x="36" y="430" on="0"/>
        <pt x="87" y="560" on="0"/>
        <pt x="177" y="658" on="0"/>
        <pt x="301" y="715" on="0"/>
        <pt x="374" y="715" on="1"/>
        <pt x="476" y="715" on="0"/>
        <pt x="614" y="630" on="0"/>
        <pt x="649" y="560" on="1"/>
        <pt x="563" y="498" on="1"/>
        <pt x="534" y="556" on="0"/>
        <pt x="432" y="614" on="0"/>
        <pt x="371" y="614" on="1"/>
        <pt x="321" y="614" on="0"/>
        <pt x="239" y="571" on="0"/>
        <pt x="181" y="500" on="0"/>
        <pt x="150" y="406" on="0"/>
        <pt x="150" y="355" on="1"/>
        <pt x="150" y="301" on="0"/>
        <pt x="185" y="207" on="0"/>
        <pt x="246" y="137" on="0"/>
        <pt x="330" y="96" on="0"/>
        <pt x="379" y="96" on="1"/>
        <pt x="433" y="96" on="0"/>
        <pt x="532" y="146" on="0"/>
        <pt x="577" y="200" on="1"/>
        <pt x="577" y="276" on="1"/>
        <pt x="428" y="276" on="1"/>
        <pt x="428" y="359" on="1"/>
        <pt x="671" y="359" on="1"/>
        <pt x="671" y="0" on="1"/>
        <pt x="577" y="0" on="1"/>
      </contour>
      <contour>
        <pt x="324" y="801" on="1"/>
        <pt x="324" y="916" on="1"/>
        <pt x="423" y="916" on="1"/>
        <pt x="423" y="801" on="1"/>
      </contour>
    </TTGlyph>
    <TTGlyph name="H" xMin="80" yMin="0" xMax="663" yMax="710">
      <contour>
        <pt x="663" y="710" on="1"/>
        <pt x="663" y="0" on="1"/>
        <pt x="550" y="0" on="1"/>
        <pt x="550" y="313" on="1"/>
        <pt x="192" y="313" on="1"/>
        <pt x="192" y="0" on="1"/>
        <pt x="80" y="0" on="1"/>
        <pt x="80" y="710" on="1"/>
        <pt x="192" y="710" on="1"/>
        <pt x="192" y="413" on="1"/>
        <pt x="550" y="413" on="1"/>
        <pt x="550" y="710" on="1"/>
      </contour>
    </TTGlyph>
    <TTGlyph name="H.sc" xMin="74" yMin="0" xMax="578" yMax="555">
      <contour>
        <pt x="578" y="555" on="1"/>
        <pt x="578" y="0" on="1"/>
        <pt x="478" y="0" on="1"/>
        <pt x="478" y="240" on="1"/>
        <pt x="173" y="240" on="1"/>
        <pt x="173" y="0" on="1"/>
        <pt x="74" y="0" on="1"/>
        <pt x="74" y="555" on="1"/>
        <pt x="173" y="555" on="1"/>
        <pt x="173" y="328" on="1"/>
        <pt x="478" y="328" on="1"/>
        <pt x="478" y="555" on="1"/>
      </contour>
    </TTGlyph>
    <TTGlyph name="Hbar" xMin="34" yMin="0" xMax="718" yMax="710">
      <contour>
        <pt x="668" y="710" on="1"/>
        <pt x="668" y="602" on="1"/>
        <pt x="718" y="602" on="1"/>
        <pt x="718" y="546" on="1"/>
        <pt x="668" y="546" on="1"/>
        <pt x="668" y="0" on="1"/>
        <pt x="555" y="0" on="1"/>
        <pt x="555" y="313" on="1"/>
        <pt x="197" y="313" on="1"/>
        <pt x="197" y="0" on="1"/>
        <pt x="85" y="0" on="1"/>
        <pt x="85" y="546" on="1"/>
        <pt x="34" y="546" on="1"/>
        <pt x="34" y="602" on="1"/>
        <pt x="85" y="602" on="1"/>
        <pt x="85" y="710" on="1"/>
        <pt x="197" y="710" on="1"/>
        <pt x="197" y="602" on="1"/>
        <pt x="555" y="602" on="1"/>
        <pt x="555" y="710" on="1"/>
      </contour>
      <contour>
        <pt x="555" y="413" on="1"/>
        <pt x="555" y="546" on="1"/>
        <pt x="197" y="546" on="1"/>
        <pt x="197" y="413" on="1"/>
      </contour>
    </TTGlyph>
    <TTGlyph name="Hcircumflex" xMin="80" yMin="0" xMax="663" yMax="915">
      <contour>
        <pt x="231" y="820" on="1"/>
        <pt x="335" y="915" on="1"/>
        <pt x="414" y="915" on="1"/>
        <pt x="518" y="820" on="1"/>
        <pt x="459" y="792" on="1"/>
        <pt x="374" y="855" on="1"/>
        <pt x="289" y="792" on="1"/>
      </contour>
      <contour>
        <pt x="663" y="710" on="1"/>
        <pt x="663" y="0" on="1"/>
        <pt x="550" y="0" on="1"/>
        <pt x="550" y="313" on="1"/>
        <pt x="192" y="313" on="1"/>
        <pt x="192" y="0" on="1"/>
        <pt x="80" y="0" on="1"/>
        <pt x="80" y="710" on="1"/>
        <pt x="192" y="710" on="1"/>
        <pt x="192" y="413" on="1"/>
        <pt x="550" y="413" on="1"/>
        <pt x="550" y="710" on="1"/>
      </contour>
    </TTGlyph>
    <TTGlyph name="Hdotbelow" xMin="80" yMin="-189" xMax="663" yMax="710">
      <contour>
        <pt x="663" y="710" on="1"/>
        <pt x="663" y="0" on="1"/>
        <pt x="550" y="0" on="1"/>
        <pt x="550" y="313" on="1"/>
        <pt x="192" y="313" on="1"/>
        <pt x="192" y="0" on="1"/>
        <pt x="80" y="0" on="1"/>
        <pt x="80" y="710" on="1"/>
        <pt x="192" y="710" on="1"/>
        <pt x="192" y="413" on="1"/>
        <pt x="550" y="413" on="1"/>
        <pt x="550" y="710" on="1"/>
      </contour>
      <contour>
        <pt x="321" y="-189" on="1"/>
        <pt x="321" y="-73" on="1"/>
        <pt x="420" y="-73" on="1"/>
        <pt x="420" y="-189" on="1"/>
      </contour>
    </TTGlyph>
    <TTGlyph name="I" xMin="80" yMin="0" xMax="192" yMax="710">
      <contour>
        <pt x="80" y="0" on="1"/>
        <pt x="80" y="710" on="1"/>
        <pt x="192" y="710" on="1"/>
        <pt x="192" y="0" on="1"/>
      </contour>
    </TTGlyph>
    <TTGlyph name="I.sc" xMin="74" yMin="0" xMax="173" yMax="555">
      <contour>
        <pt x="74" y="0" on="1"/>
        <pt x="74" y="555" on="1"/>
        <pt x="173" y="555" on="1"/>
        <pt x="173" y="0" on="1"/>
      </contour>
    </TTGlyph>
    <TTGlyph name="IJ" xMin="80" yMin="-11" xMax="688" yMax="710">
      <contour>
        <pt x="80" y="0" on="1"/>
        <pt x="80" y="710" on="1"/>
        <pt x="192" y="710" on="1"/>
        <pt x="192" y="0" on="1"/>
      </contour>
      <contour>
        <pt x="309" y="125" on="1"/>
        <pt x="326" y="113" on="0"/>
        <pt x="393" y="90" on="0"/>
        <pt x="436" y="90" on="1"/>
        <pt x="482" y="90" on="0"/>
        <pt x="537" y="123" on="0"/>
        <pt x="566" y="188" on="0"/>
        <pt x="575" y="285" on="0"/>
        <pt x="575" y="349" on="1"/>
        <pt x="575" y="710" on="1"/>
        <pt x="688" y="710" on="1"/>
        <pt x="688" y="349" on="1"/>
        <pt x="688" y="268" on="0"/>
        <pt x="672" y="135" on="0"/>
        <pt x="620" y="41" on="0"/>
        <pt x="520" y="-11" on="0"/>
        <pt x="436" y="-11" on="1"/>
        <pt x="346" y="-11" on="0"/>
        <pt x="282" y="33" on="1"/>
      </contour>
    </TTGlyph>
    <TTGlyph name="Iacute" xMin="80" yMin="0" xMax="251" yMax="916">
      <contour>
        <pt x="80" y="0" on="1"/>
        <pt x="80" y="710" on="1"/>
        <pt x="192" y="710" on="1"/>
        <pt x="192" y="0" on="1"/>
      </contour>
      <contour>
        <pt x="161" y="784" on="1"/>
        <pt x="89" y="806" on="1"/>
        <pt x="146" y="916" on="1"/>
        <pt x="251" y="916" on="1"/>
      </contour>
    </TTGlyph>
    <TTGlyph name="Ibreve" xMin="17" yMin="0" xMax="255" yMax="916">
      <contour>
        <pt x="80" y="0" on="1"/>
        <pt x="80" y="710" on="1"/>
        <pt x="192" y="710" on="1"/>
        <pt x="192" y="0" on="1"/>
      </contour>
      <contour>
        <pt x="136" y="845" on="1"/>
        <pt x="158" y="845" on="0"/>
        <pt x="191" y="885" on="0"/>
        <pt x="194" y="916" on="1"/>
        <pt x="255" y="916" on="1"/>
        <pt x="255" y="890" on="0"/>
        <pt x="237" y="845" on="0"/>
        <pt x="205" y="812" on="0"/>
        <pt x="161" y="794" on="0"/>
        <pt x="136" y="794" on="1"/>
        <pt x="110" y="794" on="0"/>
        <pt x="67" y="812" on="0"/>
        <pt x="35" y="845" on="0"/>
        <pt x="17" y="890" on="0"/>
        <pt x="17" y="916" on="1"/>
        <pt x="78" y="916" on="1"/>
        <pt x="78" y="887" on="0"/>
        <pt x="113" y="845" on="0"/>
      </contour>
    </TTGlyph>
    <TTGlyph name="Icircumflex" xMin="-7" yMin="0" xMax="280" yMax="916">
      <contour>
        <pt x="80" y="0" on="1"/>
        <pt x="80" y="710" on="1"/>
        <pt x="192" y="710" on="1"/>
        <pt x="192" y="0" on="1"/>
      </contour>
      <contour>
        <pt x="-7" y="821" on="1"/>
        <pt x="97" y="916" on="1"/>
        <pt x="176" y="916" on="1"/>
        <pt x="280" y="821" on="1"/>
        <pt x="221" y="793" on="1"/>
        <pt x="136" y="856" on="1"/>
        <pt x="51" y="793" on="1"/>
      </contour>
    </TTGlyph>
    <TTGlyph name="Idblgrave" xMin="-28" yMin="0" xMax="260" yMax="917">
      <contour>
        <pt x="80" y="0" on="1"/>
        <pt x="80" y="710" on="1"/>
        <pt x="192" y="710" on="1"/>
        <pt x="192" y="0" on="1"/>
      </contour>
      <contour>
        <pt x="120" y="917" on="1"/>
        <pt x="209" y="917" on="1"/>
        <pt x="260" y="807" on="1"/>
        <pt x="205" y="785" on="1"/>
      </contour>
      <contour>
        <pt x="-28" y="917" on="1"/>
        <pt x="62" y="917" on="1"/>
        <pt x="113" y="807" on="1"/>
        <pt x="57" y="785" on="1"/>
      </contour>
    </TTGlyph>
    <TTGlyph name="Idieresis" xMin="2" yMin="0" xMax="271" yMax="912">
      <contour>
        <pt x="80" y="0" on="1"/>
        <pt x="80" y="710" on="1"/>
        <pt x="192" y="710" on="1"/>
        <pt x="192" y="0" on="1"/>
      </contour>
      <contour>
        <pt x="2" y="802" on="1"/>
        <pt x="2" y="912" on="1"/>
        <pt x="94" y="912" on="1"/>
        <pt x="94" y="802" on="1"/>
      </contour>
      <contour>
        <pt x="179" y="802" on="1"/>
        <pt x="179" y="912" on="1"/>
        <pt x="271" y="912" on="1"/>
        <pt x="271" y="802" on="1"/>
      </contour>
    </TTGlyph>
    <TTGlyph name="Idotaccent" xMin="80" yMin="0" xMax="192" yMax="916">
      <contour>
        <pt x="80" y="0" on="1"/>
        <pt x="80" y="710" on="1"/>
        <pt x="192" y="710" on="1"/>
        <pt x="192" y="0" on="1"/>
      </contour>
      <contour>
        <pt x="86" y="801" on="1"/>
        <pt x="86" y="916" on="1"/>
        <pt x="185" y="916" on="1"/>
        <pt x="185" y="801" on="1"/>
      </contour>
    </TTGlyph>
    <TTGlyph name="Idotbelow" xMin="80" yMin="-189" xMax="192" yMax="710">
      <contour>
        <pt x="80" y="0" on="1"/>
        <pt x="80" y="710" on="1"/>
        <pt x="192" y="710" on="1"/>
        <pt x="192" y="0" on="1"/>
      </contour>
      <contour>
        <pt x="84" y="-189" on="1"/>
        <pt x="84" y="-73" on="1"/>
        <pt x="183" y="-73" on="1"/>
        <pt x="183" y="-189" on="1"/>
      </contour>
    </TTGlyph>
    <TTGlyph name="Igrave" xMin="20" yMin="0" xMax="192" yMax="917">
      <contour>
        <pt x="80" y="0" on="1"/>
        <pt x="80" y="710" on="1"/>
        <pt x="192" y="710" on="1"/>
        <pt x="192" y="0" on="1"/>
      </contour>
      <contour>
        <pt x="20" y="917" on="1"/>
        <pt x="125" y="917" on="1"/>
        <pt x="182" y="807" on="1"/>
        <pt x="112" y="785" on="1"/>
      </contour>
    </TTGlyph>
    <TTGlyph name="Iinvertedbreve" xMin="15" yMin="0" xMax="253" yMax="916">
      <contour>
        <pt x="80" y="0" on="1"/>
        <pt x="80" y="710" on="1"/>
        <pt x="192" y="710" on="1"/>
        <pt x="192" y="0" on="1"/>
      </contour>
      <contour>
        <pt x="134" y="865" on="1"/>
        <pt x="111" y="865" on="0"/>
        <pt x="76" y="823" on="0"/>
        <pt x="76" y="794" on="1"/>
        <pt x="15" y="794" on="1"/>
        <pt x="15" y="820" on="0"/>
        <pt x="33" y="865" on="0"/>
        <pt x="65" y="898" on="0"/>
        <pt x="108" y="916" on="0"/>
        <pt x="134" y="916" on="1"/>
        <pt x="159" y="916" on="0"/>
        <pt x="203" y="898" on="0"/>
        <pt x="235" y="865" on="0"/>
        <pt x="253" y="820" on="0"/>
        <pt x="253" y="794" on="1"/>
        <pt x="192" y="794" on="1"/>
        <pt x="189" y="825" on="0"/>
        <pt x="156" y="865" on="0"/>
      </contour>
    </TTGlyph>
    <TTGlyph name="Imacron" xMin="-11" yMin="0" xMax="285" yMax="900">
      <contour>
        <pt x="80" y="0" on="1"/>
        <pt x="80" y="710" on="1"/>
        <pt x="192" y="710" on="1"/>
        <pt x="192" y="0" on="1"/>
      </contour>
      <contour>
        <pt x="-11" y="830" on="1"/>
        <pt x="-11" y="900" on="1"/>
        <pt x="285" y="900" on="1"/>
        <pt x="285" y="830" on="1"/>
      </contour>
    </TTGlyph>
    <TTGlyph name="Iogonek" xMin="46" yMin="-188" xMax="192" yMax="710">
      <contour>
        <pt x="145" y="-188" on="1"/>
        <pt x="96" y="-180" on="0"/>
        <pt x="46" y="-135" on="0"/>
        <pt x="46" y="-106" on="1"/>
        <pt x="46" y="-51" on="0"/>
        <pt x="125" y="0" on="1"/>
        <pt x="80" y="0" on="1"/>
        <pt x="80" y="710" on="1"/>
        <pt x="192" y="710" on="1"/>
        <pt x="192" y="0" on="1"/>
        <pt x="150" y="-26" on="0"/>
        <pt x="112" y="-68" on="0"/>
        <pt x="112" y="-89" on="1"/>
        <pt x="112" y="-126" on="0"/>
        <pt x="170" y="-130" on="1"/>
        <pt x="145" y="-188" on="1"/>
      </contour>
    </TTGlyph>
    <TTGlyph name="Itilde" xMin="-42" yMin="0" xMax="313" yMax="916">
      <contour>
        <pt x="80" y="0" on="1"/>
        <pt x="80" y="710" on="1"/>
        <pt x="192" y="710" on="1"/>
        <pt x="192" y="0" on="1"/>
      </contour>
      <contour>
        <pt x="199" y="801" on="1"/>
        <pt x="176" y="801" on="0"/>
        <pt x="142" y="814" on="0"/>
        <pt x="113" y="831" on="0"/>
        <pt x="85" y="844" on="0"/>
        <pt x="69" y="844" on="1"/>
        <pt x="52" y="844" on="0"/>
        <pt x="33" y="830" on="0"/>
        <pt x="23" y="813" on="0"/>
        <pt x="20" y="797" on="0"/>
        <pt x="20" y="796" on="1"/>
        <pt x="-42" y="796" on="1"/>
        <pt x="-42" y="804" on="0"/>
        <pt x="-32" y="842" on="0"/>
        <pt x="-7" y="881" on="0"/>
        <pt x="34" y="911" on="0"/>
        <pt x="65" y="911" on="1"/>
        <pt x="87" y="911" on="0"/>
        <pt x="120" y="897" on="0"/>
        <pt x="149" y="881" on="0"/>
        <pt x="178" y="867" on="0"/>
        <pt x="196" y="867" on="1"/>
        <pt x="214" y="867" on="0"/>
        <pt x="236" y="881" on="0"/>
        <pt x="247" y="899" on="0"/>
        <pt x="250" y="914" on="0"/>
        <pt x="250" y="916" on="1"/>
        <pt x="313" y="916" on="1"/>
        <pt x="313" y="910" on="0"/>
        <pt x="302" y="872" on="0"/>
        <pt x="276" y="832" on="0"/>
        <pt x="232" y="801" on="0"/>
      </contour>
    </TTGlyph>
    <TTGlyph name="J" xMin="10" yMin="-11" xMax="416" yMax="710">
      <contour>
        <pt x="37" y="125" on="1"/>
        <pt x="54" y="113" on="0"/>
        <pt x="121" y="90" on="0"/>
        <pt x="164" y="90" on="1"/>
        <pt x="210" y="90" on="0"/>
        <pt x="265" y="123" on="0"/>
        <pt x="294" y="188" on="0"/>
        <pt x="303" y="285" on="0"/>
        <pt x="303" y="349" on="1"/>
        <pt x="303" y="710" on="1"/>
        <pt x="416" y="710" on="1"/>
        <pt x="416" y="349" on="1"/>
        <pt x="416" y="268" on="0"/>
        <pt x="400" y="135" on="0"/>
        <pt x="348" y="41" on="0"/>
        <pt x="248" y="-11" on="0"/>
        <pt x="164" y="-11" on="1"/>
        <pt x="74" y="-11" on="0"/>
        <pt x="10" y="33" on="1"/>
      </contour>
    </TTGlyph>
    <TTGlyph name="J.sc" xMin="15" yMin="-8" xMax="366" yMax="555">
      <contour>
        <pt x="39" y="107" on="1"/>
        <pt x="53" y="99" on="0"/>
        <pt x="111" y="80" on="0"/>
        <pt x="148" y="80" on="1"/>
        <pt x="188" y="80" on="0"/>
        <pt x="235" y="104" on="0"/>
        <pt x="260" y="152" on="0"/>
        <pt x="267" y="225" on="0"/>
        <pt x="267" y="273" on="1"/>
        <pt x="267" y="555" on="1"/>
        <pt x="366" y="555" on="1"/>
        <pt x="366" y="273" on="1"/>
        <pt x="366" y="210" on="0"/>
        <pt x="353" y="106" on="0"/>
        <pt x="308" y="32" on="0"/>
        <pt x="221" y="-8" on="0"/>
        <pt x="148" y="-8" on="1"/>
        <pt x="69" y="-8" on="0"/>
        <pt x="15" y="25" on="1"/>
      </contour>
    </TTGlyph>
    <TTGlyph name="Jcircumflex" xMin="10" yMin="-11" xMax="505" yMax="916">
      <contour>
        <pt x="218" y="821" on="1"/>
        <pt x="322" y="916" on="1"/>
        <pt x="401" y="916" on="1"/>
        <pt x="505" y="821" on="1"/>
        <pt x="446" y="793" on="1"/>
        <pt x="361" y="856" on="1"/>
        <pt x="276" y="793" on="1"/>
      </contour>
      <contour>
        <pt x="37" y="125" on="1"/>
        <pt x="54" y="113" on="0"/>
        <pt x="121" y="90" on="0"/>
        <pt x="164" y="90" on="1"/>
        <pt x="210" y="90" on="0"/>
        <pt x="265" y="123" on="0"/>
        <pt x="294" y="188" on="0"/>
        <pt x="303" y="285" on="0"/>
        <pt x="303" y="349" on="1"/>
        <pt x="303" y="710" on="1"/>
        <pt x="416" y="710" on="1"/>
        <pt x="416" y="349" on="1"/>
        <pt x="416" y="268" on="0"/>
        <pt x="400" y="135" on="0"/>
        <pt x="348" y="41" on="0"/>
        <pt x="248" y="-11" on="0"/>
        <pt x="164" y="-11" on="1"/>
        <pt x="74" y="-11" on="0"/>
        <pt x="10" y="33" on="1"/>
      </contour>
    </TTGlyph>
    <TTGlyph name="K" xMin="80" yMin="0" xMax="666" yMax="710">
      <contour>
        <pt x="80" y="0" on="1"/>
        <pt x="80" y="709" on="1"/>
        <pt x="192" y="709" on="1"/>
        <pt x="192" y="344" on="1"/>
        <pt x="526" y="710" on="1"/>
        <pt x="650" y="710" on="1"/>
        <pt x="370" y="396" on="1"/>
        <pt x="666" y="0" on="1"/>
        <pt x="541" y="0" on="1"/>
        <pt x="301" y="327" on="1"/>
        <pt x="192" y="214" on="1"/>
        <pt x="192" y="0" on="1"/>
      </contour>
    </TTGlyph>
    <TTGlyph name="K.sc" xMin="74" yMin="0" xMax="581" yMax="555">
      <contour>
        <pt x="74" y="0" on="1"/>
        <pt x="74" y="555" on="1"/>
        <pt x="173" y="555" on="1"/>
        <pt x="173" y="276" on="1"/>
        <pt x="461" y="555" on="1"/>
        <pt x="567" y="555" on="1"/>
        <pt x="327" y="309" on="1"/>
        <pt x="581" y="0" on="1"/>
        <pt x="475" y="0" on="1"/>
        <pt x="267" y="252" on="1"/>
        <pt x="173" y="168" on="1"/>
        <pt x="173" y="0" on="1"/>
      </contour>
    </TTGlyph>
    <TTGlyph name="Kcommaaccent" xMin="80" yMin="-213" xMax="666" yMax="710">
      <contour>
        <pt x="302" y="-213" on="1"/>
        <pt x="325" y="-136" on="1"/>
        <pt x="293" y="-136" on="1"/>
        <pt x="293" y="-48" on="1"/>
        <pt x="388" y="-48" on="1"/>
        <pt x="388" y="-136" on="1"/>
        <pt x="353" y="-213" on="1"/>
      </contour>
      <contour>
        <pt x="80" y="0" on="1"/>
        <pt x="80" y="709" on="1"/>
        <pt x="192" y="709" on="1"/>
        <pt x="192" y="344" on="1"/>
        <pt x="526" y="710" on="1"/>
        <pt x="650" y="710" on="1"/>
        <pt x="370" y="396" on="1"/>
        <pt x="666" y="0" on="1"/>
        <pt x="541" y="0" on="1"/>
        <pt x="301" y="327" on="1"/>
        <pt x="192" y="214" on="1"/>
        <pt x="192" y="0" on="1"/>
      </contour>
    </TTGlyph>
    <TTGlyph name="L" xMin="80" yMin="0" xMax="573" yMax="710">
      <contour>
        <pt x="80" y="0" on="1"/>
        <pt x="80" y="710" on="1"/>
        <pt x="192" y="710" on="1"/>
        <pt x="192" y="99" on="1"/>
        <pt x="573" y="99" on="1"/>
        <pt x="573" y="0" on="1"/>
      </contour>
    </TTGlyph>
    <TTGlyph name="L.sc" xMin="74" yMin="0" xMax="475" yMax="555">
      <contour>
        <pt x="74" y="0" on="1"/>
        <pt x="74" y="555" on="1"/>
        <pt x="173" y="555" on="1"/>
        <pt x="173" y="88" on="1"/>
        <pt x="475" y="88" on="1"/>
        <pt x="475" y="0" on="1"/>
      </contour>
    </TTGlyph>
    <TTGlyph name="Lacute" xMin="80" yMin="0" xMax="573" yMax="916">
      <contour>
        <pt x="378" y="784" on="1"/>
        <pt x="306" y="806" on="1"/>
        <pt x="363" y="916" on="1"/>
        <pt x="468" y="916" on="1"/>
      </contour>
      <contour>
        <pt x="80" y="0" on="1"/>
        <pt x="80" y="710" on="1"/>
        <pt x="192" y="710" on="1"/>
        <pt x="192" y="99" on="1"/>
        <pt x="573" y="99" on="1"/>
        <pt x="573" y="0" on="1"/>
      </contour>
    </TTGlyph>
    <TTGlyph name="Lcaron" xMin="80" yMin="0" xMax="573" yMax="730">
      <contour>
        <pt x="402" y="598" on="1"/>
        <pt x="330" y="620" on="1"/>
        <pt x="387" y="730" on="1"/>
        <pt x="492" y="730" on="1"/>
      </contour>
      <contour>
        <pt x="80" y="0" on="1"/>
        <pt x="80" y="710" on="1"/>
        <pt x="192" y="710" on="1"/>
        <pt x="192" y="99" on="1"/>
        <pt x="573" y="99" on="1"/>
        <pt x="573" y="0" on="1"/>
      </contour>
    </TTGlyph>
    <TTGlyph name="Lcommaaccent" xMin="80" yMin="-213" xMax="573" yMax="710">
      <contour>
        <pt x="293" y="-213" on="1"/>
        <pt x="316" y="-136" on="1"/>
        <pt x="284" y="-136" on="1"/>
        <pt x="284" y="-48" on="1"/>
        <pt x="379" y="-48" on="1"/>
        <pt x="379" y="-136" on="1"/>
        <pt x="344" y="-213" on="1"/>
      </contour>
      <contour>
        <pt x="80" y="0" on="1"/>
        <pt x="80" y="710" on="1"/>
        <pt x="192" y="710" on="1"/>
        <pt x="192" y="99" on="1"/>
        <pt x="573" y="99" on="1"/>
        <pt x="573" y="0" on="1"/>
      </contour>
    </TTGlyph>
    <TTGlyph name="Ldot" xMin="80" yMin="0" xMax="573" yMax="710">
      <contour>
        <pt x="80" y="0" on="1"/>
        <pt x="80" y="710" on="1"/>
        <pt x="192" y="710" on="1"/>
        <pt x="192" y="99" on="1"/>
        <pt x="573" y="99" on="1"/>
        <pt x="573" y="0" on="1"/>
      </contour>
      <contour>
        <pt x="366" y="337" on="1"/>
        <pt x="366" y="474" on="1"/>
        <pt x="457" y="474" on="1"/>
        <pt x="457" y="337" on="1"/>
      </contour>
    </TTGlyph>
    <TTGlyph name="Lslash" xMin="4" yMin="0" xMax="581" yMax="710">
      <contour>
        <pt x="88" y="0" on="1"/>
        <pt x="88" y="275" on="1"/>
        <pt x="34" y="237" on="1"/>
        <pt x="4" y="298" on="1"/>
        <pt x="88" y="357" on="1"/>
        <pt x="88" y="710" on="1"/>
        <pt x="200" y="710" on="1"/>
        <pt x="200" y="435" on="1"/>
        <pt x="327" y="524" on="1"/>
        <pt x="356" y="464" on="1"/>
        <pt x="200" y="354" on="1"/>
        <pt x="200" y="99" on="1"/>
        <pt x="581" y="99" on="1"/>
        <pt x="581" y="0" on="1"/>
      </contour>
    </TTGlyph>
    <TTGlyph name="M" xMin="80" yMin="0" xMax="790" yMax="710">
      <contour>
        <pt x="677" y="0" on="1"/>
        <pt x="677" y="511" on="1"/>
        <pt x="466" y="124" on="1"/>
        <pt x="404" y="124" on="1"/>
        <pt x="192" y="511" on="1"/>
        <pt x="192" y="0" on="1"/>
        <pt x="80" y="0" on="1"/>
        <pt x="80" y="710" on="1"/>
        <pt x="200" y="710" on="1"/>
        <pt x="435" y="276" on="1"/>
        <pt x="670" y="710" on="1"/>
        <pt x="790" y="710" on="1"/>
        <pt x="790" y="0" on="1"/>
      </contour>
    </TTGlyph>
    <TTGlyph name="M.sc" xMin="74" yMin="0" xMax="687" yMax="555">
      <contour>
        <pt x="587" y="0" on="1"/>
        <pt x="587" y="380" on="1"/>
        <pt x="408" y="95" on="1"/>
        <pt x="353" y="95" on="1"/>
        <pt x="173" y="380" on="1"/>
        <pt x="173" y="0" on="1"/>
        <pt x="74" y="0" on="1"/>
        <pt x="74" y="555" on="1"/>
        <pt x="181" y="555" on="1"/>
        <pt x="381" y="230" on="1"/>
        <pt x="581" y="555" on="1"/>
        <pt x="687" y="555" on="1"/>
        <pt x="687" y="0" on="1"/>
      </contour>
    </TTGlyph>
    <TTGlyph name="N" xMin="80" yMin="0" xMax="687" yMax="710">
      <contour>
        <pt x="192" y="500" on="1"/>
        <pt x="192" y="0" on="1"/>
        <pt x="80" y="0" on="1"/>
        <pt x="80" y="710" on="1"/>
        <pt x="168" y="710" on="1"/>
        <pt x="574" y="198" on="1"/>
        <pt x="574" y="709" on="1"/>
        <pt x="687" y="709" on="1"/>
        <pt x="687" y="0" on="1"/>
        <pt x="594" y="0" on="1"/>
      </contour>
    </TTGlyph>
    <TTGlyph name="N.sc" xMin="74" yMin="0" xMax="598" yMax="555">
      <contour>
        <pt x="173" y="370" on="1"/>
        <pt x="173" y="0" on="1"/>
        <pt x="74" y="0" on="1"/>
        <pt x="74" y="555" on="1"/>
        <pt x="151" y="555" on="1"/>
        <pt x="498" y="177" on="1"/>
        <pt x="498" y="555" on="1"/>
        <pt x="598" y="555" on="1"/>
        <pt x="598" y="0" on="1"/>
        <pt x="516" y="0" on="1"/>
      </contour>
    </TTGlyph>
    <TTGlyph name="Nacute" xMin="80" yMin="0" xMax="687" yMax="915">
      <contour>
        <pt x="409" y="783" on="1"/>
        <pt x="337" y="805" on="1"/>
        <pt x="394" y="915" on="1"/>
        <pt x="499" y="915" on="1"/>
      </contour>
      <contour>
        <pt x="192" y="500" on="1"/>
        <pt x="192" y="0" on="1"/>
        <pt x="80" y="0" on="1"/>
        <pt x="80" y="710" on="1"/>
        <pt x="168" y="710" on="1"/>
        <pt x="574" y="198" on="1"/>
        <pt x="574" y="709" on="1"/>
        <pt x="687" y="709" on="1"/>
        <pt x="687" y="0" on="1"/>
        <pt x="594" y="0" on="1"/>
      </contour>
    </TTGlyph>
    <TTGlyph name="Ncaron" xMin="80" yMin="0" xMax="687" yMax="915">
      <contour>
        <pt x="299" y="915" on="1"/>
        <pt x="384" y="852" on="1"/>
        <pt x="469" y="915" on="1"/>
        <pt x="528" y="887" on="1"/>
        <pt x="424" y="792" on="1"/>
        <pt x="345" y="792" on="1"/>
        <pt x="241" y="887" on="1"/>
      </contour>
      <contour>
        <pt x="192" y="500" on="1"/>
        <pt x="192" y="0" on="1"/>
        <pt x="80" y="0" on="1"/>
        <pt x="80" y="710" on="1"/>
        <pt x="168" y="710" on="1"/>
        <pt x="574" y="198" on="1"/>
        <pt x="574" y="709" on="1"/>
        <pt x="687" y="709" on="1"/>
        <pt x="687" y="0" on="1"/>
        <pt x="594" y="0" on="1"/>
      </contour>
    </TTGlyph>
    <TTGlyph name="Ncommaaccent" xMin="80" yMin="-213" xMax="687" yMax="710">
      <contour>
        <pt x="342" y="-213" on="1"/>
        <pt x="365" y="-136" on="1"/>
        <pt x="333" y="-136" on="1"/>
        <pt x="333" y="-48" on="1"/>
        <pt x="428" y="-48" on="1"/>
        <pt x="428" y="-136" on="1"/>
        <pt x="393" y="-213" on="1"/>
      </contour>
      <contour>
        <pt x="192" y="500" on="1"/>
        <pt x="192" y="0" on="1"/>
        <pt x="80" y="0" on="1"/>
        <pt x="80" y="710" on="1"/>
        <pt x="168" y="710" on="1"/>
        <pt x="574" y="198" on="1"/>
        <pt x="574" y="709" on="1"/>
        <pt x="687" y="709" on="1"/>
        <pt x="687" y="0" on="1"/>
        <pt x="594" y="0" on="1"/>
      </contour>
    </TTGlyph>
    <TTGlyph name="Ndotaccent" xMin="80" yMin="0" xMax="687" yMax="915">
      <contour>
        <pt x="334" y="800" on="1"/>
        <pt x="334" y="915" on="1"/>
        <pt x="433" y="915" on="1"/>
        <pt x="433" y="800" on="1"/>
      </contour>
      <contour>
        <pt x="192" y="500" on="1"/>
        <pt x="192" y="0" on="1"/>
        <pt x="80" y="0" on="1"/>
        <pt x="80" y="710" on="1"/>
        <pt x="168" y="710" on="1"/>
        <pt x="574" y="198" on="1"/>
        <pt x="574" y="709" on="1"/>
        <pt x="687" y="709" on="1"/>
        <pt x="687" y="0" on="1"/>
        <pt x="594" y="0" on="1"/>
      </contour>
    </TTGlyph>
    <TTGlyph name="Ntilde" xMin="80" yMin="0" xMax="687" yMax="915">
      <contour>
        <pt x="192" y="500" on="1"/>
        <pt x="192" y="0" on="1"/>
        <pt x="80" y="0" on="1"/>
        <pt x="80" y="710" on="1"/>
        <pt x="168" y="710" on="1"/>
        <pt x="574" y="198" on="1"/>
        <pt x="574" y="709" on="1"/>
        <pt x="687" y="709" on="1"/>
        <pt x="687" y="0" on="1"/>
        <pt x="594" y="0" on="1"/>
      </contour>
      <contour>
        <pt x="447" y="800" on="1"/>
        <pt x="424" y="800" on="0"/>
        <pt x="390" y="813" on="0"/>
        <pt x="361" y="830" on="0"/>
        <pt x="333" y="843" on="0"/>
        <pt x="317" y="843" on="1"/>
        <pt x="300" y="843" on="0"/>
        <pt x="281" y="829" on="0"/>
        <pt x="271" y="812" on="0"/>
        <pt x="268" y="796" on="0"/>
        <pt x="268" y="795" on="1"/>
        <pt x="206" y="795" on="1"/>
        <pt x="206" y="803" on="0"/>
        <pt x="216" y="841" on="0"/>
        <pt x="241" y="880" on="0"/>
        <pt x="282" y="910" on="0"/>
        <pt x="313" y="910" on="1"/>
        <pt x="335" y="910" on="0"/>
        <pt x="368" y="896" on="0"/>
        <pt x="397" y="880" on="0"/>
        <pt x="426" y="866" on="0"/>
        <pt x="444" y="866" on="1"/>
        <pt x="462" y="866" on="0"/>
        <pt x="484" y="880" on="0"/>
        <pt x="495" y="898" on="0"/>
        <pt x="498" y="913" on="0"/>
        <pt x="498" y="915" on="1"/>
        <pt x="561" y="915" on="1"/>
        <pt x="561" y="909" on="0"/>
        <pt x="550" y="871" on="0"/>
        <pt x="524" y="831" on="0"/>
        <pt x="480" y="800" on="0"/>
      </contour>
    </TTGlyph>
    <TTGlyph name="O" xMin="35" yMin="-5" xMax="716" yMax="715">
      <contour>
        <pt x="375" y="-5" on="1"/>
        <pt x="299" y="-5" on="0"/>
        <pt x="174" y="56" on="0"/>
        <pt x="84" y="157" on="0"/>
        <pt x="35" y="287" on="0"/>
        <pt x="35" y="355" on="1"/>
        <pt x="35" y="426" on="0"/>
        <pt x="87" y="556" on="0"/>
        <pt x="178" y="656" on="0"/>
        <pt x="303" y="715" on="0"/>
        <pt x="377" y="715" on="1"/>
        <pt x="453" y="715" on="0"/>
        <pt x="578" y="652" on="0"/>
        <pt x="667" y="550" on="0"/>
        <pt x="716" y="421" on="0"/>
        <pt x="716" y="354" on="1"/>
        <pt x="716" y="283" on="0"/>
        <pt x="665" y="153" on="0"/>
        <pt x="573" y="54" on="0"/>
        <pt x="448" y="-5" on="0"/>
      </contour>
      <contour>
        <pt x="149" y="355" on="1"/>
        <pt x="149" y="305" on="0"/>
        <pt x="181" y="211" on="0"/>
        <pt x="240" y="139" on="0"/>
        <pt x="324" y="96" on="0"/>
        <pt x="376" y="96" on="1"/>
        <pt x="430" y="96" on="0"/>
        <pt x="513" y="141" on="0"/>
        <pt x="571" y="215" on="0"/>
        <pt x="601" y="307" on="0"/>
        <pt x="601" y="355" on="1"/>
        <pt x="601" y="406" on="0"/>
        <pt x="569" y="499" on="0"/>
        <pt x="510" y="570" on="0"/>
        <pt x="427" y="613" on="0"/>
        <pt x="376" y="613" on="1"/>
        <pt x="322" y="613" on="0"/>
        <pt x="238" y="568" on="0"/>
        <pt x="180" y="496" on="0"/>
        <pt x="149" y="403" on="0"/>
      </contour>
    </TTGlyph>
    <TTGlyph name="O.sc" xMin="36" yMin="-4" xMax="615" yMax="558">
      <contour>
        <pt x="325" y="-4" on="1"/>
        <pt x="260" y="-4" on="0"/>
        <pt x="154" y="44" on="0"/>
        <pt x="78" y="123" on="0"/>
        <pt x="36" y="224" on="0"/>
        <pt x="36" y="278" on="1"/>
        <pt x="36" y="333" on="0"/>
        <pt x="80" y="434" on="0"/>
        <pt x="158" y="512" on="0"/>
        <pt x="264" y="558" on="0"/>
        <pt x="327" y="558" on="1"/>
        <pt x="392" y="558" on="0"/>
        <pt x="498" y="509" on="0"/>
        <pt x="574" y="430" on="0"/>
        <pt x="615" y="328" on="0"/>
        <pt x="615" y="276" on="1"/>
        <pt x="615" y="221" on="0"/>
        <pt x="572" y="120" on="0"/>
        <pt x="494" y="42" on="0"/>
        <pt x="388" y="-4" on="0"/>
      </contour>
      <contour>
        <pt x="137" y="277" on="1"/>
        <pt x="137" y="240" on="0"/>
        <pt x="163" y="171" on="0"/>
        <pt x="213" y="117" on="0"/>
        <pt x="283" y="85" on="0"/>
        <pt x="327" y="85" on="1"/>
        <pt x="371" y="85" on="0"/>
        <pt x="441" y="119" on="0"/>
        <pt x="489" y="173" on="0"/>
        <pt x="514" y="242" on="0"/>
        <pt x="514" y="278" on="1"/>
        <pt x="514" y="315" on="0"/>
        <pt x="487" y="384" on="0"/>
        <pt x="438" y="437" on="0"/>
        <pt x="369" y="469" on="0"/>
        <pt x="326" y="469" on="1"/>
        <pt x="281" y="469" on="0"/>
        <pt x="211" y="435" on="0"/>
        <pt x="163" y="381" on="0"/>
        <pt x="137" y="312" on="0"/>
      </contour>
    </TTGlyph>
    <TTGlyph name="OE" xMin="35" yMin="-5" xMax="1074" yMax="715">
      <contour>
        <pt x="1074" y="99" on="1"/>
        <pt x="1074" y="0" on="1"/>
        <pt x="597" y="0" on="1"/>
        <pt x="597" y="132" on="1"/>
        <pt x="580" y="103" on="0"/>
        <pt x="533" y="53" on="0"/>
        <pt x="475" y="16" on="0"/>
        <pt x="408" y="-5" on="0"/>
        <pt x="371" y="-5" on="1"/>
        <pt x="296" y="-5" on="0"/>
        <pt x="172" y="56" on="0"/>
        <pt x="84" y="157" on="0"/>
        <pt x="35" y="287" on="0"/>
        <pt x="35" y="355" on="1"/>
        <pt x="35" y="426" on="0"/>
        <pt x="86" y="556" on="0"/>
        <pt x="176" y="656" on="0"/>
        <pt x="300" y="715" on="0"/>
        <pt x="373" y="715" on="1"/>
        <pt x="410" y="715" on="0"/>
        <pt x="477" y="694" on="0"/>
        <pt x="534" y="657" on="0"/>
        <pt x="580" y="607" on="0"/>
        <pt x="597" y="578" on="1"/>
        <pt x="597" y="710" on="1"/>
        <pt x="1065" y="710" on="1"/>
        <pt x="1065" y="611" on="1"/>
        <pt x="710" y="611" on="1"/>
        <pt x="710" y="411" on="1"/>
        <pt x="1011" y="411" on="1"/>
        <pt x="1011" y="312" on="1"/>
        <pt x="710" y="312" on="1"/>
        <pt x="710" y="99" on="1"/>
      </contour>
      <contour>
        <pt x="372" y="96" on="1"/>
        <pt x="424" y="96" on="0"/>
        <pt x="506" y="141" on="0"/>
        <pt x="563" y="214" on="0"/>
        <pt x="593" y="308" on="0"/>
        <pt x="593" y="356" on="1"/>
        <pt x="593" y="406" on="0"/>
        <pt x="561" y="499" on="0"/>
        <pt x="503" y="571" on="0"/>
        <pt x="421" y="614" on="0"/>
        <pt x="371" y="614" on="1"/>
        <pt x="319" y="614" on="0"/>
        <pt x="236" y="569" on="0"/>
        <pt x="179" y="496" on="0"/>
        <pt x="149" y="403" on="0"/>
        <pt x="149" y="355" on="1"/>
        <pt x="149" y="305" on="0"/>
        <pt x="180" y="211" on="0"/>
        <pt x="238" y="139" on="0"/>
        <pt x="321" y="96" on="0"/>
      </contour>
    </TTGlyph>
    <TTGlyph name="Oacute" xMin="35" yMin="-5" xMax="716" yMax="916">
      <contour>
        <pt x="403" y="784" on="1"/>
        <pt x="331" y="806" on="1"/>
        <pt x="388" y="916" on="1"/>
        <pt x="493" y="916" on="1"/>
      </contour>
      <contour>
        <pt x="375" y="-5" on="1"/>
        <pt x="299" y="-5" on="0"/>
        <pt x="174" y="56" on="0"/>
        <pt x="84" y="157" on="0"/>
        <pt x="35" y="287" on="0"/>
        <pt x="35" y="355" on="1"/>
        <pt x="35" y="426" on="0"/>
        <pt x="87" y="556" on="0"/>
        <pt x="178" y="656" on="0"/>
        <pt x="303" y="715" on="0"/>
        <pt x="377" y="715" on="1"/>
        <pt x="453" y="715" on="0"/>
        <pt x="578" y="652" on="0"/>
        <pt x="667" y="550" on="0"/>
        <pt x="716" y="421" on="0"/>
        <pt x="716" y="354" on="1"/>
        <pt x="716" y="283" on="0"/>
        <pt x="665" y="153" on="0"/>
        <pt x="573" y="54" on="0"/>
        <pt x="448" y="-5" on="0"/>
      </contour>
      <contour>
        <pt x="149" y="355" on="1"/>
        <pt x="149" y="305" on="0"/>
        <pt x="181" y="211" on="0"/>
        <pt x="240" y="139" on="0"/>
        <pt x="324" y="96" on="0"/>
        <pt x="376" y="96" on="1"/>
        <pt x="430" y="96" on="0"/>
        <pt x="513" y="141" on="0"/>
        <pt x="571" y="215" on="0"/>
        <pt x="601" y="307" on="0"/>
        <pt x="601" y="355" on="1"/>
        <pt x="601" y="406" on="0"/>
        <pt x="569" y="499" on="0"/>
        <pt x="510" y="570" on="0"/>
        <pt x="427" y="613" on="0"/>
        <pt x="376" y="613" on="1"/>
        <pt x="322" y="613" on="0"/>
        <pt x="238" y="568" on="0"/>
        <pt x="180" y="496" on="0"/>
        <pt x="149" y="403" on="0"/>
      </contour>
    </TTGlyph>
    <TTGlyph name="Obreve" xMin="35" yMin="-5" xMax="716" yMax="916">
      <contour>
        <pt x="375" y="-5" on="1"/>
        <pt x="299" y="-5" on="0"/>
        <pt x="174" y="56" on="0"/>
        <pt x="84" y="157" on="0"/>
        <pt x="35" y="287" on="0"/>
        <pt x="35" y="355" on="1"/>
        <pt x="35" y="426" on="0"/>
        <pt x="87" y="556" on="0"/>
        <pt x="178" y="656" on="0"/>
        <pt x="303" y="715" on="0"/>
        <pt x="377" y="715" on="1"/>
        <pt x="453" y="715" on="0"/>
        <pt x="578" y="652" on="0"/>
        <pt x="667" y="550" on="0"/>
        <pt x="716" y="421" on="0"/>
        <pt x="716" y="354" on="1"/>
        <pt x="716" y="283" on="0"/>
        <pt x="665" y="153" on="0"/>
        <pt x="573" y="54" on="0"/>
        <pt x="448" y="-5" on="0"/>
      </contour>
      <contour>
        <pt x="149" y="355" on="1"/>
        <pt x="149" y="305" on="0"/>
        <pt x="181" y="211" on="0"/>
        <pt x="240" y="139" on="0"/>
        <pt x="324" y="96" on="0"/>
        <pt x="376" y="96" on="1"/>
        <pt x="430" y="96" on="0"/>
        <pt x="513" y="141" on="0"/>
        <pt x="571" y="215" on="0"/>
        <pt x="601" y="307" on="0"/>
        <pt x="601" y="355" on="1"/>
        <pt x="601" y="406" on="0"/>
        <pt x="569" y="499" on="0"/>
        <pt x="510" y="570" on="0"/>
        <pt x="427" y="613" on="0"/>
        <pt x="376" y="613" on="1"/>
        <pt x="322" y="613" on="0"/>
        <pt x="238" y="568" on="0"/>
        <pt x="180" y="496" on="0"/>
        <pt x="149" y="403" on="0"/>
      </contour>
      <contour>
        <pt x="378" y="845" on="1"/>
        <pt x="400" y="845" on="0"/>
        <pt x="433" y="885" on="0"/>
        <pt x="436" y="916" on="1"/>
        <pt x="497" y="916" on="1"/>
        <pt x="497" y="890" on="0"/>
        <pt x="479" y="845" on="0"/>
        <pt x="447" y="812" on="0"/>
        <pt x="403" y="794" on="0"/>
        <pt x="378" y="794" on="1"/>
        <pt x="352" y="794" on="0"/>
        <pt x="309" y="812" on="0"/>
        <pt x="277" y="845" on="0"/>
        <pt x="259" y="890" on="0"/>
        <pt x="259" y="916" on="1"/>
        <pt x="320" y="916" on="1"/>
        <pt x="320" y="887" on="0"/>
        <pt x="355" y="845" on="0"/>
      </contour>
    </TTGlyph>
    <TTGlyph name="Ocircumflex" xMin="35" yMin="-5" xMax="716" yMax="916">
      <contour>
        <pt x="233" y="821" on="1"/>
        <pt x="337" y="916" on="1"/>
        <pt x="416" y="916" on="1"/>
        <pt x="520" y="821" on="1"/>
        <pt x="461" y="793" on="1"/>
        <pt x="376" y="856" on="1"/>
        <pt x="291" y="793" on="1"/>
      </contour>
      <contour>
        <pt x="375" y="-5" on="1"/>
        <pt x="299" y="-5" on="0"/>
        <pt x="174" y="56" on="0"/>
        <pt x="84" y="157" on="0"/>
        <pt x="35" y="287" on="0"/>
        <pt x="35" y="355" on="1"/>
        <pt x="35" y="426" on="0"/>
        <pt x="87" y="556" on="0"/>
        <pt x="178" y="656" on="0"/>
        <pt x="303" y="715" on="0"/>
        <pt x="377" y="715" on="1"/>
        <pt x="453" y="715" on="0"/>
        <pt x="578" y="652" on="0"/>
        <pt x="667" y="550" on="0"/>
        <pt x="716" y="421" on="0"/>
        <pt x="716" y="354" on="1"/>
        <pt x="716" y="283" on="0"/>
        <pt x="665" y="153" on="0"/>
        <pt x="573" y="54" on="0"/>
        <pt x="448" y="-5" on="0"/>
      </contour>
      <contour>
        <pt x="149" y="355" on="1"/>
        <pt x="149" y="305" on="0"/>
        <pt x="181" y="211" on="0"/>
        <pt x="240" y="139" on="0"/>
        <pt x="324" y="96" on="0"/>
        <pt x="376" y="96" on="1"/>
        <pt x="430" y="96" on="0"/>
        <pt x="513" y="141" on="0"/>
        <pt x="571" y="215" on="0"/>
        <pt x="601" y="307" on="0"/>
        <pt x="601" y="355" on="1"/>
        <pt x="601" y="406" on="0"/>
        <pt x="569" y="499" on="0"/>
        <pt x="510" y="570" on="0"/>
        <pt x="427" y="613" on="0"/>
        <pt x="376" y="613" on="1"/>
        <pt x="322" y="613" on="0"/>
        <pt x="238" y="568" on="0"/>
        <pt x="180" y="496" on="0"/>
        <pt x="149" y="403" on="0"/>
      </contour>
    </TTGlyph>
    <TTGlyph name="Odblgrave" xMin="35" yMin="-5" xMax="716" yMax="917">
      <contour>
        <pt x="347" y="917" on="1"/>
        <pt x="436" y="917" on="1"/>
        <pt x="487" y="807" on="1"/>
        <pt x="432" y="785" on="1"/>
      </contour>
      <contour>
        <pt x="199" y="917" on="1"/>
        <pt x="289" y="917" on="1"/>
        <pt x="340" y="807" on="1"/>
        <pt x="284" y="785" on="1"/>
      </contour>
      <contour>
        <pt x="375" y="-5" on="1"/>
        <pt x="299" y="-5" on="0"/>
        <pt x="174" y="56" on="0"/>
        <pt x="84" y="157" on="0"/>
        <pt x="35" y="287" on="0"/>
        <pt x="35" y="355" on="1"/>
        <pt x="35" y="426" on="0"/>
        <pt x="87" y="556" on="0"/>
        <pt x="178" y="656" on="0"/>
        <pt x="303" y="715" on="0"/>
        <pt x="377" y="715" on="1"/>
        <pt x="453" y="715" on="0"/>
        <pt x="578" y="652" on="0"/>
        <pt x="667" y="550" on="0"/>
        <pt x="716" y="421" on="0"/>
        <pt x="716" y="354" on="1"/>
        <pt x="716" y="283" on="0"/>
        <pt x="665" y="153" on="0"/>
        <pt x="573" y="54" on="0"/>
        <pt x="448" y="-5" on="0"/>
      </contour>
      <contour>
        <pt x="149" y="355" on="1"/>
        <pt x="149" y="305" on="0"/>
        <pt x="181" y="211" on="0"/>
        <pt x="240" y="139" on="0"/>
        <pt x="324" y="96" on="0"/>
        <pt x="376" y="96" on="1"/>
        <pt x="430" y="96" on="0"/>
        <pt x="513" y="141" on="0"/>
        <pt x="571" y="215" on="0"/>
        <pt x="601" y="307" on="0"/>
        <pt x="601" y="355" on="1"/>
        <pt x="601" y="406" on="0"/>
        <pt x="569" y="499" on="0"/>
        <pt x="510" y="570" on="0"/>
        <pt x="427" y="613" on="0"/>
        <pt x="376" y="613" on="1"/>
        <pt x="322" y="613" on="0"/>
        <pt x="238" y="568" on="0"/>
        <pt x="180" y="496" on="0"/>
        <pt x="149" y="403" on="0"/>
      </contour>
    </TTGlyph>
    <TTGlyph name="Odieresis" xMin="35" yMin="-5" xMax="716" yMax="912">
      <contour>
        <pt x="243" y="802" on="1"/>
        <pt x="243" y="912" on="1"/>
        <pt x="335" y="912" on="1"/>
        <pt x="335" y="802" on="1"/>
      </contour>
      <contour>
        <pt x="420" y="802" on="1"/>
        <pt x="420" y="912" on="1"/>
        <pt x="512" y="912" on="1"/>
        <pt x="512" y="802" on="1"/>
      </contour>
      <contour>
        <pt x="375" y="-5" on="1"/>
        <pt x="299" y="-5" on="0"/>
        <pt x="174" y="56" on="0"/>
        <pt x="84" y="157" on="0"/>
        <pt x="35" y="287" on="0"/>
        <pt x="35" y="355" on="1"/>
        <pt x="35" y="426" on="0"/>
        <pt x="87" y="556" on="0"/>
        <pt x="178" y="656" on="0"/>
        <pt x="303" y="715" on="0"/>
        <pt x="377" y="715" on="1"/>
        <pt x="453" y="715" on="0"/>
        <pt x="578" y="652" on="0"/>
        <pt x="667" y="550" on="0"/>
        <pt x="716" y="421" on="0"/>
        <pt x="716" y="354" on="1"/>
        <pt x="716" y="283" on="0"/>
        <pt x="665" y="153" on="0"/>
        <pt x="573" y="54" on="0"/>
        <pt x="448" y="-5" on="0"/>
      </contour>
      <contour>
        <pt x="149" y="355" on="1"/>
        <pt x="149" y="305" on="0"/>
        <pt x="181" y="211" on="0"/>
        <pt x="240" y="139" on="0"/>
        <pt x="324" y="96" on="0"/>
        <pt x="376" y="96" on="1"/>
        <pt x="430" y="96" on="0"/>
        <pt x="513" y="141" on="0"/>
        <pt x="571" y="215" on="0"/>
        <pt x="601" y="307" on="0"/>
        <pt x="601" y="355" on="1"/>
        <pt x="601" y="406" on="0"/>
        <pt x="569" y="499" on="0"/>
        <pt x="510" y="570" on="0"/>
        <pt x="427" y="613" on="0"/>
        <pt x="376" y="613" on="1"/>
        <pt x="322" y="613" on="0"/>
        <pt x="238" y="568" on="0"/>
        <pt x="180" y="496" on="0"/>
        <pt x="149" y="403" on="0"/>
      </contour>
    </TTGlyph>
    <TTGlyph name="Odotbelow" xMin="35" yMin="-189" xMax="716" yMax="715">
      <contour>
        <pt x="325" y="-189" on="1"/>
        <pt x="325" y="-73" on="1"/>
        <pt x="424" y="-73" on="1"/>
        <pt x="424" y="-189" on="1"/>
      </contour>
      <contour>
        <pt x="375" y="-5" on="1"/>
        <pt x="299" y="-5" on="0"/>
        <pt x="174" y="56" on="0"/>
        <pt x="84" y="157" on="0"/>
        <pt x="35" y="287" on="0"/>
        <pt x="35" y="355" on="1"/>
        <pt x="35" y="426" on="0"/>
        <pt x="87" y="556" on="0"/>
        <pt x="178" y="656" on="0"/>
        <pt x="303" y="715" on="0"/>
        <pt x="377" y="715" on="1"/>
        <pt x="453" y="715" on="0"/>
        <pt x="578" y="652" on="0"/>
        <pt x="667" y="550" on="0"/>
        <pt x="716" y="421" on="0"/>
        <pt x="716" y="354" on="1"/>
        <pt x="716" y="283" on="0"/>
        <pt x="665" y="153" on="0"/>
        <pt x="573" y="54" on="0"/>
        <pt x="448" y="-5" on="0"/>
      </contour>
      <contour>
        <pt x="149" y="355" on="1"/>
        <pt x="149" y="305" on="0"/>
        <pt x="181" y="211" on="0"/>
        <pt x="240" y="139" on="0"/>
        <pt x="324" y="96" on="0"/>
        <pt x="376" y="96" on="1"/>
        <pt x="430" y="96" on="0"/>
        <pt x="513" y="141" on="0"/>
        <pt x="571" y="215" on="0"/>
        <pt x="601" y="307" on="0"/>
        <pt x="601" y="355" on="1"/>
        <pt x="601" y="406" on="0"/>
        <pt x="569" y="499" on="0"/>
        <pt x="510" y="570" on="0"/>
        <pt x="427" y="613" on="0"/>
        <pt x="376" y="613" on="1"/>
        <pt x="322" y="613" on="0"/>
        <pt x="238" y="568" on="0"/>
        <pt x="180" y="496" on="0"/>
        <pt x="149" y="403" on="0"/>
      </contour>
    </TTGlyph>
    <TTGlyph name="Ograve" xMin="35" yMin="-5" xMax="716" yMax="917">
      <contour>
        <pt x="375" y="-5" on="1"/>
        <pt x="299" y="-5" on="0"/>
        <pt x="174" y="56" on="0"/>
        <pt x="84" y="157" on="0"/>
        <pt x="35" y="287" on="0"/>
        <pt x="35" y="355" on="1"/>
        <pt x="35" y="426" on="0"/>
        <pt x="87" y="556" on="0"/>
        <pt x="178" y="656" on="0"/>
        <pt x="303" y="715" on="0"/>
        <pt x="377" y="715" on="1"/>
        <pt x="453" y="715" on="0"/>
        <pt x="578" y="652" on="0"/>
        <pt x="667" y="550" on="0"/>
        <pt x="716" y="421" on="0"/>
        <pt x="716" y="354" on="1"/>
        <pt x="716" y="283" on="0"/>
        <pt x="665" y="153" on="0"/>
        <pt x="573" y="54" on="0"/>
        <pt x="448" y="-5" on="0"/>
      </contour>
      <contour>
        <pt x="149" y="355" on="1"/>
        <pt x="149" y="305" on="0"/>
        <pt x="181" y="211" on="0"/>
        <pt x="240" y="139" on="0"/>
        <pt x="324" y="96" on="0"/>
        <pt x="376" y="96" on="1"/>
        <pt x="430" y="96" on="0"/>
        <pt x="513" y="141" on="0"/>
        <pt x="571" y="215" on="0"/>
        <pt x="601" y="307" on="0"/>
        <pt x="601" y="355" on="1"/>
        <pt x="601" y="406" on="0"/>
        <pt x="569" y="499" on="0"/>
        <pt x="510" y="570" on="0"/>
        <pt x="427" y="613" on="0"/>
        <pt x="376" y="613" on="1"/>
        <pt x="322" y="613" on="0"/>
        <pt x="238" y="568" on="0"/>
        <pt x="180" y="496" on="0"/>
        <pt x="149" y="403" on="0"/>
      </contour>
      <contour>
        <pt x="262" y="917" on="1"/>
        <pt x="367" y="917" on="1"/>
        <pt x="424" y="807" on="1"/>
        <pt x="354" y="785" on="1"/>
      </contour>
    </TTGlyph>
    <TTGlyph name="Ohungarumlaut" xMin="35" yMin="-5" xMax="716" yMax="917">
      <contour>
        <pt x="315" y="785" on="1"/>
        <pt x="260" y="807" on="1"/>
        <pt x="311" y="917" on="1"/>
        <pt x="400" y="917" on="1"/>
      </contour>
      <contour>
        <pt x="463" y="785" on="1"/>
        <pt x="407" y="807" on="1"/>
        <pt x="458" y="917" on="1"/>
        <pt x="548" y="917" on="1"/>
      </contour>
      <contour>
        <pt x="375" y="-5" on="1"/>
        <pt x="299" y="-5" on="0"/>
        <pt x="174" y="56" on="0"/>
        <pt x="84" y="157" on="0"/>
        <pt x="35" y="287" on="0"/>
        <pt x="35" y="355" on="1"/>
        <pt x="35" y="426" on="0"/>
        <pt x="87" y="556" on="0"/>
        <pt x="178" y="656" on="0"/>
        <pt x="303" y="715" on="0"/>
        <pt x="377" y="715" on="1"/>
        <pt x="453" y="715" on="0"/>
        <pt x="578" y="652" on="0"/>
        <pt x="667" y="550" on="0"/>
        <pt x="716" y="421" on="0"/>
        <pt x="716" y="354" on="1"/>
        <pt x="716" y="283" on="0"/>
        <pt x="665" y="153" on="0"/>
        <pt x="573" y="54" on="0"/>
        <pt x="448" y="-5" on="0"/>
      </contour>
      <contour>
        <pt x="149" y="355" on="1"/>
        <pt x="149" y="305" on="0"/>
        <pt x="181" y="211" on="0"/>
        <pt x="240" y="139" on="0"/>
        <pt x="324" y="96" on="0"/>
        <pt x="376" y="96" on="1"/>
        <pt x="430" y="96" on="0"/>
        <pt x="513" y="141" on="0"/>
        <pt x="571" y="215" on="0"/>
        <pt x="601" y="307" on="0"/>
        <pt x="601" y="355" on="1"/>
        <pt x="601" y="406" on="0"/>
        <pt x="569" y="499" on="0"/>
        <pt x="510" y="570" on="0"/>
        <pt x="427" y="613" on="0"/>
        <pt x="376" y="613" on="1"/>
        <pt x="322" y="613" on="0"/>
        <pt x="238" y="568" on="0"/>
        <pt x="180" y="496" on="0"/>
        <pt x="149" y="403" on="0"/>
      </contour>
    </TTGlyph>
    <TTGlyph name="Oinvertedbreve" xMin="35" yMin="-5" xMax="716" yMax="916">
      <contour>
        <pt x="377" y="865" on="1"/>
        <pt x="354" y="865" on="0"/>
        <pt x="319" y="823" on="0"/>
        <pt x="319" y="794" on="1"/>
        <pt x="258" y="794" on="1"/>
        <pt x="258" y="820" on="0"/>
        <pt x="276" y="865" on="0"/>
        <pt x="308" y="898" on="0"/>
        <pt x="351" y="916" on="0"/>
        <pt x="377" y="916" on="1"/>
        <pt x="402" y="916" on="0"/>
        <pt x="446" y="898" on="0"/>
        <pt x="478" y="865" on="0"/>
        <pt x="496" y="820" on="0"/>
        <pt x="496" y="794" on="1"/>
        <pt x="435" y="794" on="1"/>
        <pt x="432" y="825" on="0"/>
        <pt x="399" y="865" on="0"/>
      </contour>
      <contour>
        <pt x="375" y="-5" on="1"/>
        <pt x="299" y="-5" on="0"/>
        <pt x="174" y="56" on="0"/>
        <pt x="84" y="157" on="0"/>
        <pt x="35" y="287" on="0"/>
        <pt x="35" y="355" on="1"/>
        <pt x="35" y="426" on="0"/>
        <pt x="87" y="556" on="0"/>
        <pt x="178" y="656" on="0"/>
        <pt x="303" y="715" on="0"/>
        <pt x="377" y="715" on="1"/>
        <pt x="453" y="715" on="0"/>
        <pt x="578" y="652" on="0"/>
        <pt x="667" y="550" on="0"/>
        <pt x="716" y="421" on="0"/>
        <pt x="716" y="354" on="1"/>
        <pt x="716" y="283" on="0"/>
        <pt x="665" y="153" on="0"/>
        <pt x="573" y="54" on="0"/>
        <pt x="448" y="-5" on="0"/>
      </contour>
      <contour>
        <pt x="149" y="355" on="1"/>
        <pt x="149" y="305" on="0"/>
        <pt x="181" y="211" on="0"/>
        <pt x="240" y="139" on="0"/>
        <pt x="324" y="96" on="0"/>
        <pt x="376" y="96" on="1"/>
        <pt x="430" y="96" on="0"/>
        <pt x="513" y="141" on="0"/>
        <pt x="571" y="215" on="0"/>
        <pt x="601" y="307" on="0"/>
        <pt x="601" y="355" on="1"/>
        <pt x="601" y="406" on="0"/>
        <pt x="569" y="499" on="0"/>
        <pt x="510" y="570" on="0"/>
        <pt x="427" y="613" on="0"/>
        <pt x="376" y="613" on="1"/>
        <pt x="322" y="613" on="0"/>
        <pt x="238" y="568" on="0"/>
        <pt x="180" y="496" on="0"/>
        <pt x="149" y="403" on="0"/>
      </contour>
    </TTGlyph>
    <TTGlyph name="Omacron" xMin="35" yMin="-5" xMax="716" yMax="900">
      <contour>
        <pt x="231" y="830" on="1"/>
        <pt x="231" y="900" on="1"/>
        <pt x="527" y="900" on="1"/>
        <pt x="527" y="830" on="1"/>
      </contour>
      <contour>
        <pt x="375" y="-5" on="1"/>
        <pt x="299" y="-5" on="0"/>
        <pt x="174" y="56" on="0"/>
        <pt x="84" y="157" on="0"/>
        <pt x="35" y="287" on="0"/>
        <pt x="35" y="355" on="1"/>
        <pt x="35" y="426" on="0"/>
        <pt x="87" y="556" on="0"/>
        <pt x="178" y="656" on="0"/>
        <pt x="303" y="715" on="0"/>
        <pt x="377" y="715" on="1"/>
        <pt x="453" y="715" on="0"/>
        <pt x="578" y="652" on="0"/>
        <pt x="667" y="550" on="0"/>
        <pt x="716" y="421" on="0"/>
        <pt x="716" y="354" on="1"/>
        <pt x="716" y="283" on="0"/>
        <pt x="665" y="153" on="0"/>
        <pt x="573" y="54" on="0"/>
        <pt x="448" y="-5" on="0"/>
      </contour>
      <contour>
        <pt x="149" y="355" on="1"/>
        <pt x="149" y="305" on="0"/>
        <pt x="181" y="211" on="0"/>
        <pt x="240" y="139" on="0"/>
        <pt x="324" y="96" on="0"/>
        <pt x="376" y="96" on="1"/>
        <pt x="430" y="96" on="0"/>
        <pt x="513" y="141" on="0"/>
        <pt x="571" y="215" on="0"/>
        <pt x="601" y="307" on="0"/>
        <pt x="601" y="355" on="1"/>
        <pt x="601" y="406" on="0"/>
        <pt x="569" y="499" on="0"/>
        <pt x="510" y="570" on="0"/>
        <pt x="427" y="613" on="0"/>
        <pt x="376" y="613" on="1"/>
        <pt x="322" y="613" on="0"/>
        <pt x="238" y="568" on="0"/>
        <pt x="180" y="496" on="0"/>
        <pt x="149" y="403" on="0"/>
      </contour>
    </TTGlyph>
    <TTGlyph name="Omega" xMin="41" yMin="0" xMax="726" yMax="715">
      <contour>
        <pt x="41" y="90" on="1"/>
        <pt x="214" y="90" on="1"/>
        <pt x="138" y="132" on="0"/>
        <pt x="51" y="277" on="0"/>
        <pt x="51" y="367" on="1"/>
        <pt x="51" y="436" on="0"/>
        <pt x="102" y="562" on="0"/>
        <pt x="191" y="658" on="0"/>
        <pt x="312" y="715" on="0"/>
        <pt x="383" y="715" on="1"/>
        <pt x="454" y="715" on="0"/>
        <pt x="576" y="658" on="0"/>
        <pt x="665" y="562" on="0"/>
        <pt x="716" y="436" on="0"/>
        <pt x="716" y="367" on="1"/>
        <pt x="716" y="277" on="0"/>
        <pt x="629" y="132" on="0"/>
        <pt x="553" y="90" on="1"/>
        <pt x="726" y="90" on="1"/>
        <pt x="726" y="0" on="1"/>
        <pt x="428" y="0" on="1"/>
        <pt x="428" y="90" on="1"/>
        <pt x="468" y="104" on="0"/>
        <pt x="533" y="161" on="0"/>
        <pt x="579" y="236" on="0"/>
        <pt x="603" y="323" on="0"/>
        <pt x="603" y="367" on="1"/>
        <pt x="603" y="413" on="0"/>
        <pt x="572" y="501" on="0"/>
        <pt x="515" y="571" on="0"/>
        <pt x="434" y="614" on="0"/>
        <pt x="383" y="614" on="1"/>
        <pt x="332" y="614" on="0"/>
        <pt x="251" y="571" on="0"/>
        <pt x="194" y="501" on="0"/>
        <pt x="164" y="413" on="0"/>
        <pt x="164" y="367" on="1"/>
        <pt x="164" y="323" on="0"/>
        <pt x="188" y="236" on="0"/>
        <pt x="234" y="161" on="0"/>
        <pt x="298" y="104" on="0"/>
        <pt x="339" y="90" on="1"/>
        <pt x="339" y="0" on="1"/>
        <pt x="41" y="0" on="1"/>
      </contour>
    </TTGlyph>
    <TTGlyph name="Oogonek" xMin="35" yMin="-190" xMax="716" yMax="715">
      <contour>
        <pt x="357" y="-190" on="1"/>
        <pt x="308" y="-182" on="0"/>
        <pt x="258" y="-137" on="0"/>
        <pt x="258" y="-108" on="1"/>
        <pt x="258" y="-54" on="0"/>
        <pt x="336" y="-2" on="1"/>
        <pt x="268" y="5" on="0"/>
        <pt x="157" y="71" on="0"/>
        <pt x="78" y="169" on="0"/>
        <pt x="35" y="291" on="0"/>
        <pt x="35" y="355" on="1"/>
        <pt x="35" y="426" on="0"/>
        <pt x="87" y="556" on="0"/>
        <pt x="178" y="656" on="0"/>
        <pt x="303" y="715" on="0"/>
        <pt x="377" y="715" on="1"/>
        <pt x="453" y="715" on="0"/>
        <pt x="578" y="652" on="0"/>
        <pt x="667" y="550" on="0"/>
        <pt x="716" y="421" on="0"/>
        <pt x="716" y="354" on="1"/>
        <pt x="716" y="286" on="0"/>
        <pt x="669" y="162" on="0"/>
        <pt x="585" y="64" on="0"/>
        <pt x="470" y="2" on="0"/>
        <pt x="401" y="-3" on="1"/>
        <pt x="360" y="-29" on="0"/>
        <pt x="324" y="-70" on="0"/>
        <pt x="324" y="-91" on="1"/>
        <pt x="324" y="-128" on="0"/>
        <pt x="382" y="-132" on="1"/>
      </contour>
      <contour>
        <pt x="149" y="355" on="1"/>
        <pt x="149" y="305" on="0"/>
        <pt x="181" y="211" on="0"/>
        <pt x="240" y="139" on="0"/>
        <pt x="324" y="96" on="0"/>
        <pt x="376" y="96" on="1"/>
        <pt x="430" y="96" on="0"/>
        <pt x="513" y="141" on="0"/>
        <pt x="571" y="215" on="0"/>
        <pt x="601" y="307" on="0"/>
        <pt x="601" y="355" on="1"/>
        <pt x="601" y="406" on="0"/>
        <pt x="569" y="499" on="0"/>
        <pt x="510" y="570" on="0"/>
        <pt x="427" y="613" on="0"/>
        <pt x="376" y="613" on="1"/>
        <pt x="322" y="613" on="0"/>
        <pt x="238" y="568" on="0"/>
        <pt x="180" y="496" on="0"/>
        <pt x="149" y="403" on="0"/>
      </contour>
    </TTGlyph>
    <TTGlyph name="Oslash" xMin="35" yMin="-5" xMax="716" yMax="715">
      <contour>
        <pt x="680" y="710" on="1"/>
        <pt x="613" y="612" on="1"/>
        <pt x="662" y="560" on="0"/>
        <pt x="716" y="424" on="0"/>
        <pt x="716" y="354" on="1"/>
        <pt x="716" y="283" on="0"/>
        <pt x="665" y="153" on="0"/>
        <pt x="573" y="54" on="0"/>
        <pt x="448" y="-5" on="0"/>
        <pt x="375" y="-5" on="1"/>
        <pt x="330" y="-5" on="0"/>
        <pt x="252" y="16" on="0"/>
        <pt x="217" y="35" on="1"/>
        <pt x="193" y="0" on="1"/>
        <pt x="71" y="0" on="1"/>
        <pt x="137" y="97" on="1"/>
        <pt x="88" y="148" on="0"/>
        <pt x="35" y="283" on="0"/>
        <pt x="35" y="355" on="1"/>
        <pt x="35" y="426" on="0"/>
        <pt x="87" y="556" on="0"/>
        <pt x="178" y="656" on="0"/>
        <pt x="303" y="715" on="0"/>
        <pt x="377" y="715" on="1"/>
        <pt x="421" y="715" on="0"/>
        <pt x="499" y="694" on="0"/>
        <pt x="533" y="674" on="1"/>
        <pt x="558" y="710" on="1"/>
      </contour>
      <contour>
        <pt x="149" y="355" on="1"/>
        <pt x="149" y="309" on="0"/>
        <pt x="175" y="223" on="0"/>
        <pt x="200" y="188" on="1"/>
        <pt x="474" y="588" on="1"/>
        <pt x="429" y="613" on="0"/>
        <pt x="376" y="613" on="1"/>
        <pt x="322" y="613" on="0"/>
        <pt x="238" y="568" on="0"/>
        <pt x="180" y="496" on="0"/>
        <pt x="149" y="403" on="0"/>
      </contour>
      <contour>
        <pt x="601" y="355" on="1"/>
        <pt x="601" y="401" on="0"/>
        <pt x="575" y="486" on="0"/>
        <pt x="550" y="521" on="1"/>
        <pt x="276" y="120" on="1"/>
        <pt x="298" y="109" on="0"/>
        <pt x="348" y="96" on="0"/>
        <pt x="376" y="96" on="1"/>
        <pt x="430" y="96" on="0"/>
        <pt x="513" y="141" on="0"/>
        <pt x="571" y="215" on="0"/>
        <pt x="601" y="307" on="0"/>
      </contour>
    </TTGlyph>
    <TTGlyph name="Oslashacute" xMin="35" yMin="-5" xMax="716" yMax="916">
      <contour>
        <pt x="680" y="710" on="1"/>
        <pt x="613" y="612" on="1"/>
        <pt x="662" y="560" on="0"/>
        <pt x="716" y="424" on="0"/>
        <pt x="716" y="354" on="1"/>
        <pt x="716" y="283" on="0"/>
        <pt x="665" y="153" on="0"/>
        <pt x="573" y="54" on="0"/>
        <pt x="448" y="-5" on="0"/>
        <pt x="375" y="-5" on="1"/>
        <pt x="330" y="-5" on="0"/>
        <pt x="252" y="16" on="0"/>
        <pt x="217" y="35" on="1"/>
        <pt x="193" y="0" on="1"/>
        <pt x="71" y="0" on="1"/>
        <pt x="137" y="97" on="1"/>
        <pt x="88" y="148" on="0"/>
        <pt x="35" y="283" on="0"/>
        <pt x="35" y="355" on="1"/>
        <pt x="35" y="426" on="0"/>
        <pt x="87" y="556" on="0"/>
        <pt x="178" y="656" on="0"/>
        <pt x="303" y="715" on="0"/>
        <pt x="377" y="715" on="1"/>
        <pt x="421" y="715" on="0"/>
        <pt x="499" y="694" on="0"/>
        <pt x="533" y="674" on="1"/>
        <pt x="558" y="710" on="1"/>
      </contour>
      <contour>
        <pt x="149" y="355" on="1"/>
        <pt x="149" y="309" on="0"/>
        <pt x="175" y="223" on="0"/>
        <pt x="200" y="188" on="1"/>
        <pt x="474" y="588" on="1"/>
        <pt x="429" y="613" on="0"/>
        <pt x="376" y="613" on="1"/>
        <pt x="322" y="613" on="0"/>
        <pt x="238" y="568" on="0"/>
        <pt x="180" y="496" on="0"/>
        <pt x="149" y="403" on="0"/>
      </contour>
      <contour>
        <pt x="601" y="355" on="1"/>
        <pt x="601" y="401" on="0"/>
        <pt x="575" y="486" on="0"/>
        <pt x="550" y="521" on="1"/>
        <pt x="276" y="120" on="1"/>
        <pt x="298" y="109" on="0"/>
        <pt x="348" y="96" on="0"/>
        <pt x="376" y="96" on="1"/>
        <pt x="430" y="96" on="0"/>
        <pt x="513" y="141" on="0"/>
        <pt x="571" y="215" on="0"/>
        <pt x="601" y="307" on="0"/>
      </contour>
      <contour>
        <pt x="401" y="784" on="1"/>
        <pt x="329" y="806" on="1"/>
        <pt x="386" y="916" on="1"/>
        <pt x="491" y="916" on="1"/>
      </contour>
    </TTGlyph>
    <TTGlyph name="Otilde" xMin="35" yMin="-5" xMax="716" yMax="916">
      <contour>
        <pt x="375" y="-5" on="1"/>
        <pt x="299" y="-5" on="0"/>
        <pt x="174" y="56" on="0"/>
        <pt x="84" y="157" on="0"/>
        <pt x="35" y="287" on="0"/>
        <pt x="35" y="355" on="1"/>
        <pt x="35" y="426" on="0"/>
        <pt x="87" y="556" on="0"/>
        <pt x="178" y="656" on="0"/>
        <pt x="303" y="715" on="0"/>
        <pt x="377" y="715" on="1"/>
        <pt x="453" y="715" on="0"/>
        <pt x="578" y="652" on="0"/>
        <pt x="667" y="550" on="0"/>
        <pt x="716" y="421" on="0"/>
        <pt x="716" y="354" on="1"/>
        <pt x="716" y="283" on="0"/>
        <pt x="665" y="153" on="0"/>
        <pt x="573" y="54" on="0"/>
        <pt x="448" y="-5" on="0"/>
      </contour>
      <contour>
        <pt x="149" y="355" on="1"/>
        <pt x="149" y="305" on="0"/>
        <pt x="181" y="211" on="0"/>
        <pt x="240" y="139" on="0"/>
        <pt x="324" y="96" on="0"/>
        <pt x="376" y="96" on="1"/>
        <pt x="430" y="96" on="0"/>
        <pt x="513" y="141" on="0"/>
        <pt x="571" y="215" on="0"/>
        <pt x="601" y="307" on="0"/>
        <pt x="601" y="355" on="1"/>
        <pt x="601" y="406" on="0"/>
        <pt x="569" y="499" on="0"/>
        <pt x="510" y="570" on="0"/>
        <pt x="427" y="613" on="0"/>
        <pt x="376" y="613" on="1"/>
        <pt x="322" y="613" on="0"/>
        <pt x="238" y="568" on="0"/>
        <pt x="180" y="496" on="0"/>
        <pt x="149" y="403" on="0"/>
      </contour>
      <contour>
        <pt x="441" y="801" on="1"/>
        <pt x="418" y="801" on="0"/>
        <pt x="384" y="814" on="0"/>
        <pt x="355" y="831" on="0"/>
        <pt x="327" y="844" on="0"/>
        <pt x="311" y="844" on="1"/>
        <pt x="294" y="844" on="0"/>
        <pt x="275" y="830" on="0"/>
        <pt x="265" y="813" on="0"/>
        <pt x="262" y="797" on="0"/>
        <pt x="262" y="796" on="1"/>
        <pt x="200" y="796" on="1"/>
        <pt x="200" y="804" on="0"/>
        <pt x="210" y="842" on="0"/>
        <pt x="235" y="881" on="0"/>
        <pt x="276" y="911" on="0"/>
        <pt x="307" y="911" on="1"/>
        <pt x="329" y="911" on="0"/>
        <pt x="362" y="897" on="0"/>
        <pt x="391" y="881" on="0"/>
        <pt x="420" y="867" on="0"/>
        <pt x="438" y="867" on="1"/>
        <pt x="456" y="867" on="0"/>
        <pt x="478" y="881" on="0"/>
        <pt x="489" y="899" on="0"/>
        <pt x="492" y="914" on="0"/>
        <pt x="492" y="916" on="1"/>
        <pt x="555" y="916" on="1"/>
        <pt x="555" y="910" on="0"/>
        <pt x="544" y="872" on="0"/>
        <pt x="518" y="832" on="0"/>
        <pt x="474" y="801" on="0"/>
      </contour>
    </TTGlyph>
    <TTGlyph name="P" xMin="80" yMin="0" xMax="598" yMax="710">
      <contour>
        <pt x="80" y="0" on="1"/>
        <pt x="80" y="710" on="1"/>
        <pt x="378" y="710" on="1"/>
        <pt x="426" y="710" on="0"/>
        <pt x="507" y="670" on="0"/>
        <pt x="565" y="605" on="0"/>
        <pt x="598" y="522" on="0"/>
        <pt x="598" y="479" on="1"/>
        <pt x="598" y="434" on="0"/>
        <pt x="567" y="351" on="0"/>
        <pt x="511" y="286" on="0"/>
        <pt x="432" y="247" on="0"/>
        <pt x="384" y="247" on="1"/>
        <pt x="192" y="247" on="1"/>
        <pt x="192" y="0" on="1"/>
      </contour>
      <contour>
        <pt x="192" y="346" on="1"/>
        <pt x="377" y="346" on="1"/>
        <pt x="401" y="346" on="0"/>
        <pt x="440" y="366" on="0"/>
        <pt x="468" y="402" on="0"/>
        <pt x="484" y="450" on="0"/>
        <pt x="484" y="479" on="1"/>
        <pt x="484" y="509" on="0"/>
        <pt x="466" y="557" on="0"/>
        <pt x="434" y="592" on="0"/>
        <pt x="393" y="611" on="0"/>
        <pt x="371" y="611" on="1"/>
        <pt x="192" y="611" on="1"/>
      </contour>
    </TTGlyph>
    <TTGlyph name="P.sc" xMin="74" yMin="0" xMax="522" yMax="555">
      <contour>
        <pt x="74" y="0" on="1"/>
        <pt x="74" y="555" on="1"/>
        <pt x="331" y="555" on="1"/>
        <pt x="373" y="555" on="0"/>
        <pt x="443" y="523" on="0"/>
        <pt x="494" y="471" on="0"/>
        <pt x="522" y="406" on="0"/>
        <pt x="522" y="372" on="1"/>
        <pt x="522" y="337" on="0"/>
        <pt x="495" y="271" on="0"/>
        <pt x="446" y="220" on="0"/>
        <pt x="378" y="189" on="0"/>
        <pt x="336" y="189" on="1"/>
        <pt x="173" y="189" on="1"/>
        <pt x="173" y="0" on="1"/>
      </contour>
      <contour>
        <pt x="173" y="276" on="1"/>
        <pt x="330" y="276" on="1"/>
        <pt x="371" y="276" on="0"/>
        <pt x="421" y="329" on="0"/>
        <pt x="421" y="372" on="1"/>
        <pt x="421" y="394" on="0"/>
        <pt x="405" y="429" on="0"/>
        <pt x="379" y="454" on="0"/>
        <pt x="344" y="467" on="0"/>
        <pt x="325" y="467" on="1"/>
        <pt x="173" y="467" on="1"/>
      </contour>
    </TTGlyph>
    <TTGlyph name="Q" xMin="35" yMin="-5" xMax="716" yMax="715">
      <contour>
        <pt x="560" y="52" on="1"/>
        <pt x="520" y="25" on="0"/>
        <pt x="427" y="-5" on="0"/>
        <pt x="375" y="-5" on="1"/>
        <pt x="299" y="-5" on="0"/>
        <pt x="174" y="57" on="0"/>
        <pt x="84" y="157" on="0"/>
        <pt x="35" y="287" on="0"/>
        <pt x="35" y="355" on="1"/>
        <pt x="35" y="426" on="0"/>
        <pt x="87" y="556" on="0"/>
        <pt x="178" y="656" on="0"/>
        <pt x="303" y="715" on="0"/>
        <pt x="377" y="715" on="1"/>
        <pt x="453" y="715" on="0"/>
        <pt x="578" y="652" on="0"/>
        <pt x="667" y="550" on="0"/>
        <pt x="716" y="421" on="0"/>
        <pt x="716" y="354" on="1"/>
        <pt x="716" y="283" on="0"/>
        <pt x="666" y="156" on="0"/>
        <pt x="621" y="106" on="1"/>
        <pt x="714" y="0" on="1"/>
        <pt x="606" y="0" on="1"/>
      </contour>
      <contour>
        <pt x="376" y="96" on="1"/>
        <pt x="409" y="96" on="0"/>
        <pt x="467" y="114" on="0"/>
        <pt x="491" y="130" on="1"/>
        <pt x="390" y="247" on="1"/>
        <pt x="498" y="247" on="1"/>
        <pt x="549" y="188" on="1"/>
        <pt x="575" y="223" on="0"/>
        <pt x="601" y="310" on="0"/>
        <pt x="601" y="355" on="1"/>
        <pt x="601" y="406" on="0"/>
        <pt x="569" y="499" on="0"/>
        <pt x="510" y="571" on="0"/>
        <pt x="427" y="614" on="0"/>
        <pt x="376" y="614" on="1"/>
        <pt x="322" y="614" on="0"/>
        <pt x="238" y="569" on="0"/>
        <pt x="180" y="496" on="0"/>
        <pt x="149" y="403" on="0"/>
        <pt x="149" y="355" on="1"/>
        <pt x="149" y="305" on="0"/>
        <pt x="181" y="211" on="0"/>
        <pt x="240" y="139" on="0"/>
        <pt x="324" y="96" on="0"/>
      </contour>
    </TTGlyph>
    <TTGlyph name="Q.sc" xMin="36" yMin="-4" xMax="619" yMax="559">
      <contour>
        <pt x="484" y="41" on="1"/>
        <pt x="450" y="20" on="0"/>
        <pt x="370" y="-4" on="0"/>
        <pt x="325" y="-4" on="1"/>
        <pt x="260" y="-4" on="0"/>
        <pt x="154" y="44" on="0"/>
        <pt x="78" y="123" on="0"/>
        <pt x="36" y="224" on="0"/>
        <pt x="36" y="278" on="1"/>
        <pt x="36" y="333" on="0"/>
        <pt x="80" y="435" on="0"/>
        <pt x="158" y="513" on="0"/>
        <pt x="264" y="559" on="0"/>
        <pt x="327" y="559" on="1"/>
        <pt x="392" y="559" on="0"/>
        <pt x="498" y="510" on="0"/>
        <pt x="574" y="430" on="0"/>
        <pt x="615" y="328" on="0"/>
        <pt x="615" y="276" on="1"/>
        <pt x="615" y="222" on="0"/>
        <pt x="574" y="124" on="0"/>
        <pt x="538" y="86" on="1"/>
        <pt x="619" y="0" on="1"/>
        <pt x="523" y="0" on="1"/>
      </contour>
      <contour>
        <pt x="327" y="85" on="1"/>
        <pt x="354" y="85" on="0"/>
        <pt x="400" y="98" on="0"/>
        <pt x="420" y="109" on="1"/>
        <pt x="335" y="200" on="1"/>
        <pt x="431" y="200" on="1"/>
        <pt x="473" y="155" on="1"/>
        <pt x="493" y="181" on="0"/>
        <pt x="514" y="245" on="0"/>
        <pt x="514" y="278" on="1"/>
        <pt x="514" y="315" on="0"/>
        <pt x="487" y="384" on="0"/>
        <pt x="438" y="438" on="0"/>
        <pt x="369" y="470" on="0"/>
        <pt x="326" y="470" on="1"/>
        <pt x="281" y="470" on="0"/>
        <pt x="211" y="436" on="0"/>
        <pt x="163" y="381" on="0"/>
        <pt x="137" y="312" on="0"/>
        <pt x="137" y="277" on="1"/>
        <pt x="137" y="240" on="0"/>
        <pt x="163" y="171" on="0"/>
        <pt x="213" y="117" on="0"/>
        <pt x="283" y="85" on="0"/>
      </contour>
    </TTGlyph>
    <TTGlyph name="R" xMin="80" yMin="0" xMax="637" yMax="710">
      <contour>
        <pt x="80" y="0" on="1"/>
        <pt x="80" y="710" on="1"/>
        <pt x="389" y="710" on="1"/>
        <pt x="437" y="710" on="0"/>
        <pt x="518" y="670" on="0"/>
        <pt x="576" y="605" on="0"/>
        <pt x="609" y="522" on="0"/>
        <pt x="609" y="479" on="1"/>
        <pt x="609" y="443" on="0"/>
        <pt x="589" y="377" on="0"/>
        <pt x="553" y="321" on="0"/>
        <pt x="501" y="280" on="0"/>
        <pt x="470" y="270" on="1"/>
        <pt x="637" y="0" on="1"/>
        <pt x="510" y="0" on="1"/>
        <pt x="356" y="247" on="1"/>
        <pt x="192" y="247" on="1"/>
        <pt x="192" y="0" on="1"/>
      </contour>
      <contour>
        <pt x="192" y="346" on="1"/>
        <pt x="388" y="346" on="1"/>
        <pt x="412" y="346" on="0"/>
        <pt x="451" y="367" on="0"/>
        <pt x="479" y="404" on="0"/>
        <pt x="495" y="452" on="0"/>
        <pt x="495" y="479" on="1"/>
        <pt x="495" y="506" on="0"/>
        <pt x="476" y="554" on="0"/>
        <pt x="445" y="590" on="0"/>
        <pt x="404" y="611" on="0"/>
        <pt x="382" y="611" on="1"/>
        <pt x="192" y="611" on="1"/>
      </contour>
    </TTGlyph>
    <TTGlyph name="R.sc" xMin="74" yMin="0" xMax="559" yMax="555">
      <contour>
        <pt x="74" y="0" on="1"/>
        <pt x="74" y="555" on="1"/>
        <pt x="341" y="555" on="1"/>
        <pt x="383" y="555" on="0"/>
        <pt x="452" y="523" on="0"/>
        <pt x="503" y="471" on="0"/>
        <pt x="531" y="406" on="0"/>
        <pt x="531" y="372" on="1"/>
        <pt x="531" y="345" on="0"/>
        <pt x="514" y="294" on="0"/>
        <pt x="483" y="251" on="0"/>
        <pt x="440" y="218" on="0"/>
        <pt x="413" y="209" on="1"/>
        <pt x="559" y="0" on="1"/>
        <pt x="445" y="0" on="1"/>
        <pt x="312" y="189" on="1"/>
        <pt x="173" y="189" on="1"/>
        <pt x="173" y="0" on="1"/>
      </contour>
      <contour>
        <pt x="173" y="276" on="1"/>
        <pt x="339" y="276" on="1"/>
        <pt x="379" y="276" on="0"/>
        <pt x="430" y="332" on="0"/>
        <pt x="430" y="372" on="1"/>
        <pt x="430" y="392" on="0"/>
        <pt x="415" y="427" on="0"/>
        <pt x="388" y="452" on="0"/>
        <pt x="353" y="467" on="0"/>
        <pt x="334" y="467" on="1"/>
        <pt x="173" y="467" on="1"/>
      </contour>
    </TTGlyph>
    <TTGlyph name="Racute" xMin="80" yMin="0" xMax="637" yMax="917">
      <contour>
        <pt x="344" y="785" on="1"/>
        <pt x="272" y="807" on="1"/>
        <pt x="329" y="917" on="1"/>
        <pt x="434" y="917" on="1"/>
      </contour>
      <contour>
        <pt x="80" y="0" on="1"/>
        <pt x="80" y="710" on="1"/>
        <pt x="389" y="710" on="1"/>
        <pt x="437" y="710" on="0"/>
        <pt x="518" y="670" on="0"/>
        <pt x="576" y="605" on="0"/>
        <pt x="609" y="522" on="0"/>
        <pt x="609" y="479" on="1"/>
        <pt x="609" y="443" on="0"/>
        <pt x="589" y="377" on="0"/>
        <pt x="553" y="321" on="0"/>
        <pt x="501" y="280" on="0"/>
        <pt x="470" y="270" on="1"/>
        <pt x="637" y="0" on="1"/>
        <pt x="510" y="0" on="1"/>
        <pt x="356" y="247" on="1"/>
        <pt x="192" y="247" on="1"/>
        <pt x="192" y="0" on="1"/>
      </contour>
      <contour>
        <pt x="192" y="346" on="1"/>
        <pt x="388" y="346" on="1"/>
        <pt x="412" y="346" on="0"/>
        <pt x="451" y="367" on="0"/>
        <pt x="479" y="404" on="0"/>
        <pt x="495" y="452" on="0"/>
        <pt x="495" y="479" on="1"/>
        <pt x="495" y="506" on="0"/>
        <pt x="476" y="554" on="0"/>
        <pt x="445" y="590" on="0"/>
        <pt x="404" y="611" on="0"/>
        <pt x="382" y="611" on="1"/>
        <pt x="192" y="611" on="1"/>
      </contour>
    </TTGlyph>
    <TTGlyph name="Rcaron" xMin="80" yMin="0" xMax="637" yMax="917">
      <contour>
        <pt x="233" y="917" on="1"/>
        <pt x="318" y="854" on="1"/>
        <pt x="403" y="917" on="1"/>
        <pt x="462" y="889" on="1"/>
        <pt x="358" y="794" on="1"/>
        <pt x="279" y="794" on="1"/>
        <pt x="175" y="889" on="1"/>
      </contour>
      <contour>
        <pt x="80" y="0" on="1"/>
        <pt x="80" y="710" on="1"/>
        <pt x="389" y="710" on="1"/>
        <pt x="437" y="710" on="0"/>
        <pt x="518" y="670" on="0"/>
        <pt x="576" y="605" on="0"/>
        <pt x="609" y="522" on="0"/>
        <pt x="609" y="479" on="1"/>
        <pt x="609" y="443" on="0"/>
        <pt x="589" y="377" on="0"/>
        <pt x="553" y="321" on="0"/>
        <pt x="501" y="280" on="0"/>
        <pt x="470" y="270" on="1"/>
        <pt x="637" y="0" on="1"/>
        <pt x="510" y="0" on="1"/>
        <pt x="356" y="247" on="1"/>
        <pt x="192" y="247" on="1"/>
        <pt x="192" y="0" on="1"/>
      </contour>
      <contour>
        <pt x="192" y="346" on="1"/>
        <pt x="388" y="346" on="1"/>
        <pt x="412" y="346" on="0"/>
        <pt x="451" y="367" on="0"/>
        <pt x="479" y="404" on="0"/>
        <pt x="495" y="452" on="0"/>
        <pt x="495" y="479" on="1"/>
        <pt x="495" y="506" on="0"/>
        <pt x="476" y="554" on="0"/>
        <pt x="445" y="590" on="0"/>
        <pt x="404" y="611" on="0"/>
        <pt x="382" y="611" on="1"/>
        <pt x="192" y="611" on="1"/>
      </contour>
    </TTGlyph>
    <TTGlyph name="Rcommaaccent" xMin="80" yMin="-213" xMax="637" yMax="710">
      <contour>
        <pt x="295" y="-213" on="1"/>
        <pt x="318" y="-136" on="1"/>
        <pt x="286" y="-136" on="1"/>
        <pt x="286" y="-48" on="1"/>
        <pt x="381" y="-48" on="1"/>
        <pt x="381" y="-136" on="1"/>
        <pt x="346" y="-213" on="1"/>
      </contour>
      <contour>
        <pt x="80" y="0" on="1"/>
        <pt x="80" y="710" on="1"/>
        <pt x="389" y="710" on="1"/>
        <pt x="437" y="710" on="0"/>
        <pt x="518" y="670" on="0"/>
        <pt x="576" y="605" on="0"/>
        <pt x="609" y="522" on="0"/>
        <pt x="609" y="479" on="1"/>
        <pt x="609" y="443" on="0"/>
        <pt x="589" y="377" on="0"/>
        <pt x="553" y="321" on="0"/>
        <pt x="501" y="280" on="0"/>
        <pt x="470" y="270" on="1"/>
        <pt x="637" y="0" on="1"/>
        <pt x="510" y="0" on="1"/>
        <pt x="356" y="247" on="1"/>
        <pt x="192" y="247" on="1"/>
        <pt x="192" y="0" on="1"/>
      </contour>
      <contour>
        <pt x="192" y="346" on="1"/>
        <pt x="388" y="346" on="1"/>
        <pt x="412" y="346" on="0"/>
        <pt x="451" y="367" on="0"/>
        <pt x="479" y="404" on="0"/>
        <pt x="495" y="452" on="0"/>
        <pt x="495" y="479" on="1"/>
        <pt x="495" y="506" on="0"/>
        <pt x="476" y="554" on="0"/>
        <pt x="445" y="590" on="0"/>
        <pt x="404" y="611" on="0"/>
        <pt x="382" y="611" on="1"/>
        <pt x="192" y="611" on="1"/>
      </contour>
    </TTGlyph>
    <TTGlyph name="Rdblgrave" xMin="80" yMin="0" xMax="637" yMax="917">
      <contour>
        <pt x="294" y="917" on="1"/>
        <pt x="383" y="917" on="1"/>
        <pt x="434" y="807" on="1"/>
        <pt x="379" y="785" on="1"/>
      </contour>
      <contour>
        <pt x="146" y="917" on="1"/>
        <pt x="236" y="917" on="1"/>
        <pt x="287" y="807" on="1"/>
        <pt x="231" y="785" on="1"/>
      </contour>
      <contour>
        <pt x="80" y="0" on="1"/>
        <pt x="80" y="710" on="1"/>
        <pt x="389" y="710" on="1"/>
        <pt x="437" y="710" on="0"/>
        <pt x="518" y="670" on="0"/>
        <pt x="576" y="605" on="0"/>
        <pt x="609" y="522" on="0"/>
        <pt x="609" y="479" on="1"/>
        <pt x="609" y="443" on="0"/>
        <pt x="589" y="377" on="0"/>
        <pt x="553" y="321" on="0"/>
        <pt x="501" y="280" on="0"/>
        <pt x="470" y="270" on="1"/>
        <pt x="637" y="0" on="1"/>
        <pt x="510" y="0" on="1"/>
        <pt x="356" y="247" on="1"/>
        <pt x="192" y="247" on="1"/>
        <pt x="192" y="0" on="1"/>
      </contour>
      <contour>
        <pt x="192" y="346" on="1"/>
        <pt x="388" y="346" on="1"/>
        <pt x="412" y="346" on="0"/>
        <pt x="451" y="367" on="0"/>
        <pt x="479" y="404" on="0"/>
        <pt x="495" y="452" on="0"/>
        <pt x="495" y="479" on="1"/>
        <pt x="495" y="506" on="0"/>
        <pt x="476" y="554" on="0"/>
        <pt x="445" y="590" on="0"/>
        <pt x="404" y="611" on="0"/>
        <pt x="382" y="611" on="1"/>
        <pt x="192" y="611" on="1"/>
      </contour>
    </TTGlyph>
    <TTGlyph name="Rdotbelow" xMin="80" yMin="-189" xMax="637" yMax="710">
      <contour>
        <pt x="80" y="0" on="1"/>
        <pt x="80" y="710" on="1"/>
        <pt x="389" y="710" on="1"/>
        <pt x="437" y="710" on="0"/>
        <pt x="518" y="670" on="0"/>
        <pt x="576" y="605" on="0"/>
        <pt x="609" y="522" on="0"/>
        <pt x="609" y="479" on="1"/>
        <pt x="609" y="443" on="0"/>
        <pt x="589" y="377" on="0"/>
        <pt x="553" y="321" on="0"/>
        <pt x="501" y="280" on="0"/>
        <pt x="470" y="270" on="1"/>
        <pt x="637" y="0" on="1"/>
        <pt x="510" y="0" on="1"/>
        <pt x="356" y="247" on="1"/>
        <pt x="192" y="247" on="1"/>
        <pt x="192" y="0" on="1"/>
      </contour>
      <contour>
        <pt x="192" y="346" on="1"/>
        <pt x="388" y="346" on="1"/>
        <pt x="412" y="346" on="0"/>
        <pt x="451" y="367" on="0"/>
        <pt x="479" y="404" on="0"/>
        <pt x="495" y="452" on="0"/>
        <pt x="495" y="479" on="1"/>
        <pt x="495" y="506" on="0"/>
        <pt x="476" y="554" on="0"/>
        <pt x="445" y="590" on="0"/>
        <pt x="404" y="611" on="0"/>
        <pt x="382" y="611" on="1"/>
        <pt x="192" y="611" on="1"/>
      </contour>
      <contour>
        <pt x="282" y="-189" on="1"/>
        <pt x="282" y="-73" on="1"/>
        <pt x="381" y="-73" on="1"/>
        <pt x="381" y="-189" on="1"/>
      </contour>
    </TTGlyph>
    <TTGlyph name="Rinvertedbreve" xMin="80" yMin="0" xMax="637" yMax="916">
      <contour>
        <pt x="323" y="865" on="1"/>
        <pt x="300" y="865" on="0"/>
        <pt x="265" y="823" on="0"/>
        <pt x="265" y="794" on="1"/>
        <pt x="204" y="794" on="1"/>
        <pt x="204" y="820" on="0"/>
        <pt x="222" y="865" on="0"/>
        <pt x="254" y="898" on="0"/>
        <pt x="297" y="916" on="0"/>
        <pt x="323" y="916" on="1"/>
        <pt x="348" y="916" on="0"/>
        <pt x="392" y="898" on="0"/>
        <pt x="424" y="865" on="0"/>
        <pt x="442" y="820" on="0"/>
        <pt x="442" y="794" on="1"/>
        <pt x="381" y="794" on="1"/>
        <pt x="378" y="825" on="0"/>
        <pt x="345" y="865" on="0"/>
      </contour>
      <contour>
        <pt x="80" y="0" on="1"/>
        <pt x="80" y="710" on="1"/>
        <pt x="389" y="710" on="1"/>
        <pt x="437" y="710" on="0"/>
        <pt x="518" y="670" on="0"/>
        <pt x="576" y="605" on="0"/>
        <pt x="609" y="522" on="0"/>
        <pt x="609" y="479" on="1"/>
        <pt x="609" y="443" on="0"/>
        <pt x="589" y="377" on="0"/>
        <pt x="553" y="321" on="0"/>
        <pt x="501" y="280" on="0"/>
        <pt x="470" y="270" on="1"/>
        <pt x="637" y="0" on="1"/>
        <pt x="510" y="0" on="1"/>
        <pt x="356" y="247" on="1"/>
        <pt x="192" y="247" on="1"/>
        <pt x="192" y="0" on="1"/>
      </contour>
      <contour>
        <pt x="192" y="346" on="1"/>
        <pt x="388" y="346" on="1"/>
        <pt x="412" y="346" on="0"/>
        <pt x="451" y="367" on="0"/>
        <pt x="479" y="404" on="0"/>
        <pt x="495" y="452" on="0"/>
        <pt x="495" y="479" on="1"/>
        <pt x="495" y="506" on="0"/>
        <pt x="476" y="554" on="0"/>
        <pt x="445" y="590" on="0"/>
        <pt x="404" y="611" on="0"/>
        <pt x="382" y="611" on="1"/>
        <pt x="192" y="611" on="1"/>
      </contour>
    </TTGlyph>
    <TTGlyph name="S" xMin="26" yMin="-7" xMax="579" yMax="715">
      <contour>
        <pt x="500" y="543" on="1"/>
        <pt x="490" y="554" on="0"/>
        <pt x="452" y="579" on="0"/>
        <pt x="401" y="601" on="0"/>
        <pt x="340" y="615" on="0"/>
        <pt x="308" y="615" on="1"/>
        <pt x="237" y="615" on="0"/>
        <pt x="170" y="563" on="0"/>
        <pt x="170" y="517" on="1"/>
        <pt x="170" y="491" on="0"/>
        <pt x="191" y="458" on="0"/>
        <pt x="235" y="433" on="0"/>
        <pt x="301" y="414" on="0"/>
        <pt x="345" y="403" on="1"/>
        <pt x="399" y="390" on="0"/>
        <pt x="486" y="358" on="0"/>
        <pt x="546" y="312" on="0"/>
        <pt x="579" y="245" on="0"/>
        <pt x="579" y="197" on="1"/>
        <pt x="579" y="143" on="0"/>
        <pt x="538" y="65" on="0"/>
        <pt x="467" y="16" on="0"/>
        <pt x="373" y="-7" on="0"/>
        <pt x="319" y="-7" on="1"/>
        <pt x="238" y="-7" on="0"/>
        <pt x="87" y="42" on="0"/>
        <pt x="26" y="89" on="1"/>
        <pt x="77" y="185" on="1"/>
        <pt x="90" y="172" on="0"/>
        <pt x="139" y="140" on="0"/>
        <pt x="204" y="113" on="0"/>
        <pt x="280" y="94" on="0"/>
        <pt x="321" y="94" on="1"/>
        <pt x="387" y="94" on="0"/>
        <pt x="459" y="140" on="0"/>
        <pt x="459" y="185" on="1"/>
        <pt x="459" y="212" on="0"/>
        <pt x="432" y="248" on="0"/>
        <pt x="382" y="275" on="0"/>
        <pt x="310" y="297" on="0"/>
        <pt x="264" y="309" on="1"/>
        <pt x="211" y="323" on="0"/>
        <pt x="132" y="354" on="0"/>
        <pt x="80" y="398" on="0"/>
        <pt x="53" y="457" on="0"/>
        <pt x="53" y="499" on="1"/>
        <pt x="53" y="551" on="0"/>
        <pt x="93" y="632" on="0"/>
        <pt x="162" y="687" on="0"/>
        <pt x="256" y="715" on="0"/>
        <pt x="311" y="715" on="1"/>
        <pt x="383" y="715" on="0"/>
        <pt x="505" y="669" on="0"/>
        <pt x="551" y="635" on="1"/>
      </contour>
    </TTGlyph>
    <TTGlyph name="S.sc" xMin="28" yMin="-6" xMax="496" yMax="559">
      <contour>
        <pt x="428" y="415" on="1"/>
        <pt x="418" y="424" on="0"/>
        <pt x="385" y="444" on="0"/>
        <pt x="343" y="461" on="0"/>
        <pt x="293" y="471" on="0"/>
        <pt x="267" y="471" on="1"/>
        <pt x="209" y="471" on="0"/>
        <pt x="154" y="434" on="0"/>
        <pt x="154" y="402" on="1"/>
        <pt x="154" y="384" on="0"/>
        <pt x="172" y="360" on="0"/>
        <pt x="208" y="342" on="0"/>
        <pt x="263" y="327" on="0"/>
        <pt x="300" y="319" on="1"/>
        <pt x="345" y="308" on="0"/>
        <pt x="417" y="284" on="0"/>
        <pt x="468" y="247" on="0"/>
        <pt x="496" y="195" on="0"/>
        <pt x="496" y="157" on="1"/>
        <pt x="496" y="113" on="0"/>
        <pt x="461" y="51" on="0"/>
        <pt x="401" y="12" on="0"/>
        <pt x="321" y="-6" on="0"/>
        <pt x="276" y="-6" on="1"/>
        <pt x="207" y="-6" on="0"/>
        <pt x="79" y="32" on="0"/>
        <pt x="28" y="67" on="1"/>
        <pt x="73" y="153" on="1"/>
        <pt x="85" y="141" on="0"/>
        <pt x="127" y="116" on="0"/>
        <pt x="180" y="96" on="0"/>
        <pt x="243" y="83" on="0"/>
        <pt x="278" y="83" on="1"/>
        <pt x="331" y="83" on="0"/>
        <pt x="389" y="115" on="0"/>
        <pt x="389" y="147" on="1"/>
        <pt x="389" y="166" on="0"/>
        <pt x="367" y="192" on="0"/>
        <pt x="325" y="212" on="0"/>
        <pt x="265" y="228" on="0"/>
        <pt x="227" y="237" on="1"/>
        <pt x="183" y="248" on="0"/>
        <pt x="117" y="273" on="0"/>
        <pt x="73" y="309" on="0"/>
        <pt x="51" y="357" on="0"/>
        <pt x="51" y="390" on="1"/>
        <pt x="51" y="431" on="0"/>
        <pt x="85" y="494" on="0"/>
        <pt x="144" y="537" on="0"/>
        <pt x="223" y="559" on="0"/>
        <pt x="269" y="559" on="1"/>
        <pt x="331" y="559" on="0"/>
        <pt x="434" y="523" on="0"/>
        <pt x="472" y="496" on="1"/>
      </contour>
    </TTGlyph>
    <TTGlyph name="Sacute" xMin="26" yMin="-7" xMax="579" yMax="927">
      <contour>
        <pt x="343" y="795" on="1"/>
        <pt x="271" y="817" on="1"/>
        <pt x="328" y="927" on="1"/>
        <pt x="433" y="927" on="1"/>
      </contour>
      <contour>
        <pt x="500" y="543" on="1"/>
        <pt x="490" y="554" on="0"/>
        <pt x="452" y="579" on="0"/>
        <pt x="401" y="601" on="0"/>
        <pt x="340" y="615" on="0"/>
        <pt x="308" y="615" on="1"/>
        <pt x="237" y="615" on="0"/>
        <pt x="170" y="563" on="0"/>
        <pt x="170" y="517" on="1"/>
        <pt x="170" y="491" on="0"/>
        <pt x="191" y="458" on="0"/>
        <pt x="235" y="433" on="0"/>
        <pt x="301" y="414" on="0"/>
        <pt x="345" y="403" on="1"/>
        <pt x="399" y="390" on="0"/>
        <pt x="486" y="358" on="0"/>
        <pt x="546" y="312" on="0"/>
        <pt x="579" y="245" on="0"/>
        <pt x="579" y="197" on="1"/>
        <pt x="579" y="143" on="0"/>
        <pt x="538" y="65" on="0"/>
        <pt x="467" y="16" on="0"/>
        <pt x="373" y="-7" on="0"/>
        <pt x="319" y="-7" on="1"/>
        <pt x="238" y="-7" on="0"/>
        <pt x="87" y="42" on="0"/>
        <pt x="26" y="89" on="1"/>
        <pt x="77" y="185" on="1"/>
        <pt x="90" y="172" on="0"/>
        <pt x="139" y="140" on="0"/>
        <pt x="204" y="113" on="0"/>
        <pt x="280" y="94" on="0"/>
        <pt x="321" y="94" on="1"/>
        <pt x="387" y="94" on="0"/>
        <pt x="459" y="140" on="0"/>
        <pt x="459" y="185" on="1"/>
        <pt x="459" y="212" on="0"/>
        <pt x="432" y="248" on="0"/>
        <pt x="382" y="275" on="0"/>
        <pt x="310" y="297" on="0"/>
        <pt x="264" y="309" on="1"/>
        <pt x="211" y="323" on="0"/>
        <pt x="132" y="354" on="0"/>
        <pt x="80" y="398" on="0"/>
        <pt x="53" y="457" on="0"/>
        <pt x="53" y="499" on="1"/>
        <pt x="53" y="551" on="0"/>
        <pt x="93" y="632" on="0"/>
        <pt x="162" y="687" on="0"/>
        <pt x="256" y="715" on="0"/>
        <pt x="311" y="715" on="1"/>
        <pt x="383" y="715" on="0"/>
        <pt x="505" y="669" on="0"/>
        <pt x="551" y="635" on="1"/>
      </contour>
    </TTGlyph>
    <TTGlyph name="Scaron" xMin="26" yMin="-7" xMax="579" yMax="927">
      <contour>
        <pt x="233" y="927" on="1"/>
        <pt x="318" y="864" on="1"/>
        <pt x="403" y="927" on="1"/>
        <pt x="462" y="899" on="1"/>
        <pt x="358" y="804" on="1"/>
        <pt x="279" y="804" on="1"/>
        <pt x="175" y="899" on="1"/>
      </contour>
      <contour>
        <pt x="500" y="543" on="1"/>
        <pt x="490" y="554" on="0"/>
        <pt x="452" y="579" on="0"/>
        <pt x="401" y="601" on="0"/>
        <pt x="340" y="615" on="0"/>
        <pt x="308" y="615" on="1"/>
        <pt x="237" y="615" on="0"/>
        <pt x="170" y="563" on="0"/>
        <pt x="170" y="517" on="1"/>
        <pt x="170" y="491" on="0"/>
        <pt x="191" y="458" on="0"/>
        <pt x="235" y="433" on="0"/>
        <pt x="301" y="414" on="0"/>
        <pt x="345" y="403" on="1"/>
        <pt x="399" y="390" on="0"/>
        <pt x="486" y="358" on="0"/>
        <pt x="546" y="312" on="0"/>
        <pt x="579" y="245" on="0"/>
        <pt x="579" y="197" on="1"/>
        <pt x="579" y="143" on="0"/>
        <pt x="538" y="65" on="0"/>
        <pt x="467" y="16" on="0"/>
        <pt x="373" y="-7" on="0"/>
        <pt x="319" y="-7" on="1"/>
        <pt x="238" y="-7" on="0"/>
        <pt x="87" y="42" on="0"/>
        <pt x="26" y="89" on="1"/>
        <pt x="77" y="185" on="1"/>
        <pt x="90" y="172" on="0"/>
        <pt x="139" y="140" on="0"/>
        <pt x="204" y="113" on="0"/>
        <pt x="280" y="94" on="0"/>
        <pt x="321" y="94" on="1"/>
        <pt x="387" y="94" on="0"/>
        <pt x="459" y="140" on="0"/>
        <pt x="459" y="185" on="1"/>
        <pt x="459" y="212" on="0"/>
        <pt x="432" y="248" on="0"/>
        <pt x="382" y="275" on="0"/>
        <pt x="310" y="297" on="0"/>
        <pt x="264" y="309" on="1"/>
        <pt x="211" y="323" on="0"/>
        <pt x="132" y="354" on="0"/>
        <pt x="80" y="398" on="0"/>
        <pt x="53" y="457" on="0"/>
        <pt x="53" y="499" on="1"/>
        <pt x="53" y="551" on="0"/>
        <pt x="93" y="632" on="0"/>
        <pt x="162" y="687" on="0"/>
        <pt x="256" y="715" on="0"/>
        <pt x="311" y="715" on="1"/>
        <pt x="383" y="715" on="0"/>
        <pt x="505" y="669" on="0"/>
        <pt x="551" y="635" on="1"/>
      </contour>
    </TTGlyph>
    <TTGlyph name="Schwa" xMin="24" yMin="-5" xMax="705" yMax="715">
      <contour>
        <pt x="366" y="-5" on="1"/>
        <pt x="292" y="-5" on="0"/>
        <pt x="167" y="53" on="0"/>
        <pt x="75" y="150" on="0"/>
        <pt x="24" y="278" on="0"/>
        <pt x="24" y="347" on="1"/>
        <pt x="24" y="361" on="0"/>
        <pt x="25" y="388" on="0"/>
        <pt x="27" y="396" on="1"/>
        <pt x="581" y="396" on="1"/>
        <pt x="576" y="444" on="0"/>
        <pt x="538" y="524" on="0"/>
        <pt x="479" y="581" on="0"/>
        <pt x="405" y="613" on="0"/>
        <pt x="363" y="613" on="1"/>
        <pt x="331" y="613" on="0"/>
        <pt x="272" y="595" on="0"/>
        <pt x="222" y="563" on="0"/>
        <pt x="186" y="518" on="0"/>
        <pt x="177" y="491" on="1"/>
        <pt x="67" y="534" on="1"/>
        <pt x="86" y="574" on="0"/>
        <pt x="149" y="641" on="0"/>
        <pt x="228" y="689" on="0"/>
        <pt x="320" y="715" on="0"/>
        <pt x="369" y="715" on="1"/>
        <pt x="441" y="715" on="0"/>
        <pt x="564" y="657" on="0"/>
        <pt x="654" y="558" on="0"/>
        <pt x="705" y="428" on="0"/>
        <pt x="705" y="356" on="1"/>
        <pt x="705" y="282" on="0"/>
        <pt x="654" y="151" on="0"/>
        <pt x="564" y="53" on="0"/>
        <pt x="440" y="-5" on="0"/>
      </contour>
      <contour>
        <pt x="369" y="95" on="1"/>
        <pt x="412" y="95" on="0"/>
        <pt x="486" y="126" on="0"/>
        <pt x="543" y="182" on="0"/>
        <pt x="578" y="259" on="0"/>
        <pt x="582" y="304" on="1"/>
        <pt x="146" y="304" on="1"/>
        <pt x="149" y="259" on="0"/>
        <pt x="187" y="183" on="0"/>
        <pt x="247" y="127" on="0"/>
        <pt x="325" y="95" on="0"/>
      </contour>
    </TTGlyph>
    <TTGlyph name="Scircumflex" xMin="26" yMin="-7" xMax="579" yMax="927">
      <contour>
        <pt x="175" y="832" on="1"/>
        <pt x="279" y="927" on="1"/>
        <pt x="358" y="927" on="1"/>
        <pt x="462" y="832" on="1"/>
        <pt x="403" y="804" on="1"/>
        <pt x="318" y="867" on="1"/>
        <pt x="233" y="804" on="1"/>
      </contour>
      <contour>
        <pt x="500" y="543" on="1"/>
        <pt x="490" y="554" on="0"/>
        <pt x="452" y="579" on="0"/>
        <pt x="401" y="601" on="0"/>
        <pt x="340" y="615" on="0"/>
        <pt x="308" y="615" on="1"/>
        <pt x="237" y="615" on="0"/>
        <pt x="170" y="563" on="0"/>
        <pt x="170" y="517" on="1"/>
        <pt x="170" y="491" on="0"/>
        <pt x="191" y="458" on="0"/>
        <pt x="235" y="433" on="0"/>
        <pt x="301" y="414" on="0"/>
        <pt x="345" y="403" on="1"/>
        <pt x="399" y="390" on="0"/>
        <pt x="486" y="358" on="0"/>
        <pt x="546" y="312" on="0"/>
        <pt x="579" y="245" on="0"/>
        <pt x="579" y="197" on="1"/>
        <pt x="579" y="143" on="0"/>
        <pt x="538" y="65" on="0"/>
        <pt x="467" y="16" on="0"/>
        <pt x="373" y="-7" on="0"/>
        <pt x="319" y="-7" on="1"/>
        <pt x="238" y="-7" on="0"/>
        <pt x="87" y="42" on="0"/>
        <pt x="26" y="89" on="1"/>
        <pt x="77" y="185" on="1"/>
        <pt x="90" y="172" on="0"/>
        <pt x="139" y="140" on="0"/>
        <pt x="204" y="113" on="0"/>
        <pt x="280" y="94" on="0"/>
        <pt x="321" y="94" on="1"/>
        <pt x="387" y="94" on="0"/>
        <pt x="459" y="140" on="0"/>
        <pt x="459" y="185" on="1"/>
        <pt x="459" y="212" on="0"/>
        <pt x="432" y="248" on="0"/>
        <pt x="382" y="275" on="0"/>
        <pt x="310" y="297" on="0"/>
        <pt x="264" y="309" on="1"/>
        <pt x="211" y="323" on="0"/>
        <pt x="132" y="354" on="0"/>
        <pt x="80" y="398" on="0"/>
        <pt x="53" y="457" on="0"/>
        <pt x="53" y="499" on="1"/>
        <pt x="53" y="551" on="0"/>
        <pt x="93" y="632" on="0"/>
        <pt x="162" y="687" on="0"/>
        <pt x="256" y="715" on="0"/>
        <pt x="311" y="715" on="1"/>
        <pt x="383" y="715" on="0"/>
        <pt x="505" y="669" on="0"/>
        <pt x="551" y="635" on="1"/>
      </contour>
    </TTGlyph>
    <TTGlyph name="Sdotbelow" xMin="26" yMin="-189" xMax="579" yMax="715">
      <contour>
        <pt x="500" y="543" on="1"/>
        <pt x="490" y="554" on="0"/>
        <pt x="452" y="579" on="0"/>
        <pt x="401" y="601" on="0"/>
        <pt x="340" y="615" on="0"/>
        <pt x="308" y="615" on="1"/>
        <pt x="237" y="615" on="0"/>
        <pt x="170" y="563" on="0"/>
        <pt x="170" y="517" on="1"/>
        <pt x="170" y="491" on="0"/>
        <pt x="191" y="458" on="0"/>
        <pt x="235" y="433" on="0"/>
        <pt x="301" y="414" on="0"/>
        <pt x="345" y="403" on="1"/>
        <pt x="399" y="390" on="0"/>
        <pt x="486" y="358" on="0"/>
        <pt x="546" y="312" on="0"/>
        <pt x="579" y="245" on="0"/>
        <pt x="579" y="197" on="1"/>
        <pt x="579" y="143" on="0"/>
        <pt x="538" y="65" on="0"/>
        <pt x="467" y="16" on="0"/>
        <pt x="373" y="-7" on="0"/>
        <pt x="319" y="-7" on="1"/>
        <pt x="238" y="-7" on="0"/>
        <pt x="87" y="42" on="0"/>
        <pt x="26" y="89" on="1"/>
        <pt x="77" y="185" on="1"/>
        <pt x="90" y="172" on="0"/>
        <pt x="139" y="140" on="0"/>
        <pt x="204" y="113" on="0"/>
        <pt x="280" y="94" on="0"/>
        <pt x="321" y="94" on="1"/>
        <pt x="387" y="94" on="0"/>
        <pt x="459" y="140" on="0"/>
        <pt x="459" y="185" on="1"/>
        <pt x="459" y="212" on="0"/>
        <pt x="432" y="248" on="0"/>
        <pt x="382" y="275" on="0"/>
        <pt x="310" y="297" on="0"/>
        <pt x="264" y="309" on="1"/>
        <pt x="211" y="323" on="0"/>
        <pt x="132" y="354" on="0"/>
        <pt x="80" y="398" on="0"/>
        <pt x="53" y="457" on="0"/>
        <pt x="53" y="499" on="1"/>
        <pt x="53" y="551" on="0"/>
        <pt x="93" y="632" on="0"/>
        <pt x="162" y="687" on="0"/>
        <pt x="256" y="715" on="0"/>
        <pt x="311" y="715" on="1"/>
        <pt x="383" y="715" on="0"/>
        <pt x="505" y="669" on="0"/>
        <pt x="551" y="635" on="1"/>
      </contour>
      <contour>
        <pt x="254" y="-189" on="1"/>
        <pt x="254" y="-73" on="1"/>
        <pt x="353" y="-73" on="1"/>
        <pt x="353" y="-189" on="1"/>
      </contour>
    </TTGlyph>
    <TTGlyph name="T" xMin="15" yMin="0" xMax="601" yMax="710">
      <contour>
        <pt x="601" y="611" on="1"/>
        <pt x="365" y="611" on="1"/>
        <pt x="365" y="0" on="1"/>
        <pt x="252" y="0" on="1"/>
        <pt x="252" y="611" on="1"/>
        <pt x="15" y="611" on="1"/>
        <pt x="15" y="710" on="1"/>
        <pt x="601" y="710" on="1"/>
      </contour>
    </TTGlyph>
    <TTGlyph name="T.sc" xMin="19" yMin="0" xMax="524" yMax="555">
      <contour>
        <pt x="524" y="467" on="1"/>
        <pt x="322" y="467" on="1"/>
        <pt x="322" y="0" on="1"/>
        <pt x="222" y="0" on="1"/>
        <pt x="222" y="467" on="1"/>
        <pt x="19" y="467" on="1"/>
        <pt x="19" y="555" on="1"/>
        <pt x="524" y="555" on="1"/>
      </contour>
    </TTGlyph>
    <TTGlyph name="Tbar" xMin="28" yMin="0" xMax="614" yMax="710">
      <contour>
        <pt x="614" y="611" on="1"/>
        <pt x="378" y="611" on="1"/>
        <pt x="378" y="388" on="1"/>
        <pt x="579" y="388" on="1"/>
        <pt x="579" y="332" on="1"/>
        <pt x="378" y="332" on="1"/>
        <pt x="378" y="0" on="1"/>
        <pt x="265" y="0" on="1"/>
        <pt x="265" y="332" on="1"/>
        <pt x="64" y="332" on="1"/>
        <pt x="64" y="388" on="1"/>
        <pt x="265" y="388" on="1"/>
        <pt x="265" y="611" on="1"/>
        <pt x="28" y="611" on="1"/>
        <pt x="28" y="710" on="1"/>
        <pt x="614" y="710" on="1"/>
      </contour>
    </TTGlyph>
    <TTGlyph name="Tcaron" xMin="15" yMin="0" xMax="601" yMax="916">
      <contour>
        <pt x="227" y="916" on="1"/>
        <pt x="312" y="853" on="1"/>
        <pt x="397" y="916" on="1"/>
        <pt x="456" y="888" on="1"/>
        <pt x="352" y="793" on="1"/>
        <pt x="273" y="793" on="1"/>
        <pt x="169" y="888" on="1"/>
      </contour>
      <contour>
        <pt x="601" y="611" on="1"/>
        <pt x="365" y="611" on="1"/>
        <pt x="365" y="0" on="1"/>
        <pt x="252" y="0" on="1"/>
        <pt x="252" y="611" on="1"/>
        <pt x="15" y="611" on="1"/>
        <pt x="15" y="710" on="1"/>
        <pt x="601" y="710" on="1"/>
      </contour>
    </TTGlyph>
    <TTGlyph name="Tdotbelow" xMin="15" yMin="-189" xMax="601" yMax="710">
      <contour>
        <pt x="256" y="-189" on="1"/>
        <pt x="256" y="-73" on="1"/>
        <pt x="355" y="-73" on="1"/>
        <pt x="355" y="-189" on="1"/>
      </contour>
      <contour>
        <pt x="601" y="611" on="1"/>
        <pt x="365" y="611" on="1"/>
        <pt x="365" y="0" on="1"/>
        <pt x="252" y="0" on="1"/>
        <pt x="252" y="611" on="1"/>
        <pt x="15" y="611" on="1"/>
        <pt x="15" y="710" on="1"/>
        <pt x="601" y="710" on="1"/>
      </contour>
    </TTGlyph>
    <TTGlyph name="Thorn" xMin="80" yMin="0" xMax="581" yMax="710">
      <contour>
        <pt x="361" y="577" on="1"/>
        <pt x="409" y="577" on="0"/>
        <pt x="490" y="537" on="0"/>
        <pt x="548" y="472" on="0"/>
        <pt x="581" y="389" on="0"/>
        <pt x="581" y="346" on="1"/>
        <pt x="581" y="301" on="0"/>
        <pt x="550" y="217" on="0"/>
        <pt x="494" y="153" on="0"/>
        <pt x="414" y="114" on="0"/>
        <pt x="366" y="114" on="1"/>
        <pt x="192" y="114" on="1"/>
        <pt x="192" y="0" on="1"/>
        <pt x="80" y="0" on="1"/>
        <pt x="80" y="710" on="1"/>
        <pt x="192" y="710" on="1"/>
        <pt x="192" y="577" on="1"/>
      </contour>
      <contour>
        <pt x="361" y="214" on="1"/>
        <pt x="385" y="214" on="0"/>
        <pt x="424" y="236" on="0"/>
        <pt x="453" y="272" on="0"/>
        <pt x="468" y="320" on="0"/>
        <pt x="468" y="346" on="1"/>
        <pt x="468" y="374" on="0"/>
        <pt x="450" y="422" on="0"/>
        <pt x="419" y="458" on="0"/>
        <pt x="378" y="478" on="0"/>
        <pt x="355" y="478" on="1"/>
        <pt x="192" y="478" on="1"/>
        <pt x="192" y="214" on="1"/>
      </contour>
    </TTGlyph>
    <TTGlyph name="U" xMin="70" yMin="-5" xMax="683" yMax="710">
      <contour>
        <pt x="376" y="96" on="1"/>
        <pt x="432" y="96" on="0"/>
        <pt x="506" y="140" on="0"/>
        <pt x="551" y="211" on="0"/>
        <pt x="570" y="302" on="0"/>
        <pt x="570" y="350" on="1"/>
        <pt x="570" y="710" on="1"/>
        <pt x="683" y="710" on="1"/>
        <pt x="683" y="350" on="1"/>
        <pt x="683" y="277" on="0"/>
        <pt x="649" y="148" on="0"/>
        <pt x="575" y="51" on="0"/>
        <pt x="458" y="-5" on="0"/>
        <pt x="376" y="-5" on="1"/>
        <pt x="291" y="-5" on="0"/>
        <pt x="174" y="54" on="0"/>
        <pt x="102" y="153" on="0"/>
        <pt x="70" y="281" on="0"/>
        <pt x="70" y="350" on="1"/>
        <pt x="70" y="710" on="1"/>
        <pt x="182" y="710" on="1"/>
        <pt x="182" y="350" on="1"/>
        <pt x="182" y="301" on="0"/>
        <pt x="201" y="210" on="0"/>
        <pt x="246" y="139" on="0"/>
        <pt x="321" y="96" on="0"/>
      </contour>
    </TTGlyph>
    <TTGlyph name="U.sc" xMin="66" yMin="-4" xMax="588" yMax="555">
      <contour>
        <pt x="326" y="85" on="1"/>
        <pt x="373" y="85" on="0"/>
        <pt x="435" y="117" on="0"/>
        <pt x="473" y="170" on="0"/>
        <pt x="488" y="237" on="0"/>
        <pt x="488" y="273" on="1"/>
        <pt x="488" y="555" on="1"/>
        <pt x="588" y="555" on="1"/>
        <pt x="588" y="273" on="1"/>
        <pt x="588" y="216" on="0"/>
        <pt x="559" y="115" on="0"/>
        <pt x="496" y="40" on="0"/>
        <pt x="397" y="-4" on="0"/>
        <pt x="327" y="-4" on="1"/>
        <pt x="255" y="-4" on="0"/>
        <pt x="155" y="42" on="0"/>
        <pt x="94" y="119" on="0"/>
        <pt x="66" y="219" on="0"/>
        <pt x="66" y="273" on="1"/>
        <pt x="66" y="555" on="1"/>
        <pt x="165" y="555" on="1"/>
        <pt x="165" y="273" on="1"/>
        <pt x="165" y="237" on="0"/>
        <pt x="181" y="169" on="0"/>
        <pt x="219" y="116" on="0"/>
        <pt x="281" y="85" on="0"/>
      </contour>
    </TTGlyph>
    <TTGlyph name="Uacute" xMin="70" yMin="-5" xMax="683" yMax="916">
      <contour>
        <pt x="401" y="784" on="1"/>
        <pt x="329" y="806" on="1"/>
        <pt x="386" y="916" on="1"/>
        <pt x="491" y="916" on="1"/>
      </contour>
      <contour>
        <pt x="376" y="96" on="1"/>
        <pt x="432" y="96" on="0"/>
        <pt x="506" y="140" on="0"/>
        <pt x="551" y="211" on="0"/>
        <pt x="570" y="302" on="0"/>
        <pt x="570" y="350" on="1"/>
        <pt x="570" y="710" on="1"/>
        <pt x="683" y="710" on="1"/>
        <pt x="683" y="350" on="1"/>
        <pt x="683" y="277" on="0"/>
        <pt x="649" y="148" on="0"/>
        <pt x="575" y="51" on="0"/>
        <pt x="458" y="-5" on="0"/>
        <pt x="376" y="-5" on="1"/>
        <pt x="291" y="-5" on="0"/>
        <pt x="174" y="54" on="0"/>
        <pt x="102" y="153" on="0"/>
        <pt x="70" y="281" on="0"/>
        <pt x="70" y="350" on="1"/>
        <pt x="70" y="710" on="1"/>
        <pt x="182" y="710" on="1"/>
        <pt x="182" y="350" on="1"/>
        <pt x="182" y="301" on="0"/>
        <pt x="201" y="210" on="0"/>
        <pt x="246" y="139" on="0"/>
        <pt x="321" y="96" on="0"/>
      </contour>
    </TTGlyph>
    <TTGlyph name="Ubreve" xMin="70" yMin="-5" xMax="683" yMax="916">
      <contour>
        <pt x="376" y="96" on="1"/>
        <pt x="432" y="96" on="0"/>
        <pt x="506" y="140" on="0"/>
        <pt x="551" y="211" on="0"/>
        <pt x="570" y="302" on="0"/>
        <pt x="570" y="350" on="1"/>
        <pt x="570" y="710" on="1"/>
        <pt x="683" y="710" on="1"/>
        <pt x="683" y="350" on="1"/>
        <pt x="683" y="277" on="0"/>
        <pt x="649" y="148" on="0"/>
        <pt x="575" y="51" on="0"/>
        <pt x="458" y="-5" on="0"/>
        <pt x="376" y="-5" on="1"/>
        <pt x="291" y="-5" on="0"/>
        <pt x="174" y="54" on="0"/>
        <pt x="102" y="153" on="0"/>
        <pt x="70" y="281" on="0"/>
        <pt x="70" y="350" on="1"/>
        <pt x="70" y="710" on="1"/>
        <pt x="182" y="710" on="1"/>
        <pt x="182" y="350" on="1"/>
        <pt x="182" y="301" on="0"/>
        <pt x="201" y="210" on="0"/>
        <pt x="246" y="139" on="0"/>
        <pt x="321" y="96" on="0"/>
      </contour>
      <contour>
        <pt x="377" y="845" on="1"/>
        <pt x="399" y="845" on="0"/>
        <pt x="432" y="885" on="0"/>
        <pt x="435" y="916" on="1"/>
        <pt x="496" y="916" on="1"/>
        <pt x="496" y="890" on="0"/>
        <pt x="478" y="845" on="0"/>
        <pt x="446" y="812" on="0"/>
        <pt x="402" y="794" on="0"/>
        <pt x="377" y="794" on="1"/>
        <pt x="351" y="794" on="0"/>
        <pt x="308" y="812" on="0"/>
        <pt x="276" y="845" on="0"/>
        <pt x="258" y="890" on="0"/>
        <pt x="258" y="916" on="1"/>
        <pt x="319" y="916" on="1"/>
        <pt x="319" y="887" on="0"/>
        <pt x="354" y="845" on="0"/>
      </contour>
    </TTGlyph>
    <TTGlyph name="Ucircumflex" xMin="70" yMin="-5" xMax="683" yMax="916">
      <contour>
        <pt x="233" y="821" on="1"/>
        <pt x="337" y="916" on="1"/>
        <pt x="416" y="916" on="1"/>
        <pt x="520" y="821" on="1"/>
        <pt x="461" y="793" on="1"/>
        <pt x="376" y="856" on="1"/>
        <pt x="291" y="793" on="1"/>
      </contour>
      <contour>
        <pt x="376" y="96" on="1"/>
        <pt x="432" y="96" on="0"/>
        <pt x="506" y="140" on="0"/>
        <pt x="551" y="211" on="0"/>
        <pt x="570" y="302" on="0"/>
        <pt x="570" y="350" on="1"/>
        <pt x="570" y="710" on="1"/>
        <pt x="683" y="710" on="1"/>
        <pt x="683" y="350" on="1"/>
        <pt x="683" y="277" on="0"/>
        <pt x="649" y="148" on="0"/>
        <pt x="575" y="51" on="0"/>
        <pt x="458" y="-5" on="0"/>
        <pt x="376" y="-5" on="1"/>
        <pt x="291" y="-5" on="0"/>
        <pt x="174" y="54" on="0"/>
        <pt x="102" y="153" on="0"/>
        <pt x="70" y="281" on="0"/>
        <pt x="70" y="350" on="1"/>
        <pt x="70" y="710" on="1"/>
        <pt x="182" y="710" on="1"/>
        <pt x="182" y="350" on="1"/>
        <pt x="182" y="301" on="0"/>
        <pt x="201" y="210" on="0"/>
        <pt x="246" y="139" on="0"/>
        <pt x="321" y="96" on="0"/>
      </contour>
    </TTGlyph>
    <TTGlyph name="Udblgrave" xMin="70" yMin="-5" xMax="683" yMax="917">
      <contour>
        <pt x="351" y="917" on="1"/>
        <pt x="440" y="917" on="1"/>
        <pt x="491" y="807" on="1"/>
        <pt x="436" y="785" on="1"/>
      </contour>
      <contour>
        <pt x="203" y="917" on="1"/>
        <pt x="293" y="917" on="1"/>
        <pt x="344" y="807" on="1"/>
        <pt x="288" y="785" on="1"/>
      </contour>
      <contour>
        <pt x="376" y="96" on="1"/>
        <pt x="432" y="96" on="0"/>
        <pt x="506" y="140" on="0"/>
        <pt x="551" y="211" on="0"/>
        <pt x="570" y="302" on="0"/>
        <pt x="570" y="350" on="1"/>
        <pt x="570" y="710" on="1"/>
        <pt x="683" y="710" on="1"/>
        <pt x="683" y="350" on="1"/>
        <pt x="683" y="277" on="0"/>
        <pt x="649" y="148" on="0"/>
        <pt x="575" y="51" on="0"/>
        <pt x="458" y="-5" on="0"/>
        <pt x="376" y="-5" on="1"/>
        <pt x="291" y="-5" on="0"/>
        <pt x="174" y="54" on="0"/>
        <pt x="102" y="153" on="0"/>
        <pt x="70" y="281" on="0"/>
        <pt x="70" y="350" on="1"/>
        <pt x="70" y="710" on="1"/>
        <pt x="182" y="710" on="1"/>
        <pt x="182" y="350" on="1"/>
        <pt x="182" y="301" on="0"/>
        <pt x="201" y="210" on="0"/>
        <pt x="246" y="139" on="0"/>
        <pt x="321" y="96" on="0"/>
      </contour>
    </TTGlyph>
    <TTGlyph name="Udieresis" xMin="70" yMin="-5" xMax="683" yMax="912">
      <contour>
        <pt x="242" y="802" on="1"/>
        <pt x="242" y="912" on="1"/>
        <pt x="334" y="912" on="1"/>
        <pt x="334" y="802" on="1"/>
      </contour>
      <contour>
        <pt x="419" y="802" on="1"/>
        <pt x="419" y="912" on="1"/>
        <pt x="511" y="912" on="1"/>
        <pt x="511" y="802" on="1"/>
      </contour>
      <contour>
        <pt x="376" y="96" on="1"/>
        <pt x="432" y="96" on="0"/>
        <pt x="506" y="140" on="0"/>
        <pt x="551" y="211" on="0"/>
        <pt x="570" y="302" on="0"/>
        <pt x="570" y="350" on="1"/>
        <pt x="570" y="710" on="1"/>
        <pt x="683" y="710" on="1"/>
        <pt x="683" y="350" on="1"/>
        <pt x="683" y="277" on="0"/>
        <pt x="649" y="148" on="0"/>
        <pt x="575" y="51" on="0"/>
        <pt x="458" y="-5" on="0"/>
        <pt x="376" y="-5" on="1"/>
        <pt x="291" y="-5" on="0"/>
        <pt x="174" y="54" on="0"/>
        <pt x="102" y="153" on="0"/>
        <pt x="70" y="281" on="0"/>
        <pt x="70" y="350" on="1"/>
        <pt x="70" y="710" on="1"/>
        <pt x="182" y="710" on="1"/>
        <pt x="182" y="350" on="1"/>
        <pt x="182" y="301" on="0"/>
        <pt x="201" y="210" on="0"/>
        <pt x="246" y="139" on="0"/>
        <pt x="321" y="96" on="0"/>
      </contour>
    </TTGlyph>
    <TTGlyph name="Udotbelow" xMin="70" yMin="-189" xMax="683" yMax="710">
      <contour>
        <pt x="376" y="96" on="1"/>
        <pt x="432" y="96" on="0"/>
        <pt x="506" y="140" on="0"/>
        <pt x="551" y="211" on="0"/>
        <pt x="570" y="302" on="0"/>
        <pt x="570" y="350" on="1"/>
        <pt x="570" y="710" on="1"/>
        <pt x="683" y="710" on="1"/>
        <pt x="683" y="350" on="1"/>
        <pt x="683" y="277" on="0"/>
        <pt x="649" y="148" on="0"/>
        <pt x="575" y="51" on="0"/>
        <pt x="458" y="-5" on="0"/>
        <pt x="376" y="-5" on="1"/>
        <pt x="291" y="-5" on="0"/>
        <pt x="174" y="54" on="0"/>
        <pt x="102" y="153" on="0"/>
        <pt x="70" y="281" on="0"/>
        <pt x="70" y="350" on="1"/>
        <pt x="70" y="710" on="1"/>
        <pt x="182" y="710" on="1"/>
        <pt x="182" y="350" on="1"/>
        <pt x="182" y="301" on="0"/>
        <pt x="201" y="210" on="0"/>
        <pt x="246" y="139" on="0"/>
        <pt x="321" y="96" on="0"/>
      </contour>
      <contour>
        <pt x="327" y="-189" on="1"/>
        <pt x="327" y="-73" on="1"/>
        <pt x="426" y="-73" on="1"/>
        <pt x="426" y="-189" on="1"/>
      </contour>
    </TTGlyph>
    <TTGlyph name="Ugrave" xMin="70" yMin="-5" xMax="683" yMax="917">
      <contour>
        <pt x="376" y="96" on="1"/>
        <pt x="432" y="96" on="0"/>
        <pt x="506" y="140" on="0"/>
        <pt x="551" y="211" on="0"/>
        <pt x="570" y="302" on="0"/>
        <pt x="570" y="350" on="1"/>
        <pt x="570" y="710" on="1"/>
        <pt x="683" y="710" on="1"/>
        <pt x="683" y="350" on="1"/>
        <pt x="683" y="277" on="0"/>
        <pt x="649" y="148" on="0"/>
        <pt x="575" y="51" on="0"/>
        <pt x="458" y="-5" on="0"/>
        <pt x="376" y="-5" on="1"/>
        <pt x="291" y="-5" on="0"/>
        <pt x="174" y="54" on="0"/>
        <pt x="102" y="153" on="0"/>
        <pt x="70" y="281" on="0"/>
        <pt x="70" y="350" on="1"/>
        <pt x="70" y="710" on="1"/>
        <pt x="182" y="710" on="1"/>
        <pt x="182" y="350" on="1"/>
        <pt x="182" y="301" on="0"/>
        <pt x="201" y="210" on="0"/>
        <pt x="246" y="139" on="0"/>
        <pt x="321" y="96" on="0"/>
      </contour>
      <contour>
        <pt x="261" y="917" on="1"/>
        <pt x="366" y="917" on="1"/>
        <pt x="423" y="807" on="1"/>
        <pt x="353" y="785" on="1"/>
      </contour>
    </TTGlyph>
    <TTGlyph name="Uhungarumlaut" xMin="70" yMin="-5" xMax="683" yMax="917">
      <contour>
        <pt x="376" y="96" on="1"/>
        <pt x="432" y="96" on="0"/>
        <pt x="506" y="140" on="0"/>
        <pt x="551" y="211" on="0"/>
        <pt x="570" y="302" on="0"/>
        <pt x="570" y="350" on="1"/>
        <pt x="570" y="710" on="1"/>
        <pt x="683" y="710" on="1"/>
        <pt x="683" y="350" on="1"/>
        <pt x="683" y="277" on="0"/>
        <pt x="649" y="148" on="0"/>
        <pt x="575" y="51" on="0"/>
        <pt x="458" y="-5" on="0"/>
        <pt x="376" y="-5" on="1"/>
        <pt x="291" y="-5" on="0"/>
        <pt x="174" y="54" on="0"/>
        <pt x="102" y="153" on="0"/>
        <pt x="70" y="281" on="0"/>
        <pt x="70" y="350" on="1"/>
        <pt x="70" y="710" on="1"/>
        <pt x="182" y="710" on="1"/>
        <pt x="182" y="350" on="1"/>
        <pt x="182" y="301" on="0"/>
        <pt x="201" y="210" on="0"/>
        <pt x="246" y="139" on="0"/>
        <pt x="321" y="96" on="0"/>
      </contour>
      <contour>
        <pt x="312" y="785" on="1"/>
        <pt x="257" y="807" on="1"/>
        <pt x="308" y="917" on="1"/>
        <pt x="397" y="917" on="1"/>
      </contour>
      <contour>
        <pt x="460" y="785" on="1"/>
        <pt x="404" y="807" on="1"/>
        <pt x="455" y="917" on="1"/>
        <pt x="545" y="917" on="1"/>
      </contour>
    </TTGlyph>
    <TTGlyph name="Uinvertedbreve" xMin="70" yMin="-5" xMax="683" yMax="916">
      <contour>
        <pt x="376" y="865" on="1"/>
        <pt x="353" y="865" on="0"/>
        <pt x="318" y="823" on="0"/>
        <pt x="318" y="794" on="1"/>
        <pt x="257" y="794" on="1"/>
        <pt x="257" y="820" on="0"/>
        <pt x="275" y="865" on="0"/>
        <pt x="307" y="898" on="0"/>
        <pt x="350" y="916" on="0"/>
        <pt x="376" y="916" on="1"/>
        <pt x="401" y="916" on="0"/>
        <pt x="445" y="898" on="0"/>
        <pt x="477" y="865" on="0"/>
        <pt x="495" y="820" on="0"/>
        <pt x="495" y="794" on="1"/>
        <pt x="434" y="794" on="1"/>
        <pt x="431" y="825" on="0"/>
        <pt x="398" y="865" on="0"/>
      </contour>
      <contour>
        <pt x="376" y="96" on="1"/>
        <pt x="432" y="96" on="0"/>
        <pt x="506" y="140" on="0"/>
        <pt x="551" y="211" on="0"/>
        <pt x="570" y="302" on="0"/>
        <pt x="570" y="350" on="1"/>
        <pt x="570" y="710" on="1"/>
        <pt x="683" y="710" on="1"/>
        <pt x="683" y="350" on="1"/>
        <pt x="683" y="277" on="0"/>
        <pt x="649" y="148" on="0"/>
        <pt x="575" y="51" on="0"/>
        <pt x="458" y="-5" on="0"/>
        <pt x="376" y="-5" on="1"/>
        <pt x="291" y="-5" on="0"/>
        <pt x="174" y="54" on="0"/>
        <pt x="102" y="153" on="0"/>
        <pt x="70" y="281" on="0"/>
        <pt x="70" y="350" on="1"/>
        <pt x="70" y="710" on="1"/>
        <pt x="182" y="710" on="1"/>
        <pt x="182" y="350" on="1"/>
        <pt x="182" y="301" on="0"/>
        <pt x="201" y="210" on="0"/>
        <pt x="246" y="139" on="0"/>
        <pt x="321" y="96" on="0"/>
      </contour>
    </TTGlyph>
    <TTGlyph name="Umacron" xMin="70" yMin="-5" xMax="683" yMax="900">
      <contour>
        <pt x="376" y="96" on="1"/>
        <pt x="432" y="96" on="0"/>
        <pt x="506" y="140" on="0"/>
        <pt x="551" y="211" on="0"/>
        <pt x="570" y="302" on="0"/>
        <pt x="570" y="350" on="1"/>
        <pt x="570" y="710" on="1"/>
        <pt x="683" y="710" on="1"/>
        <pt x="683" y="350" on="1"/>
        <pt x="683" y="277" on="0"/>
        <pt x="649" y="148" on="0"/>
        <pt x="575" y="51" on="0"/>
        <pt x="458" y="-5" on="0"/>
        <pt x="376" y="-5" on="1"/>
        <pt x="291" y="-5" on="0"/>
        <pt x="174" y="54" on="0"/>
        <pt x="102" y="153" on="0"/>
        <pt x="70" y="281" on="0"/>
        <pt x="70" y="350" on="1"/>
        <pt x="70" y="710" on="1"/>
        <pt x="182" y="710" on="1"/>
        <pt x="182" y="350" on="1"/>
        <pt x="182" y="301" on="0"/>
        <pt x="201" y="210" on="0"/>
        <pt x="246" y="139" on="0"/>
        <pt x="321" y="96" on="0"/>
      </contour>
      <contour>
        <pt x="229" y="830" on="1"/>
        <pt x="229" y="900" on="1"/>
        <pt x="525" y="900" on="1"/>
        <pt x="525" y="830" on="1"/>
      </contour>
    </TTGlyph>
    <TTGlyph name="Uogonek" xMin="70" yMin="-190" xMax="683" yMax="710">
      <contour>
        <pt x="376" y="96" on="1"/>
        <pt x="432" y="96" on="0"/>
        <pt x="506" y="140" on="0"/>
        <pt x="551" y="211" on="0"/>
        <pt x="570" y="302" on="0"/>
        <pt x="570" y="350" on="1"/>
        <pt x="570" y="710" on="1"/>
        <pt x="683" y="710" on="1"/>
        <pt x="683" y="350" on="1"/>
        <pt x="683" y="280" on="0"/>
        <pt x="651" y="156" on="0"/>
        <pt x="584" y="60" on="0"/>
        <pt x="478" y="1" on="0"/>
        <pt x="403" y="-4" on="1"/>
        <pt x="363" y="-29" on="0"/>
        <pt x="327" y="-70" on="0"/>
        <pt x="327" y="-91" on="1"/>
        <pt x="327" y="-128" on="0"/>
        <pt x="385" y="-132" on="1"/>
        <pt x="360" y="-190" on="1"/>
        <pt x="311" y="-182" on="0"/>
        <pt x="261" y="-137" on="0"/>
        <pt x="261" y="-108" on="1"/>
        <pt x="261" y="-55" on="0"/>
        <pt x="338" y="-3" on="1"/>
        <pt x="264" y="4" on="0"/>
        <pt x="162" y="67" on="0"/>
        <pt x="98" y="163" on="0"/>
        <pt x="70" y="285" on="0"/>
        <pt x="70" y="350" on="1"/>
        <pt x="70" y="710" on="1"/>
        <pt x="182" y="710" on="1"/>
        <pt x="182" y="350" on="1"/>
        <pt x="182" y="301" on="0"/>
        <pt x="201" y="210" on="0"/>
        <pt x="246" y="139" on="0"/>
        <pt x="321" y="96" on="0"/>
      </contour>
    </TTGlyph>
    <TTGlyph name="Uring" xMin="70" yMin="-5" xMax="683" yMax="916">
      <contour>
        <pt x="287" y="843" on="1"/>
        <pt x="287" y="878" on="0"/>
        <pt x="336" y="916" on="0"/>
        <pt x="375" y="916" on="1"/>
        <pt x="415" y="916" on="0"/>
        <pt x="464" y="878" on="0"/>
        <pt x="464" y="843" on="1"/>
        <pt x="464" y="809" on="0"/>
        <pt x="415" y="770" on="0"/>
        <pt x="375" y="770" on="1"/>
        <pt x="336" y="770" on="0"/>
        <pt x="287" y="809" on="0"/>
      </contour>
      <contour>
        <pt x="375" y="880" on="1"/>
        <pt x="358" y="880" on="0"/>
        <pt x="335" y="860" on="0"/>
        <pt x="335" y="843" on="1"/>
        <pt x="335" y="828" on="0"/>
        <pt x="358" y="806" on="0"/>
        <pt x="375" y="806" on="1"/>
        <pt x="392" y="806" on="0"/>
        <pt x="416" y="827" on="0"/>
        <pt x="416" y="843" on="1"/>
        <pt x="416" y="860" on="0"/>
        <pt x="392" y="880" on="0"/>
      </contour>
      <contour>
        <pt x="376" y="96" on="1"/>
        <pt x="432" y="96" on="0"/>
        <pt x="506" y="140" on="0"/>
        <pt x="551" y="211" on="0"/>
        <pt x="570" y="302" on="0"/>
        <pt x="570" y="350" on="1"/>
        <pt x="570" y="710" on="1"/>
        <pt x="683" y="710" on="1"/>
        <pt x="683" y="350" on="1"/>
        <pt x="683" y="277" on="0"/>
        <pt x="649" y="148" on="0"/>
        <pt x="575" y="51" on="0"/>
        <pt x="458" y="-5" on="0"/>
        <pt x="376" y="-5" on="1"/>
        <pt x="291" y="-5" on="0"/>
        <pt x="174" y="54" on="0"/>
        <pt x="102" y="153" on="0"/>
        <pt x="70" y="281" on="0"/>
        <pt x="70" y="350" on="1"/>
        <pt x="70" y="710" on="1"/>
        <pt x="182" y="710" on="1"/>
        <pt x="182" y="350" on="1"/>
        <pt x="182" y="301" on="0"/>
        <pt x="201" y="210" on="0"/>
        <pt x="246" y="139" on="0"/>
        <pt x="321" y="96" on="0"/>
      </contour>
    </TTGlyph>
    <TTGlyph name="Utilde" xMin="70" yMin="-5" xMax="683" yMax="916">
      <contour>
        <pt x="376" y="96" on="1"/>
        <pt x="432" y="96" on="0"/>
        <pt x="506" y="140" on="0"/>
        <pt x="551" y="211" on="0"/>
        <pt x="570" y="302" on="0"/>
        <pt x="570" y="350" on="1"/>
        <pt x="570" y="710" on="1"/>
        <pt x="683" y="710" on="1"/>
        <pt x="683" y="350" on="1"/>
        <pt x="683" y="277" on="0"/>
        <pt x="649" y="148" on="0"/>
        <pt x="575" y="51" on="0"/>
        <pt x="458" y="-5" on="0"/>
        <pt x="376" y="-5" on="1"/>
        <pt x="291" y="-5" on="0"/>
        <pt x="174" y="54" on="0"/>
        <pt x="102" y="153" on="0"/>
        <pt x="70" y="281" on="0"/>
        <pt x="70" y="350" on="1"/>
        <pt x="70" y="710" on="1"/>
        <pt x="182" y="710" on="1"/>
        <pt x="182" y="350" on="1"/>
        <pt x="182" y="301" on="0"/>
        <pt x="201" y="210" on="0"/>
        <pt x="246" y="139" on="0"/>
        <pt x="321" y="96" on="0"/>
      </contour>
      <contour>
        <pt x="439" y="801" on="1"/>
        <pt x="416" y="801" on="0"/>
        <pt x="382" y="814" on="0"/>
        <pt x="353" y="831" on="0"/>
        <pt x="325" y="844" on="0"/>
        <pt x="309" y="844" on="1"/>
        <pt x="292" y="844" on="0"/>
        <pt x="273" y="830" on="0"/>
        <pt x="263" y="813" on="0"/>
        <pt x="260" y="797" on="0"/>
        <pt x="260" y="796" on="1"/>
        <pt x="198" y="796" on="1"/>
        <pt x="198" y="804" on="0"/>
        <pt x="208" y="842" on="0"/>
        <pt x="233" y="881" on="0"/>
        <pt x="274" y="911" on="0"/>
        <pt x="305" y="911" on="1"/>
        <pt x="327" y="911" on="0"/>
        <pt x="360" y="897" on="0"/>
        <pt x="389" y="881" on="0"/>
        <pt x="418" y="867" on="0"/>
        <pt x="436" y="867" on="1"/>
        <pt x="454" y="867" on="0"/>
        <pt x="476" y="881" on="0"/>
        <pt x="487" y="899" on="0"/>
        <pt x="490" y="914" on="0"/>
        <pt x="490" y="916" on="1"/>
        <pt x="553" y="916" on="1"/>
        <pt x="553" y="910" on="0"/>
        <pt x="542" y="872" on="0"/>
        <pt x="516" y="832" on="0"/>
        <pt x="472" y="801" on="0"/>
      </contour>
    </TTGlyph>
    <TTGlyph name="V" xMin="6" yMin="0" xMax="671" yMax="710">
      <contour>
        <pt x="125" y="710" on="1"/>
        <pt x="339" y="141" on="1"/>
        <pt x="552" y="710" on="1"/>
        <pt x="671" y="710" on="1"/>
        <pt x="387" y="0" on="1"/>
        <pt x="291" y="0" on="1"/>
        <pt x="6" y="710" on="1"/>
      </contour>
    </TTGlyph>
    <TTGlyph name="V.sc" xMin="9" yMin="0" xMax="584" yMax="555">
      <contour>
        <pt x="115" y="555" on="1"/>
        <pt x="297" y="140" on="1"/>
        <pt x="478" y="555" on="1"/>
        <pt x="584" y="555" on="1"/>
        <pt x="339" y="0" on="1"/>
        <pt x="254" y="0" on="1"/>
        <pt x="9" y="555" on="1"/>
      </contour>
    </TTGlyph>
    <TTGlyph name="W" xMin="4" yMin="0" xMax="1047" yMax="710">
      <contour>
        <pt x="332" y="707" on="1"/>
        <pt x="438" y="707" on="1"/>
        <pt x="525" y="466" on="1"/>
        <pt x="613" y="707" on="1"/>
        <pt x="718" y="707" on="1"/>
        <pt x="597" y="391" on="1"/>
        <pt x="703" y="130" on="1"/>
        <pt x="924" y="710" on="1"/>
        <pt x="1047" y="710" on="1"/>
        <pt x="754" y="0" on="1"/>
        <pt x="658" y="0" on="1"/>
        <pt x="526" y="318" on="1"/>
        <pt x="393" y="0" on="1"/>
        <pt x="297" y="0" on="1"/>
        <pt x="4" y="710" on="1"/>
        <pt x="126" y="710" on="1"/>
        <pt x="348" y="130" on="1"/>
        <pt x="454" y="391" on="1"/>
      </contour>
    </TTGlyph>
    <TTGlyph name="W.alt" xMin="14" yMin="0" xMax="1078" yMax="710">
      <contour>
        <pt x="1078" y="710" on="1"/>
        <pt x="855" y="0" on="1"/>
        <pt x="737" y="0" on="1"/>
        <pt x="544" y="526" on="1"/>
        <pt x="355" y="0" on="1"/>
        <pt x="238" y="0" on="1"/>
        <pt x="14" y="710" on="1"/>
        <pt x="141" y="710" on="1"/>
        <pt x="307" y="168" on="1"/>
        <pt x="482" y="710" on="1"/>
        <pt x="605" y="710" on="1"/>
        <pt x="785" y="168" on="1"/>
        <pt x="951" y="710" on="1"/>
      </contour>
    </TTGlyph>
    <TTGlyph name="W.sc" xMin="8" yMin="0" xMax="909" yMax="555">
      <contour>
        <pt x="291" y="552" on="1"/>
        <pt x="383" y="552" on="1"/>
        <pt x="458" y="367" on="1"/>
        <pt x="533" y="552" on="1"/>
        <pt x="625" y="552" on="1"/>
        <pt x="520" y="302" on="1"/>
        <pt x="607" y="120" on="1"/>
        <pt x="800" y="555" on="1"/>
        <pt x="909" y="555" on="1"/>
        <pt x="656" y="0" on="1"/>
        <pt x="572" y="0" on="1"/>
        <pt x="458" y="239" on="1"/>
        <pt x="345" y="0" on="1"/>
        <pt x="260" y="0" on="1"/>
        <pt x="8" y="555" on="1"/>
        <pt x="116" y="555" on="1"/>
        <pt x="310" y="120" on="1"/>
        <pt x="395" y="302" on="1"/>
      </contour>
    </TTGlyph>
</ttFont>
